<svg width="144" height="48" viewBox="0 0 144 48" fill="none" xmlns="http://www.w3.org/2000/svg">
<path d="M144 41.5044C144 45.0756 141.157 48 137.624 48H6.37608C2.84301 48 0 45.0756 0 41.5044V6.49561C0 2.89631 2.84301 0 6.37608 0H137.652C141.157 0 144.028 2.89631 144.028 6.49561V41.5044H144Z" fill="#152F4E"/>
<path d="M37.5386 31.7186C36.7657 33.4339 36.4069 34.2212 35.4408 35.7397C34.0607 37.8768 32.1286 40.52 29.7548 40.52C27.6294 40.5481 27.0774 39.114 24.2068 39.114C21.3361 39.1421 20.7289 40.52 18.6035 40.52C16.2022 40.4919 14.3528 38.1298 13.0003 35.9927C9.16363 30.0595 8.7772 23.0859 11.1234 19.3741C12.8071 16.7309 15.4569 15.2124 17.9411 15.2124C20.4805 15.2124 22.0814 16.6184 24.1792 16.6184C26.2217 16.6184 27.4638 15.2124 30.3896 15.2124C32.5978 15.2124 34.944 16.4497 36.6277 18.5586C31.1349 21.6237 32.0182 29.5815 37.5386 31.7186Z" fill="white"/>
<path d="M28.154 12.8225C29.2305 11.4165 30.0309 9.47626 29.7273 7.45166C27.9884 7.56414 25.9458 8.68892 24.7589 10.1792C23.6824 11.5009 22.7992 13.4973 23.1304 15.4095C25.035 15.4657 26.9947 14.3128 28.154 12.8225Z" fill="white"/>
<path d="M49.2147 19.29L43.7219 35.74H46.2337L47.8622 30.6785H53.1618L54.8456 35.74H57.4402L51.9198 19.29H49.2147ZM50.512 21.9895C50.7053 22.7206 50.8985 23.4799 51.1469 24.3234L52.6374 28.682H48.4419L49.9048 24.2953C50.1256 23.5642 50.3188 22.805 50.512 21.9895Z" fill="white"/>
<path d="M64.5616 23.5645C62.9054 23.5645 61.5529 24.2112 60.6697 25.4766L60.5593 23.8456H58.3235V24.0425C58.3787 25.0548 58.4063 26.1796 58.4063 27.7824V40.4643H60.8629V34.5592C61.6081 35.4871 62.8226 36.0214 64.2027 36.0214C65.638 36.0214 66.9353 35.459 67.9014 34.4186C68.9779 33.2657 69.5299 31.6066 69.5299 29.6383C69.5299 27.8949 69.0331 26.3764 68.1222 25.2797C67.239 24.155 65.9693 23.5645 64.5616 23.5645ZM63.9543 25.6172C66.1349 25.6172 67.101 27.6699 67.101 29.7226C67.101 32.3377 65.8589 33.9687 63.8439 33.9687C62.4638 33.9687 61.3045 33.0126 60.9733 31.6629C60.9181 31.4379 60.8905 31.1848 60.8905 30.8474V28.8509C60.8905 28.6822 60.9181 28.4572 60.9733 28.2323C60.9733 28.1761 61.0009 28.0917 61.0009 28.0355C61.3597 26.6014 62.5742 25.6172 63.9543 25.6172Z" fill="white"/>
<path d="M77.1477 23.5645C75.4916 23.5645 74.1391 24.2112 73.2558 25.4766L73.1454 23.8456H70.9373V24.0425C70.9925 25.0548 71.0201 26.1796 71.0201 27.7824V40.4643H73.4766V34.5592C74.2219 35.4871 75.4364 36.0214 76.8165 36.0214C78.2518 36.0214 79.5491 35.459 80.5152 34.4186C81.5916 33.2657 82.1437 31.6066 82.1437 29.6383C82.1437 27.8949 81.6468 26.3764 80.736 25.2797C79.8251 24.155 78.5554 23.5645 77.1477 23.5645ZM76.5405 25.6172C78.721 25.6172 79.6871 27.6699 79.6871 29.7226C79.6871 32.3377 78.445 33.9687 76.4301 33.9687C75.0776 33.9687 73.8907 33.0126 73.5594 31.6629C73.5042 31.4379 73.4766 31.1848 73.4766 30.8474V28.8509C73.4766 28.6822 73.5042 28.4572 73.5594 28.2323C73.5594 28.1761 73.5871 28.0917 73.5871 28.0355C73.9459 26.6014 75.1604 25.6172 76.5405 25.6172Z" fill="white"/>
<path d="M92.9088 26.2646C90.6178 25.3648 89.9002 24.6618 89.9002 23.3402C89.9002 22.2435 90.7558 21.1187 92.688 21.1187C94.2613 21.1187 95.2826 21.6811 95.5586 21.8498L95.7795 21.9904L96.4695 19.9096L96.3315 19.8252C95.9175 19.5722 94.7582 19.0098 92.7708 19.0098C89.6517 19.0098 87.4712 20.8938 87.4712 23.5651C87.4712 25.7303 88.8237 27.2488 91.7495 28.3173C93.8197 29.1047 94.5926 29.9201 94.5926 31.298C94.5926 32.8727 93.4057 33.8287 91.4735 33.8287C90.2314 33.8287 88.9341 33.4632 87.9404 32.8164L87.7196 32.6758L87.0571 34.8129L87.1675 34.8973C88.0784 35.5159 89.8174 35.9658 91.3079 35.9658C95.5034 35.9658 96.994 33.3507 96.994 31.1293C97.0216 28.8516 95.8347 27.4456 92.9088 26.2646Z" fill="white"/>
<path d="M101.411 20.9783L99.0092 21.7375V23.8183H97.2427V25.8148H99.0092V31.9167C99.0092 33.379 99.2852 34.4194 99.8649 35.0661C100.417 35.6847 101.245 36.0222 102.239 36.0222C103.15 36.0222 103.812 35.8253 104.116 35.7129L104.254 35.6566L104.143 33.6601L103.922 33.7445C103.619 33.8289 103.288 33.8851 102.791 33.8851C101.852 33.8851 101.438 33.2665 101.438 31.8324V25.8148H104.392V23.8183H101.438V20.9783H101.411Z" fill="white"/>
<path d="M110.436 23.5645C107.013 23.5645 104.64 26.1514 104.64 29.8913C104.64 33.4906 106.958 36.0214 110.27 36.0214H110.298C113.086 36.0214 116.095 34.0249 116.095 29.6664C116.095 27.8949 115.57 26.3764 114.549 25.2516C113.472 24.155 112.065 23.5645 110.436 23.5645ZM110.353 25.5047C112.561 25.5047 113.555 27.698 113.555 29.7226C113.555 32.2253 112.203 34.0249 110.298 34.0249H110.27C108.421 34.0249 107.069 32.2534 107.069 29.7789C107.096 27.6699 108.09 25.5047 110.353 25.5047Z" fill="white"/>
<path d="M123.547 23.6769L123.409 23.6488C123.188 23.5926 123.023 23.5645 122.802 23.5645C121.532 23.5645 120.373 24.3237 119.738 25.5609L119.655 23.8175H117.475L117.502 24.0144C117.557 24.9985 117.585 26.0952 117.585 27.5855L117.557 35.7121H120.014V29.3571C120.014 29.0196 120.042 28.6822 120.069 28.401C120.345 26.8826 121.366 25.8984 122.636 25.8984C122.885 25.8984 123.078 25.9265 123.299 25.9265L123.547 25.9546V23.6769Z" fill="white"/>
<path d="M129.04 23.5366C125.783 23.5366 123.519 26.1798 123.519 29.976C123.519 33.6315 125.783 35.9935 129.288 35.9935C131.137 35.9935 132.407 35.5717 133.152 35.2343L133.29 35.1781L132.821 33.3222L132.628 33.4065C131.966 33.6877 131.082 33.9689 129.564 33.9689C128.515 33.9689 126.059 33.6034 125.893 30.3696L133.787 30.3978L133.815 30.2291C133.87 29.976 133.898 29.6385 133.898 29.1886C133.898 26.5735 132.628 23.5366 129.04 23.5366ZM128.874 25.4206C129.619 25.4206 130.227 25.6456 130.668 26.1236C131.358 26.8547 131.496 27.9233 131.496 28.4294H125.921C126.169 26.9953 127.052 25.4206 128.874 25.4206Z" fill="white"/>
<path d="M43.7219 8.04225C44.412 7.95789 45.1848 7.87354 46.0681 7.87354C47.6414 7.87354 48.7731 8.21097 49.5184 8.8296C50.2912 9.47635 50.7329 10.3762 50.7329 11.6415C50.7329 12.9069 50.2912 13.9473 49.5184 14.6785C48.7179 15.4096 47.393 15.8032 45.7645 15.8032C44.964 15.8032 44.3292 15.7751 43.7495 15.7189V8.04225H43.7219ZM44.8536 14.9596C45.1296 15.0159 45.5437 15.0159 45.9577 15.0159C48.3039 15.0159 49.5736 13.8067 49.5736 11.7259C49.5736 9.87002 48.4419 8.71712 46.1233 8.71712C45.5437 8.71712 45.1296 8.77336 44.826 8.8296V14.9596H44.8536Z" fill="white"/>
<path d="M54.6524 15.8608C53.0239 15.8608 51.7266 14.7642 51.7266 12.9926C51.7266 11.1086 53.0791 10.012 54.7628 10.012C56.5017 10.012 57.6886 11.1649 57.6886 12.8802C57.6886 14.961 56.1153 15.8608 54.6524 15.8608ZM54.68 15.1016C55.7289 15.1016 56.5293 14.2018 56.5293 12.9083C56.5293 11.9522 56.0049 10.7712 54.7076 10.7712C53.4103 10.7712 52.8306 11.8679 52.8306 12.9364C52.8582 14.1737 53.6035 15.1016 54.68 15.1016Z" fill="white"/>
<path d="M59.4554 10.1514L60.2835 12.9915C60.4491 13.6101 60.6147 14.2006 60.7251 14.7911H60.7527C60.8908 14.2287 61.084 13.6382 61.3048 13.0196L62.2985 10.1795H63.2369L64.1754 12.9634C64.3962 13.6101 64.5894 14.2287 64.7274 14.7911H64.755C64.8655 14.2287 65.0311 13.6382 65.2243 12.9634L66.0799 10.1514H67.184L65.2243 15.7472H64.203L63.2645 13.0758C63.0437 12.4291 62.8781 11.8948 62.7125 11.22H62.6849C62.5469 11.8948 62.3537 12.4853 62.1328 13.0758L61.1392 15.7191H60.1179L58.2686 10.1233H59.4554V10.1514Z" fill="white"/>
<path d="M68.2876 11.6417C68.2876 11.0512 68.2876 10.6013 68.2324 10.1233H69.2261L69.2813 11.0231H69.3089C69.6125 10.5169 70.3302 9.98267 71.3238 9.98267C72.1795 9.98267 73.4768 10.4326 73.4768 12.3728V15.719H72.3727V12.5134C72.3727 11.6136 72.0139 10.8544 70.965 10.8544C70.2474 10.8544 69.6677 11.3324 69.4745 11.8948C69.4193 12.0354 69.3917 12.2041 69.3917 12.3728V15.7472H68.2876V11.6417Z" fill="white"/>
<path d="M75.271 7.53662H76.3751V15.7475H75.271V7.53662Z" fill="white"/>
<path d="M80.709 15.8608C79.0805 15.8608 77.7832 14.7642 77.7832 12.9926C77.7832 11.1086 79.1357 10.012 80.8194 10.012C82.5584 10.012 83.7452 11.1649 83.7452 12.8802C83.7452 14.961 82.1719 15.8608 80.709 15.8608ZM80.7366 15.1016C81.7855 15.1016 82.586 14.2018 82.586 12.9083C82.586 11.9522 82.0615 10.7712 80.7642 10.7712C79.4669 10.7712 78.8873 11.8679 78.8873 12.9364C78.9149 14.1737 79.6601 15.1016 80.7366 15.1016Z" fill="white"/>
<path d="M89.4312 14.398C89.4312 14.8761 89.4588 15.3541 89.514 15.7478H88.5203L88.4099 15.0448H88.3823C88.0511 15.4947 87.3886 15.8884 86.5054 15.8884C85.2633 15.8884 84.6284 15.101 84.6284 14.2856C84.6284 12.9358 85.9257 12.2047 88.2995 12.2047V12.0922C88.2995 11.6423 88.1615 10.7987 86.9194 10.7987C86.3397 10.7987 85.7601 10.9393 85.3185 11.2205L85.0701 10.5457C85.5669 10.2645 86.3121 10.0676 87.085 10.0676C88.962 10.0676 89.4036 11.2205 89.4036 12.3453V14.398H89.4312ZM88.3547 12.8796C87.1402 12.8515 85.7601 13.0483 85.7601 14.145C85.7601 14.8198 86.2293 15.1291 86.7814 15.1291C87.5818 15.1291 88.1063 14.6792 88.2719 14.2012C88.2995 14.0887 88.3271 13.9762 88.3271 13.8638V12.8796H88.3547Z" fill="white"/>
<path d="M96.4697 7.53662V14.2853C96.4697 14.7915 96.4697 15.3538 96.5249 15.7194H95.5313L95.4761 14.7352H95.4485C95.1172 15.3538 94.372 15.8319 93.3783 15.8319C91.9154 15.8319 90.7561 14.679 90.7561 12.9918C90.7561 11.1078 92.0258 9.98302 93.4887 9.98302C94.4272 9.98302 95.062 10.3767 95.338 10.8266H95.3657V7.53662H96.4697ZM95.3657 12.4294C95.3657 12.2888 95.3656 12.1201 95.3104 11.9795C95.1448 11.3328 94.5376 10.8266 93.7095 10.8266C92.5502 10.8266 91.8878 11.7545 91.8878 12.9637C91.8878 14.1166 92.495 15.0445 93.6819 15.0445C94.4272 15.0445 95.1172 14.5946 95.3104 13.8354C95.338 13.6948 95.3657 13.5542 95.3657 13.3855V12.4294Z" fill="white"/>
<path d="M103.481 15.8608C101.852 15.8608 100.555 14.7642 100.555 12.9926C100.555 11.1086 101.907 10.012 103.591 10.012C105.33 10.012 106.517 11.1649 106.517 12.8802C106.517 14.961 104.944 15.8608 103.481 15.8608ZM103.508 15.1016C104.557 15.1016 105.358 14.2018 105.358 12.9083C105.358 11.9522 104.833 10.7712 103.536 10.7712C102.239 10.7712 101.659 11.8679 101.659 12.9364C101.659 14.1737 102.432 15.1016 103.508 15.1016Z" fill="white"/>
<path d="M107.897 11.6417C107.897 11.0512 107.897 10.6013 107.841 10.1233H108.835L108.89 11.0231H108.918C109.221 10.5169 109.939 9.98267 110.933 9.98267C111.788 9.98267 113.086 10.4326 113.086 12.3728V15.719H111.982V12.5134C111.982 11.6136 111.623 10.8544 110.574 10.8544C109.856 10.8544 109.277 11.3324 109.083 11.8948C109.028 12.0354 109.001 12.2041 109.001 12.3728V15.7472H107.897V11.6417Z" fill="white"/>
<path d="M118.91 8.802V10.1517H120.511V10.9391H118.91V13.9479C118.91 14.6509 119.131 15.0445 119.738 15.0445C120.042 15.0445 120.207 15.0164 120.373 14.9883L120.428 15.7757C120.207 15.8319 119.876 15.9162 119.434 15.9162C118.91 15.9162 118.496 15.7475 118.248 15.4945C117.944 15.1851 117.806 14.679 117.806 14.0322V10.911H116.867V10.1236H117.806V9.0832L118.91 8.802Z" fill="white"/>
<path d="M121.753 7.53662H122.858V11.0234H122.885C123.051 10.7422 123.327 10.4611 123.686 10.3205C124.017 10.1236 124.403 10.0393 124.817 10.0393C125.645 10.0393 126.943 10.4892 126.943 12.4294V15.7475H125.839V12.5138C125.839 11.614 125.48 10.8547 124.431 10.8547C123.713 10.8547 123.161 11.3046 122.94 11.867C122.885 12.0076 122.858 12.1482 122.858 12.3451V15.7194H121.753V7.53662Z" fill="white"/>
<path d="M129.371 13.1039C129.399 14.4818 130.337 15.0442 131.441 15.0442C132.242 15.0442 132.738 14.9036 133.125 14.763L133.318 15.466C132.932 15.6347 132.242 15.8315 131.275 15.8315C129.399 15.8315 128.267 14.6786 128.267 13.0196C128.267 11.3324 129.371 9.98267 131.137 9.98267C133.125 9.98267 133.649 11.5855 133.649 12.6259C133.649 12.8227 133.649 12.9915 133.622 13.1039H129.371ZM132.6 12.3728C132.6 11.7261 132.297 10.7138 131.082 10.7138C129.951 10.7138 129.481 11.6698 129.371 12.3728H132.6Z" fill="white"/>
</svg>
