<svg width="105" height="60" viewBox="0 0 105 60" fill="none" xmlns="http://www.w3.org/2000/svg">
<g clip-path="url(#clip0_1_2967)">
<path fill-rule="evenodd" clip-rule="evenodd" d="M38.6206 52.1687C11.5726 43.8374 10.633 4.88743 42.8703 16.1499C50.6605 18.8749 61.5805 22.6624 64.3806 13.9874C66.3094 8.00619 73.7263 3.88744 80.3654 10.9437C86.7245 17.7062 81.0188 29.1124 70.1237 29.9124C65.4321 30.2562 61.2259 33.0937 60.0748 41.6124C59.5521 45.5062 56.8454 49.3749 53.081 51.6062C48.489 54.3374 43.4739 53.6624 38.6206 52.1687ZM43.1254 3.56869C46.8028 -3.23132 60.9894 0.868686 57.9157 9.58119C56.6525 13.1687 52.1228 15.6562 48.2463 13.4562C44.3699 11.2562 41.4205 6.71869 43.1254 3.56869Z" fill="#6CDDBB"/>
<path fill-rule="evenodd" clip-rule="evenodd" d="M93.7187 53.7812C90.4955 53.7812 87.8884 56.4063 87.8884 59.6438H99.5551C99.5489 56.4063 96.9418 53.7812 93.7187 53.7812Z" fill="white"/>
<path d="M21.9554 54.2489C26.0717 50.1142 26.0717 43.4107 21.9554 39.276C17.8392 35.1414 11.1654 35.1414 7.0491 39.276C2.93284 43.4107 2.93284 50.1142 7.0491 54.2489C11.1654 58.3835 17.8391 58.3835 21.9554 54.2489Z" fill="white"/>
<path fill-rule="evenodd" clip-rule="evenodd" d="M37.0278 2.01567e-05C41.962 -0.0749798 47.4189 3.24377 52.1478 11.6188C54.0145 14.925 56.2607 18.8938 58.9176 21.4813C61.5122 24.0125 64.5176 25.2188 67.9647 23.1563C70.5656 21.6 73.9442 21.2563 76.682 22.6188C79.7558 24.15 81.1931 27.3438 81.33 31.05C81.6536 39.9 70.4847 44.4188 62.2714 38.1875C60.5914 36.9125 58.6314 36.1313 56.3727 36.2938C54.0954 36.4625 51.5069 37.5875 48.5825 40.1438C46.2989 42.1375 42.8207 42.975 39.3923 42.7688C35.9389 42.5563 32.5229 41.2688 30.4447 39.025C15.2936 22.675 24.3407 0.18752 37.0278 2.01567e-05ZM48.2091 39.7063C51.2394 37.0563 53.946 35.8875 56.3416 35.7125C58.7558 35.5375 60.8465 36.3688 62.6323 37.7188C70.4536 43.65 81.0625 39.4125 80.7576 31.0688C80.6767 28.9438 80.1789 27.2438 79.4011 25.9313C77.0491 21.9688 71.9967 21.4313 68.2696 23.6563C64.53 25.8938 61.2945 24.6063 58.5131 21.9C55.794 19.2563 53.5291 15.2438 51.6438 11.9063C35.2047 -17.2062 10.3469 16.4813 30.8865 38.6313C32.8589 40.7625 36.1256 41.9813 39.442 42.1875C42.7211 42.3938 46.05 41.6 48.2091 39.7063Z" fill="white"/>
<path fill-rule="evenodd" clip-rule="evenodd" d="M36.1504 21.4875C34.3024 21.4875 32.7966 22.9938 32.7966 24.8563C32.7966 26.7125 34.2962 28.225 36.1504 28.225C37.9984 28.225 39.5042 26.7188 39.5042 24.8563C39.498 22.9938 37.9984 21.4875 36.1504 21.4875Z" fill="white"/>
<path d="M94.3661 46.8116C97.5032 46.0676 99.4457 42.91 98.705 39.759C97.9642 36.608 94.8207 34.6568 91.6837 35.4008C88.5467 36.1449 86.6041 39.3024 87.3449 42.4535C88.0856 45.6045 91.2291 47.5557 94.3661 46.8116Z" fill="white"/>
<path d="M84.4411 53.3376C90.2624 53.3376 94.9815 48.5974 94.9815 42.7501C94.9815 36.9028 90.2624 32.1626 84.4411 32.1626C78.6198 32.1626 73.9006 36.9028 73.9006 42.7501C73.9006 48.5974 78.6198 53.3376 84.4411 53.3376Z" fill="white"/>
<path d="M77.8858 41.1106C81.0677 40.592 83.2284 37.5806 82.712 34.3846C82.1956 31.1886 79.1976 29.0182 76.0158 29.5369C72.834 30.0556 70.6733 33.0669 71.1896 36.2629C71.706 39.4589 74.704 41.6293 77.8858 41.1106Z" fill="white"/>
<path fill-rule="evenodd" clip-rule="evenodd" d="M65.6749 25.2124C63.8268 25.2124 62.321 26.7187 62.321 28.5812C62.321 30.4374 63.8206 31.9499 65.6749 31.9499C67.5229 31.9499 69.0287 30.4437 69.0287 28.5812C69.0287 26.7187 67.5291 25.2124 65.6749 25.2124Z" fill="white"/>
<path fill-rule="evenodd" clip-rule="evenodd" d="M52.8071 22.1375C50.9591 22.1375 49.4534 23.6437 49.4534 25.5062C49.4534 27.3624 50.9529 28.8749 52.8071 28.8749C54.6551 28.8749 56.1609 27.3687 56.1609 25.5062C56.1547 23.65 54.6551 22.1375 52.8071 22.1375Z" fill="white"/>
<path d="M15.5735 40.7438C18.7969 40.7438 21.41 38.1191 21.41 34.8813C21.41 31.6435 18.7969 29.0188 15.5735 29.0188C12.3501 29.0188 9.73706 31.6435 9.73706 34.8813C9.73706 38.1191 12.3501 40.7438 15.5735 40.7438Z" fill="white"/>
<path d="M26.2011 39.4374C32.0224 39.4374 36.7415 34.6973 36.7415 28.8499C36.7415 23.0026 32.0224 18.2625 26.2011 18.2625C20.3797 18.2625 15.6606 23.0026 15.6606 28.8499C15.6606 34.6973 20.3797 39.4374 26.2011 39.4374Z" fill="white"/>
<path d="M59.8818 33.1813C63.1052 33.1813 65.7182 30.5566 65.7182 27.3188C65.7182 24.081 63.1052 21.4563 59.8818 21.4563C56.6585 21.4563 54.0454 24.081 54.0454 27.3188C54.0454 30.5566 56.6585 33.1813 59.8818 33.1813Z" fill="white"/>
<path fill-rule="evenodd" clip-rule="evenodd" d="M24.7638 44.5062C27.6447 44.5062 30.0652 46.9999 30.7185 50.3562H32.4545C33.1078 46.9937 35.5283 44.5062 38.4092 44.5062C39.1869 44.5062 39.9336 44.6874 40.618 45.0249C41.3025 44.6937 42.0492 44.5062 42.8269 44.5062C46.2118 44.5062 48.962 47.9499 48.962 52.1874C48.962 56.4249 46.218 59.8749 42.8332 59.8749H38.4092C35.8207 59.8749 33.5994 57.8624 32.7034 55.0124H30.6563C30.594 55.0124 30.5318 55.0062 30.4758 54.9937C29.5798 57.8499 27.3647 59.8749 24.7638 59.8749H20.3398C17.7514 59.8749 15.53 57.8624 14.634 55.0124H13.9558C13.4705 55.0124 13.0723 54.6124 13.0723 54.1312V51.8124C13.0723 51.7562 13.0785 51.7062 13.0847 51.6499C13.3087 46.8749 16.4696 43.0874 20.3336 43.0874C21.7772 43.0874 23.1274 43.6187 24.2536 44.5312C24.4278 44.5124 24.5958 44.5062 24.7638 44.5062ZM53.6536 52.1874C53.6536 47.1624 56.9078 43.0874 60.9149 43.0874C62.3585 43.0874 63.7087 43.6187 64.8412 44.5312C65.0029 44.5124 65.1709 44.5062 65.3389 44.5062C68.7238 44.5062 71.4678 47.9499 71.4678 52.1874C71.4678 56.4249 68.7238 59.8749 65.3389 59.8749H60.9149C58.9549 59.8749 57.2127 58.7249 56.0927 56.9312H54.506C54.0207 56.9312 53.6287 56.5312 53.6287 56.0499V54.3437V53.1687C53.6287 53.1124 53.6349 53.0562 53.6474 53.0062L53.6536 52.1874ZM75.1078 52.1874C75.1078 50.0499 79.1585 44.5062 81.2429 44.5062C83.3274 44.5062 82.7674 44.6874 83.4518 45.0249C84.1363 44.6937 83.5825 44.5062 85.6607 44.5062C87.7451 44.5062 91.7896 47.9499 91.7896 52.1874C91.7896 56.4249 89.0518 59.8749 85.6669 59.8749H81.2429C79.2829 59.8749 77.5407 58.7249 76.4207 56.9312H75.2945C74.8092 56.9312 74.4171 56.5312 74.4171 56.0499V53.1624C74.4171 52.7374 74.7158 52.3812 75.114 52.2999C75.1078 52.2624 75.1078 54.3312 75.1078 52.1874Z" fill="#152F4E"/>
<path fill-rule="evenodd" clip-rule="evenodd" d="M95.8839 53.4562C95.7781 53.1687 95.6412 52.7999 95.6537 52.3374C95.6661 51.7062 95.8217 51.7062 95.8714 51.0187H94.5461C94.4341 51.0187 94.3532 50.9312 94.3532 50.8249V49.1749C94.3532 49.0812 94.4652 48.8874 94.5025 48.8687L96.1639 48.2562C96.1888 46.9437 95.7781 45.3937 95.3301 43.9437C95.0625 43.0749 93.9301 39.7687 92.0821 38.9874C88.6785 37.5437 83.5079 35.2124 77.5843 34.1124C70.1737 30.0499 68.9666 29.1624 61.3194 26.2687C57.0137 23.7812 31.8137 24.2812 19.7363 25.6937C18.0688 25.7937 18.6599 27.6437 18.8092 28.5874L15.2999 33.1374L12.8794 34.0499C12.5497 34.1749 12.3132 34.4124 12.1826 34.6937L11.0128 36.8249C10.7452 37.4062 11.0066 37.7812 11.3177 38.2562C11.1123 38.7249 10.1666 41.3124 10.0981 43.3624C8.69811 44.4562 9.507 48.1187 10.3968 49.0124L13.091 51.8124C13.2528 46.9624 16.4386 43.0937 20.3461 43.0937C24.3594 43.0937 27.6074 47.1687 27.6074 52.1937C27.6074 52.9374 28.1363 54.3062 29.1194 54.3437H53.635L53.6599 52.1937C53.6599 47.1687 56.9141 43.0937 60.9212 43.0937C64.9346 43.0937 68.1826 47.1687 68.1826 52.1937C68.1826 52.9374 68.3568 54.3499 69.2901 54.3437H94.7701C96.643 54.3374 96.1141 54.0874 95.8839 53.4562Z" fill="#E3E1DD"/>
<path fill-rule="evenodd" clip-rule="evenodd" d="M77.0242 54.3375H93.6002L91.7086 47.2313C91.5033 46.45 91.2917 46.225 90.489 46.225L83.1966 46.2188C82.3939 46.2188 81.9459 46.7 81.5104 47.375L77.0242 54.3375Z" fill="#152F4E"/>
<path fill-rule="evenodd" clip-rule="evenodd" d="M77.2668 54.3376H92.642L91.0988 48.5501C90.8935 47.7688 90.682 47.5438 89.8793 47.5438L82.5868 47.5376C81.7842 47.5376 81.3362 48.0188 80.9006 48.6938L77.2668 54.3376Z" fill="#6B7192"/>
<path fill-rule="evenodd" clip-rule="evenodd" d="M62.8125 26.8688C62.3396 26.6813 61.8419 26.4813 61.3192 26.2688C54.2819 22.65 27.8188 24.6687 19.7361 25.6938C18.9832 25.7375 18.6908 26.1438 18.6099 26.6563C35.2294 25.5813 50.6667 24.9375 62.8125 26.8688Z" fill="#F9F8F3"/>
<path fill-rule="evenodd" clip-rule="evenodd" d="M93.7183 40.3124C93.3823 39.7312 93.0961 39.3374 92.7974 38.9687C90.7067 36.425 80.7201 34.6937 77.5903 34.1125C71.4428 33.4437 64.1068 34.1062 56.4099 35.175C60.0126 35.6 66.1228 36.7937 70.1486 38.4812L79.4819 40.3812L93.7183 40.3124Z" fill="#F9F8F3"/>
<path fill-rule="evenodd" clip-rule="evenodd" d="M93.9052 40.1501H78.0883V41.0751C78.0385 41.0501 77.9825 41.0313 77.9203 41.0188L70.4412 38.0188C70.1799 37.9626 69.8936 38.0438 69.707 38.2501C69.2901 38.6501 66.8696 39.9751 67.8403 40.7188L72.4074 45.2313C72.5443 45.3501 72.7247 45.4251 72.9239 45.4251L77.0243 44.9813C77.155 44.9813 77.2794 44.9501 77.3976 44.8876L79.843 43.1126C79.9114 43.0751 80.179 42.9688 80.4652 42.9688H92.7043C92.9781 42.9688 93.2457 43.1313 93.2954 43.1876L94.5399 44.8938C94.6021 44.9563 94.6643 44.9813 94.7328 44.9813L95.8154 45.5126C95.1497 43.4251 94.7514 41.7751 93.9052 40.1501Z" fill="#F9F8F3"/>
<path fill-rule="evenodd" clip-rule="evenodd" d="M95.1743 43.5249C94.8072 41.8312 94.0668 40.3562 92.8161 38.9562L92.1565 39.3499C87.1352 39.3499 82.8294 39.3499 77.665 39.3499L70.161 37.7562C69.9121 37.7062 69.6383 37.7749 69.4641 37.9749C69.0659 38.3562 67.1868 39.6062 68.1139 40.3124L72.4446 43.3437C72.5752 43.4562 72.7432 43.5249 72.9361 43.5249H76.825C76.9432 43.5249 77.0677 43.4937 77.1797 43.4374L79.5006 42.1687C84.161 42.1687 88.0125 42.1687 92.4988 42.1687L93.7432 43.4374C93.8054 43.4999 93.8676 43.5249 93.9361 43.5249H95.1743Z" fill="#152F4E"/>
<path fill-rule="evenodd" clip-rule="evenodd" d="M77.5843 34.1062C72.7247 31.0312 66.7016 27.8937 61.3194 26.2062C55.5141 25.125 39.2305 24.9062 29.2936 26.2125C25.1372 26.7625 15.8163 32.0312 23.059 33.2749C23.5256 33.3562 23.9488 33.4187 24.5585 33.4624L48.4394 35.4062C49.6839 35.6749 51.2083 35.6812 52.2723 35.6874C52.291 35.6812 52.3159 35.6749 52.3345 35.6687C53.9648 35.6249 55.6012 35.3499 57.2563 35.0499C61.6803 34.2562 73.5336 33.3999 77.5843 34.1062Z" fill="#152F4E"/>
<path fill-rule="evenodd" clip-rule="evenodd" d="M58.37 34.6187C57.9718 34.6937 57.5674 34.7624 57.1691 34.8249C54.9042 33.5312 49.1611 28.1875 47.2385 25.7C53.6038 25.7312 59.5647 26.0875 62.346 26.6062C67.2616 28.1375 72.6002 30.9874 77.0429 33.7812C73.3345 33.1374 62.4207 33.9 58.37 34.6187ZM50.7727 31.8312C49.6527 31.6562 46.9522 31.7124 46.8153 32.0312C46.0127 33.3187 46.1433 34.1499 46.7656 34.6874L35.6402 33.8499C35.7647 31.1874 36.138 28.5562 36.8909 25.9687C39.5291 25.8 42.3913 25.7125 45.2225 25.7C46.8029 27.0875 49.2109 29.6062 50.7727 31.8312ZM33.4376 33.6874L26.6616 33.1749C17.4713 32.4812 26.8731 27.1562 30.986 26.5562C32.3425 26.3562 33.8669 26.2 35.4971 26.0687C34.4269 28.5437 33.8358 31.0937 33.4376 33.6874Z" fill="#82919A"/>
<path fill-rule="evenodd" clip-rule="evenodd" d="M33.5557 32.9686C33.5184 33.2061 33.4748 33.4499 33.4375 33.6874L26.6615 33.1749C24.5086 33.0124 23.3761 32.5874 22.9592 32.0374C26.3939 32.5624 29.9592 32.8311 33.5557 32.9686ZM35.6899 33.0311C39.2677 33.1186 42.8455 33.0936 46.3362 33.0874C46.1433 33.7999 46.3424 34.3124 46.7717 34.6874L35.6401 33.8499C35.6526 33.5811 35.6712 33.3061 35.6899 33.0311ZM54.8668 33.1499C58.2642 33.2436 61.4624 33.4561 64.3433 33.9249C62.3646 34.0999 60.33 34.2686 58.37 34.6186C57.9717 34.6936 57.5673 34.7624 57.1691 34.8249C56.5904 34.4936 55.7815 33.8999 54.8668 33.1499Z" fill="#A3ABB0"/>
<path fill-rule="evenodd" clip-rule="evenodd" d="M71.6483 33.5499C64.0945 29.1187 59.0483 28.2374 50.5798 29.2999C49.1861 27.9437 47.9478 26.6312 47.2385 25.7062C53.6038 25.7374 59.5647 26.0937 62.3461 26.6124C67.2616 28.1437 72.6003 30.9937 77.043 33.7874C75.8421 33.5687 73.8821 33.5062 71.6483 33.5499ZM48.595 29.1062C44.7745 28.4437 40.4687 28.2499 36.3061 28.3437C36.4678 27.55 36.6607 26.7625 36.891 25.975C38.403 25.8812 39.9834 25.8125 41.595 25.7625C42.7958 25.7312 44.0092 25.7062 45.2225 25.7C46.1683 26.5312 47.4127 27.7687 48.595 29.1062ZM34.6323 28.3937C30.8803 28.5437 27.3087 28.9187 24.4092 29.3749C26.2261 28.0499 29.1443 26.8249 30.9923 26.5562C32.3487 26.3562 33.8732 26.2 35.5034 26.0687C35.1674 26.8375 34.8812 27.6124 34.6323 28.3937Z" fill="#C7D2D8"/>
<path fill-rule="evenodd" clip-rule="evenodd" d="M94.5023 48.875L95.784 48.4C95.8462 48.3688 95.952 48.7 95.9645 48.8125C95.9893 49.0313 95.9209 50.6313 95.6222 51.0313H94.5458C94.2285 51.0251 94.2659 48.9938 94.5023 48.875Z" fill="#152F4E"/>
<path fill-rule="evenodd" clip-rule="evenodd" d="M80.0544 54.3376H92.138L91.7584 52.2751C91.5904 51.3688 91.3416 51.1188 90.5389 51.1188L82.8109 51.1125C82.0082 51.1125 81.5602 51.6688 81.1247 52.4438L80.0544 54.3376Z" fill="#F9F8F3"/>
<path fill-rule="evenodd" clip-rule="evenodd" d="M77.3664 39.9564L71.1007 38.8126C70.8954 38.7751 70.6651 38.8314 70.5158 38.9689L69.5016 39.7626C69.2278 39.9751 69.2154 40.2751 69.5451 40.4939L73.0047 42.8251C73.1104 42.9064 73.2536 42.9564 73.4153 42.9564H76.6571C76.7566 42.9564 76.8624 42.9376 76.9558 42.8939L78.4553 41.9814C78.7664 41.8376 78.8473 41.4939 78.6171 41.2689L77.7086 40.1439C77.6278 40.0501 77.5095 39.9814 77.3664 39.9564Z" fill="#C7D2D8"/>
<path fill-rule="evenodd" clip-rule="evenodd" d="M69.2961 40.1501C69.2899 40.2751 69.4143 40.4064 69.545 40.4939L72.7744 42.669C72.8739 42.744 72.9859 42.7315 73.1353 42.7315H76.1655C76.2589 42.7315 76.3522 42.7127 76.4455 42.669C76.85 42.4252 77.6215 42.0189 77.9575 41.7502C75.5557 40.7064 71.9157 40.2939 69.2961 40.1501Z" fill="#82919A"/>
<path fill-rule="evenodd" clip-rule="evenodd" d="M95.0251 42.95C95.6287 42.95 93.9736 39.4375 93.1336 39.6313L92.7291 39.9563C92.6607 39.9813 92.6047 40.05 92.5674 40.1375C92.4802 40.6313 92.5922 41.6875 92.8847 41.975L93.7994 42.8875C93.8429 42.9312 93.8927 42.95 93.9425 42.95H95.0251Z" fill="#C7D2D8"/>
<path fill-rule="evenodd" clip-rule="evenodd" d="M94.8756 42.6875C94.8569 42.375 94.6951 41.9063 94.4214 41.3625L92.9965 41.5751C92.897 41.5876 92.897 41.6875 92.9468 41.7375L93.8987 42.6501C93.9547 42.6751 94.0169 42.6875 94.0729 42.6875H94.8756Z" fill="#82919A"/>
<path fill-rule="evenodd" clip-rule="evenodd" d="M66.0795 51.75C66.0795 47.875 63.5719 44.7312 60.4794 44.7312C57.387 44.7312 54.8794 47.875 54.8794 51.75C54.8794 55.625 57.387 58.7687 60.4794 58.7687C63.5719 58.7687 66.0795 55.625 66.0795 51.75ZM64.5737 51.75C64.5737 48.9187 62.7381 46.6187 60.4794 46.6187C58.2208 46.6187 56.3852 48.9125 56.3852 51.75C56.3852 54.5812 58.2208 56.8812 60.4794 56.8812C62.7381 56.8812 64.5737 54.5812 64.5737 51.75Z" fill="#6B7192"/>
<path fill-rule="evenodd" clip-rule="evenodd" d="M59.3468 56.3875C59.297 56.8687 59.2908 56.9625 59.8383 57.0625C60.2615 57.1437 60.6846 57.1375 61.1077 57.0625C61.5059 57.0125 61.4437 56.975 61.201 56.3875C60.9832 55.85 60.8463 55.2812 60.7903 54.7062C60.7468 54.275 60.641 53.75 61.1077 53.65C61.3441 53.5875 61.5495 53.4812 61.7548 53.325C62.0286 53.075 62.1655 53.25 62.3024 53.5125C62.5886 54.0687 62.9184 54.5812 63.3228 55.0625C63.5655 55.3562 63.5904 55.4312 63.833 55.0437C64.0508 54.7 64.2064 54.3375 64.3495 53.9562C64.4553 53.65 64.4801 53.7 64.169 53.6062C63.665 53.45 63.2108 53.2625 62.7441 53.0062C62.2152 52.7187 62.2277 52.675 62.3272 52.3125C62.4081 52.025 62.4206 51.8062 62.377 51.5062C62.3148 51.0937 62.3086 51.0312 63.049 50.7812C63.4286 50.65 63.8019 50.5625 64.2001 50.4937C64.6482 50.4187 64.6233 50.4312 64.4739 49.9C64.3868 49.5937 63.7459 48.0812 63.6215 48.0625C63.609 48.0625 62.9246 48.9625 62.9184 48.9687C62.6881 49.2937 62.489 49.6375 62.3086 49.9937C62.1779 50.25 62.0286 50.4125 61.7672 50.1687C61.593 50.0062 61.4063 49.9062 61.1761 49.8437C60.8712 49.7625 60.8339 49.6187 60.8339 49.325C60.8339 48.6062 60.977 47.775 61.2321 47.1125C61.4623 46.5187 61.5121 46.5 61.1326 46.425C60.7219 46.3375 60.305 46.3375 59.8881 46.4125C59.3717 46.5 59.3779 46.575 59.4401 47C59.5708 47.9 59.7388 48.7312 60.1868 49.5375C60.3237 49.7875 60.3175 49.8875 60.1121 50.0937C59.9628 50.2437 59.8446 50.3875 59.7326 50.5625C59.6206 50.7375 59.5583 50.8312 59.3654 50.8C59.2286 50.775 59.1228 50.6625 58.8926 50.4125C58.6125 50.1125 58.3512 49.825 58.0961 49.5C57.9094 49.25 57.729 48.9937 57.5672 48.7312C57.1877 48.125 57.2125 48.2687 57.1068 48.4687C56.9201 48.8187 56.7272 49.1625 56.6028 49.525C56.4285 50.0125 56.441 50.0187 56.7894 50.1875C57.3743 50.475 57.8908 50.7125 58.5192 50.9062C58.7494 50.975 58.8988 51 59.0108 51.0187C59.4401 51.0875 59.4526 51.0875 59.4339 51.6437C59.4277 51.75 59.4339 51.8312 59.4401 51.8875C59.4588 52.1937 59.3654 52.2562 59.0792 52.2937C58.9672 52.3062 58.793 52.3312 58.4881 52.4187C57.8597 52.5937 57.3556 52.8062 56.7708 53.0812C56.3974 53.2625 56.385 53.2625 56.553 53.775C56.6152 53.975 56.6899 54.1687 56.777 54.3562C57.0694 54.9875 57.1068 55.175 57.4614 54.6312C57.6232 54.3687 57.7974 54.1125 57.9965 53.8625C58.2641 53.5187 58.5441 53.2375 58.849 52.9312C59.0792 52.7 59.185 52.5875 59.3219 52.5625C59.5272 52.525 59.5894 52.6312 59.7014 52.825C59.7948 52.9875 59.8943 53.1187 60.0126 53.2625C60.1992 53.5 60.2241 53.5937 60.0748 53.8437C60.0188 53.9375 59.9254 54.1 59.801 54.4062C59.521 55.1 59.4214 55.6687 59.3468 56.3875ZM62.1095 51.75C62.1095 51.0562 61.6615 50.5 61.1139 50.5C60.5601 50.5 60.1183 51.0625 60.1183 51.75C60.1183 52.4375 60.5663 53 61.1139 53C61.6615 53 62.1095 52.4375 62.1095 51.75ZM59.3779 54.2625C59.7201 53.4062 59.7139 53.7187 59.4774 53.3125C59.2783 53.0437 59.3779 53.0125 59.1477 53.25C58.8614 53.5437 58.5877 53.8187 58.3263 54.1437C58.1459 54.3687 57.9779 54.6125 57.8223 54.8687C57.7601 54.9687 57.7041 55.0625 57.6605 55.1375C57.5299 55.3625 57.4428 55.5062 57.3245 55.575C57.0756 55.7187 56.9263 55.5812 56.6712 55.1375C56.5592 54.9437 56.4534 54.7375 56.3663 54.5375C56.273 54.3312 56.1921 54.125 56.1236 53.9125C55.8374 53.0375 55.8561 53.025 56.5716 52.6875C57.1752 52.4 57.7041 52.175 58.3574 51.9937C58.8365 51.8625 58.9734 52.0187 58.9859 51.6312C58.9983 51.3375 58.7308 51.4375 58.3823 51.3312C57.7352 51.125 57.1939 50.8812 56.5903 50.5875C55.9059 50.2562 55.881 50.2437 56.1859 49.3812C56.3352 48.9687 56.5405 48.5875 56.7521 48.2062C57.225 47.3312 57.5983 47.9562 57.9343 48.5062C58.0899 48.7625 58.2579 49.0062 58.4383 49.2437C58.681 49.5625 58.9361 49.8375 59.2037 50.125C59.4401 50.3812 59.3219 50.3375 59.5583 50.0625C59.8321 49.7375 59.8134 49.8937 59.5086 49.1312C59.2348 48.425 59.1103 47.8125 59.0046 47.075C58.8863 46.2875 58.8677 46.15 59.8072 45.9875C60.2739 45.9062 60.753 45.9125 61.2135 46.0062C62.0721 46.1812 61.8917 46.6187 61.6304 47.2875C61.4375 47.7812 61.3317 48.3 61.2943 48.825C61.2383 49.6562 61.1512 49.3062 61.6739 49.5812C61.9415 49.75 61.8792 49.8125 62.1468 49.3562C62.4517 48.825 62.8188 48.3125 63.2357 47.8562C63.3913 47.6875 63.5033 47.6062 63.665 47.625C64.169 47.6875 64.7975 49.4937 64.9593 50.0187C65.0899 50.45 65.121 50.8 64.5175 50.8875C64.057 50.95 63.6277 51.0437 63.1859 51.1937C62.7939 51.325 62.7939 51.3437 62.8064 51.4375C62.8561 51.8 62.8437 52.075 62.7441 52.425C62.7255 52.4812 62.7255 52.4937 62.937 52.6062C63.385 52.8437 63.8144 53.0312 64.2935 53.175C64.9157 53.3625 64.9966 53.4812 64.7539 54.1C64.561 54.5937 64.3495 55.0312 64.0633 55.4687C63.889 55.7375 63.7833 55.8625 63.5966 55.8562C63.4161 55.85 63.3104 55.725 63.1112 55.4812C62.7379 55.0312 62.433 54.625 62.1406 54.1187C61.8544 53.6312 62.041 53.7187 61.6241 53.9187C61.0828 54.175 61.1699 54.025 61.2197 54.6437C61.2695 55.175 61.4001 55.7062 61.5992 56.2C61.6801 56.4062 61.8295 56.6875 61.8668 56.8875C61.929 57.2562 61.7672 57.3687 61.1761 57.4687C60.7095 57.55 60.2179 57.5562 59.7512 57.4687C58.8117 57.2937 58.8241 57.1375 58.905 56.3187C58.9859 55.5937 59.0979 54.9687 59.3779 54.2625Z" fill="white"/>
<path fill-rule="evenodd" clip-rule="evenodd" d="M92.1379 54.3374H77.6401C77.6401 54.9562 78.1441 55.4624 78.7539 55.4624H91.0179C91.6339 55.4624 92.1379 54.9562 92.1379 54.3374Z" fill="#6B7192"/>
<path fill-rule="evenodd" clip-rule="evenodd" d="M76.7879 41.9875L77.2421 42.0625C77.099 42.4188 76.8065 42.675 76.3523 42.675C75.7736 42.675 75.3816 42.25 75.2074 41.7375V41.7313L75.7176 41.8187C75.8545 42.0625 76.0723 42.2438 76.3523 42.2438C76.5576 42.2375 76.7008 42.1375 76.7879 41.9875ZM75.1141 41.2687C75.1141 41.2437 75.1141 41.225 75.1079 41.2C75.1016 41.0188 75.1265 40.8375 75.1763 40.675C75.307 40.2687 75.6056 39.9688 76.0972 39.9688C76.6759 39.9688 77.0741 40.4 77.2421 40.9125C77.2981 41.0812 77.3292 41.2687 77.3354 41.4437C77.3354 41.5062 77.3354 41.5687 77.3292 41.6312L76.8936 41.5625C76.8936 41.5312 76.8936 41.4938 76.8936 41.4625C76.8874 41.325 76.8625 41.1875 76.819 41.0563C76.7008 40.7063 76.4456 40.4125 76.0847 40.4125C75.8172 40.4125 75.6554 40.5812 75.5808 40.8125C75.5434 40.925 75.531 41.0562 75.531 41.1875C75.531 41.2375 75.5372 41.2875 75.5434 41.3438L75.1141 41.2687ZM74.4296 41.725C74.4421 41.6875 74.4545 41.65 74.4608 41.6063L74.8963 41.675C74.8839 41.7375 74.8714 41.7938 74.8527 41.8563C74.7034 42.325 74.355 42.675 73.7763 42.675C73.0981 42.675 72.6376 42.175 72.4323 41.5687C72.4012 41.4687 72.3701 41.3625 72.3514 41.2625L72.8181 41.3375C72.8243 41.3688 72.8368 41.4 72.843 41.4313C72.9923 41.8688 73.3096 42.2375 73.7701 42.2375C74.1248 42.2375 74.3363 42.0187 74.4296 41.725ZM72.3203 40.8125C72.3265 40.6437 72.3514 40.475 72.4012 40.325C72.5505 39.85 72.899 39.5 73.4714 39.5C74.1496 39.5 74.6163 40.0062 74.8154 40.6125C74.8839 40.8125 74.9212 41.0313 74.9274 41.2438L74.4856 41.1688C74.4732 41.025 74.4421 40.8875 74.3985 40.75C74.2492 40.3062 73.9256 39.9375 73.4652 39.9375C73.1168 39.9375 72.9052 40.1563 72.8119 40.45C72.7683 40.5813 72.7496 40.7312 72.7496 40.8812L72.3203 40.8125Z" fill="white"/>
<path fill-rule="evenodd" clip-rule="evenodd" d="M25.5103 51.75C25.5103 47.875 23.0027 44.7312 19.9103 44.7312C16.8179 44.7312 14.3103 47.875 14.3103 51.75C14.3103 55.625 16.8179 58.7687 19.9103 58.7687C23.0027 58.7687 25.5103 55.625 25.5103 51.75ZM24.0045 51.75C24.0045 48.9187 22.169 46.6187 19.9103 46.6187C17.6516 46.6187 15.8161 48.9125 15.8161 51.75C15.8161 54.5812 17.6516 56.8812 19.9103 56.8812C22.169 56.8812 24.0045 54.5812 24.0045 51.75Z" fill="#6B7192"/>
<path fill-rule="evenodd" clip-rule="evenodd" d="M18.7779 56.3875C18.7281 56.8687 18.7219 56.9625 19.2695 57.0625C19.6926 57.1437 20.1157 57.1375 20.5388 57.0625C20.937 57.0125 20.8748 56.975 20.6321 56.3875C20.4143 55.85 20.2774 55.2812 20.2214 54.7062C20.1779 54.275 20.0721 53.75 20.5388 53.65C20.769 53.5875 20.9806 53.4812 21.1859 53.325C21.4597 53.075 21.5966 53.25 21.7334 53.5125C22.0197 54.0687 22.3494 54.5812 22.7539 55.0625C22.9966 55.3562 23.0152 55.4312 23.2641 55.0437C23.4819 54.7 23.6374 54.3375 23.7806 53.9562C23.8863 53.65 23.9112 53.7 23.6001 53.6062C23.0961 53.45 22.6419 53.2625 22.1752 53.0062C21.6463 52.7187 21.6588 52.675 21.7583 52.3125C21.8392 52.025 21.8517 51.8062 21.8081 51.5062C21.7521 51.0937 21.7397 51.0312 22.4801 50.7812C22.8597 50.65 23.233 50.5625 23.6312 50.4937C24.0792 50.4187 24.0543 50.4312 23.8988 49.9C23.8117 49.5937 23.1708 48.0812 23.0463 48.0625C23.0339 48.0625 22.3494 48.9625 22.3432 48.9687C22.113 49.2937 21.9139 49.6375 21.7334 49.9937C21.6028 50.25 21.4534 50.4125 21.1921 50.1687C21.0179 50.0062 20.8312 49.9062 20.601 49.8437C20.2961 49.7625 20.2588 49.6187 20.2588 49.325C20.2588 48.6062 20.4019 47.775 20.657 47.1125C20.8872 46.5187 20.937 46.5 20.5574 46.425C20.1468 46.3375 19.7299 46.3375 19.313 46.4125C18.7903 46.5 18.8028 46.575 18.865 47C18.9957 47.9 19.1637 48.7312 19.6117 49.5375C19.7486 49.7875 19.7423 49.8875 19.537 50.0937C19.3877 50.2437 19.2695 50.3875 19.1575 50.5625C19.0455 50.7375 18.9832 50.8312 18.7903 50.8C18.6535 50.775 18.5477 50.6625 18.3175 50.4125C18.0375 50.1125 17.7761 49.825 17.521 49.5C17.3343 49.25 17.1539 48.9937 16.9921 48.7312C16.6126 48.125 16.6375 48.2687 16.5317 48.4687C16.345 48.8187 16.1521 49.1625 16.0277 49.525C15.8535 50.0125 15.8659 50.0187 16.2143 50.1875C16.7992 50.475 17.3157 50.7125 17.9441 50.9062C18.1743 50.975 18.3299 51 18.4357 51.0187C18.865 51.0875 18.8775 51.0875 18.8588 51.6437C18.8526 51.75 18.8588 51.8312 18.8588 51.8875C18.8775 52.1937 18.7841 52.2562 18.4979 52.2937C18.3921 52.3062 18.2117 52.3312 17.9068 52.4187C17.2783 52.5937 16.7743 52.8062 16.1895 53.0812C15.8161 53.2625 15.8037 53.2625 15.9717 53.775C16.0339 53.975 16.1086 54.1687 16.1957 54.3562C16.4881 54.9875 16.5255 55.175 16.8801 54.6312C17.0419 54.3687 17.2161 54.1125 17.4152 53.8625C17.6828 53.5187 17.9628 53.2375 18.2677 52.9312C18.4979 52.7 18.6037 52.5875 18.7406 52.5625C18.9459 52.525 19.0081 52.6312 19.1201 52.825C19.2135 52.9875 19.313 53.1187 19.4312 53.2625C19.6179 53.5 19.6428 53.5937 19.4935 53.8437C19.4375 53.9375 19.3441 54.1 19.2197 54.4062C18.9521 55.1 18.8526 55.6687 18.7779 56.3875ZM21.5406 51.75C21.5406 51.0562 21.0926 50.5 20.545 50.5C19.9912 50.5 19.5494 51.0625 19.5494 51.75C19.5494 52.4375 19.9974 53 20.545 53C21.0926 53 21.5406 52.4375 21.5406 51.75ZM18.809 54.2625C19.1512 53.4062 19.145 53.7187 18.9086 53.3125C18.7095 53.0437 18.809 53.0125 18.5788 53.25C18.2926 53.5437 18.0188 53.8187 17.7575 54.1437C17.577 54.3687 17.409 54.6125 17.2535 54.8687C17.1912 54.9687 17.1415 55.0625 17.0917 55.1375C16.961 55.3625 16.8739 55.5062 16.7557 55.575C16.5068 55.7187 16.3575 55.5812 16.1023 55.1375C15.9903 54.9437 15.8846 54.7375 15.7975 54.5375C15.7041 54.3312 15.6232 54.125 15.5548 53.9125C15.2686 53.0375 15.2872 53.025 16.0028 52.6875C16.6063 52.4 17.1415 52.175 17.7886 51.9937C18.2615 51.8625 18.4046 52.0187 18.417 51.6312C18.4295 51.3375 18.1619 51.4375 17.8135 51.3312C17.1663 51.125 16.625 50.8812 16.0215 50.5875C15.337 50.2562 15.3121 50.2437 15.617 49.3812C15.7663 48.9687 15.9717 48.5875 16.1832 48.2062C16.6561 47.3312 17.0295 47.9562 17.3655 48.5062C17.521 48.7625 17.689 49.0062 17.8695 49.2437C18.1121 49.5625 18.3672 49.8375 18.6348 50.125C18.8712 50.3812 18.753 50.3375 18.9895 50.0625C19.2632 49.7375 19.2446 49.8937 18.9397 49.1312C18.6659 48.425 18.5415 47.8125 18.4357 47.075C18.3175 46.2875 18.2988 46.15 19.2383 45.9875C19.705 45.9062 20.1779 45.9125 20.6446 46.0062C21.5032 46.1812 21.3228 46.6187 21.0614 47.2875C20.8686 47.7812 20.7628 48.3 20.7254 48.825C20.6694 49.6562 20.5823 49.3062 21.105 49.5812C21.3726 49.75 21.3103 49.8125 21.5779 49.3562C21.8828 48.825 22.2499 48.3125 22.6668 47.8562C22.8223 47.6875 22.9343 47.6062 23.0961 47.625C23.6001 47.6875 24.2286 49.4937 24.3903 50.0187C24.521 50.45 24.5521 50.8 23.9486 50.8875C23.4881 50.95 23.0588 51.0437 22.617 51.1937C22.225 51.325 22.225 51.3437 22.2437 51.4375C22.2934 51.8 22.281 52.075 22.1814 52.425C22.1628 52.4812 22.1628 52.4937 22.3743 52.6062C22.8223 52.8437 23.2517 53.0312 23.7308 53.175C24.353 53.3625 24.4339 53.4812 24.1912 54.1C23.9983 54.5937 23.7868 55.0312 23.5006 55.4687C23.3263 55.7375 23.2206 55.8625 23.0339 55.8562C22.8534 55.85 22.7477 55.725 22.5486 55.4812C22.1752 55.0312 21.8703 54.625 21.5779 54.1187C21.2917 53.6312 21.4783 53.7187 21.0552 53.9187C20.5201 54.175 20.601 54.025 20.6508 54.6437C20.7006 55.175 20.8312 55.7062 21.0303 56.2C21.1174 56.4062 21.2606 56.6875 21.2979 56.8875C21.3601 57.2562 21.1983 57.3687 20.6072 57.4687C20.1406 57.55 19.649 57.5562 19.1823 57.4687C18.2428 57.2937 18.2552 57.1375 18.3361 56.3187C18.4232 55.5937 18.5352 54.9687 18.809 54.2625Z" fill="white"/>
<path fill-rule="evenodd" clip-rule="evenodd" d="M67.3921 42.8875C68.4748 44.2938 69.1903 46.1126 69.4206 48.275C69.5512 49.5126 69.9494 49.7313 71.0819 49.6938H77.1174C77.8454 49.6938 78.5299 49.1376 79.009 48.5875L81.8401 45.3376C82.2508 44.8625 83.3272 44.9125 83.9494 44.9125H91.5281C91.9885 44.9125 92.4366 44.9063 92.617 45.3313C93.3699 47.0875 93.793 49.1625 94.3468 50.825C94.3841 50.9313 94.4277 51.0188 94.5397 51.0188H95.865C95.8152 51.7063 95.6659 51.7 95.6472 52.3313H95.2303C94.6019 52.3313 94.0668 51.5938 93.905 50.9875L92.617 46.2125C92.4988 45.7626 91.9885 45.3563 91.5281 45.3563H83.9494C83.321 45.3563 82.6179 45.6938 82.2757 46.2188L79.0028 51.2313C78.6046 51.8438 77.8392 52.3375 77.1112 52.3375H71.0757C69.9432 52.375 69.545 52.1563 69.4143 50.9188C68.8419 45.6 65.2952 41.4626 60.9086 41.4626C56.5094 41.4626 52.7948 45.6125 52.4028 50.9688C52.3281 51.9875 52.0543 52.3438 51.0339 52.3438H30.2143C29.3557 52.3438 28.9388 51.9 28.833 50.8188C28.3041 45.5438 24.6952 41.4688 20.3397 41.4688C17.4028 41.4688 14.8517 43.3438 13.2712 46.1438C12.8979 46.8063 10.6019 46.8563 9.33878 45.5C9.16456 44.775 9.53789 43.5 10.1041 43.2563C11.2739 44.0563 12.8979 44.1625 13.2712 43.5063C14.8579 40.7063 17.4028 39.7063 20.3397 39.7063C24.6952 39.7063 28.3041 42.9063 28.833 48.1813C28.9388 49.2688 29.3557 49.7063 30.2143 49.7063H51.0401C52.0606 49.7063 52.3343 49.3563 52.409 48.3313C52.6081 45.6375 53.753 43.5813 55.1841 41.9875C56.3726 40.6688 58.7557 39.9313 54.0828 39.2688C42.1486 37.5625 24.1788 36.7375 12.873 36.375C13.4517 35.6625 16.457 31.5438 17.7823 29.925C17.0046 32.025 19.7734 33.5313 22.1068 33.7375C31.1103 34.5188 61.7299 35.525 67.3921 42.8875Z" fill="#F9F8F3"/>
<path fill-rule="evenodd" clip-rule="evenodd" d="M12.8793 34.0499C12.5495 34.1749 12.3131 34.4124 12.1824 34.6936L11.0126 36.8249C10.7451 37.4061 11.0064 37.7811 11.3175 38.2561H12.3877C12.506 38.2561 12.6366 38.2186 12.7611 38.1374L15.7726 35.6124C16.1895 35.3499 16.3762 34.7311 16.1646 34.3186L15.306 33.1686C15.2686 33.0936 13.1095 33.9624 12.8793 34.0499Z" fill="#E74E0F"/>
<path fill-rule="evenodd" clip-rule="evenodd" d="M12.8793 34.0499C12.5496 34.1749 12.3131 34.4124 12.1824 34.6937L11.6411 35.6749L14.746 35.8499L15.5238 35.1624C16.2082 34.7249 15.7229 33.7125 15.2936 33.1375C14.97 33.225 13.1407 33.9499 12.8793 34.0499Z" fill="#F7B371"/>
<path fill-rule="evenodd" clip-rule="evenodd" d="M91.7647 40.0249C91.9265 40.0249 92.0634 40.1562 92.0634 40.3249C92.0634 40.4874 91.9327 40.6249 91.7647 40.6249C87.5398 40.6249 83.3212 40.6249 79.0963 40.6249C78.9345 40.6249 78.7976 40.4937 78.7976 40.3249C78.7976 40.1624 78.9283 40.0249 79.0963 40.0249C83.3149 40.0249 87.5398 40.0249 91.7647 40.0249ZM91.6963 40.9062C91.8581 40.9062 91.9949 41.0374 91.9949 41.2062C91.9949 41.3687 91.8643 41.5062 91.6963 41.5062C87.6954 41.5062 83.6945 41.5062 79.6936 41.5062C79.5318 41.5062 79.3949 41.3749 79.3949 41.2062C79.3949 41.0437 79.5256 40.9062 79.6936 40.9062C83.6945 40.9062 87.6954 40.9062 91.6963 40.9062Z" fill="#6B7192"/>
<path fill-rule="evenodd" clip-rule="evenodd" d="M51.8802 42.7251C51.8118 39.6564 51.7434 36.9001 52.7949 35.8376C52.826 35.8001 52.882 35.8001 52.9194 35.8376C52.9505 35.8751 52.9505 35.9251 52.9194 35.9626C51.9238 36.9688 51.986 39.6939 52.0607 42.7251C52.1354 45.8251 52.21 49.2314 51.1647 51.5001C51.146 51.5439 51.09 51.5626 51.0465 51.5439C51.0029 51.5251 50.9842 51.4689 51.0029 51.4251C52.0358 49.1939 51.9549 45.8001 51.8802 42.7251ZM33.9229 44.8439C34.122 47.4251 34.3149 49.9751 34.1344 51.9064C34.1282 51.9564 34.0846 51.9939 34.0411 51.9876C33.9913 51.9814 33.954 51.9376 33.9602 51.8939C34.1406 49.9751 33.9478 47.4314 33.7486 44.8564C33.4375 40.7751 33.114 36.6126 34.2838 34.6688C34.3086 34.6251 34.3646 34.6126 34.4082 34.6376C34.4518 34.6626 34.4642 34.7188 34.4393 34.7626C33.2944 36.6501 33.6118 40.7876 33.9229 44.8439ZM20.5202 33.7001C20.4268 33.8063 20.3397 33.9126 20.2651 34.0251C19.5868 35.0001 19.7113 36.1251 20.2651 37.2001C20.8313 38.2876 21.8393 39.3189 22.9344 40.0751L22.9406 40.0814C22.9779 40.1126 22.9904 40.1626 22.9655 40.2064C22.9406 40.2439 22.8846 40.2564 22.8411 40.2314L22.8348 40.2251C21.7211 39.4501 20.6882 38.4001 20.1095 37.2813C19.5246 36.1501 19.4002 34.9626 20.1095 33.9188C20.1904 33.8001 20.2837 33.6876 20.3833 33.5751C20.4828 33.4626 20.5948 33.3563 20.7131 33.2563C20.7504 33.2251 20.8064 33.2313 20.8375 33.2688C20.8686 33.3063 20.8624 33.3626 20.8251 33.3938C20.7193 33.4938 20.6135 33.5938 20.5202 33.7001Z" fill="#C7C6C3"/>
<path fill-rule="evenodd" clip-rule="evenodd" d="M50.754 35.0938C48.9246 35.0751 45.2411 35.0501 45.378 33.1501C45.4215 32.5813 45.6082 31.9751 46.2491 31.8688C46.9149 31.7563 48.1966 31.6813 49.186 31.7251C50.4242 31.7813 50.6668 32.0251 51.3077 33.0126C51.8366 33.8376 52.0917 34.8063 50.754 35.0938Z" fill="#E3E1DD"/>
<path fill-rule="evenodd" clip-rule="evenodd" d="M45.3904 33.0813C45.4402 32.5313 45.6393 31.9688 46.2553 31.8688C46.921 31.7563 48.2028 31.6813 49.1922 31.7251C50.4304 31.7813 50.673 32.0251 51.3139 33.0126L51.3575 33.0751H45.3904V33.0813Z" fill="#F9F8F3"/>
<path fill-rule="evenodd" clip-rule="evenodd" d="M78.4492 48.8751L73.8758 48.1814C73.1167 48.0689 71.7789 51.0251 72.8118 51.0251H77.2421C78.1132 51.0251 79.1337 49.0189 78.4492 48.8751Z" fill="#152F4E"/>
<path fill-rule="evenodd" clip-rule="evenodd" d="M52.3343 60.2312C52.3343 59.2625 51.5503 58.4688 50.5796 58.4688H2.48184C1.5174 58.4688 0.733398 59.2562 0.733398 60.2312H52.3343Z" fill="white"/>
<path fill-rule="evenodd" clip-rule="evenodd" d="M104.757 60.2312C104.757 59.2625 103.973 58.4688 103.002 58.4688H64.5425C63.5781 58.4688 62.7878 59.2562 62.7878 60.2312H104.757Z" fill="white"/>
<path fill-rule="evenodd" clip-rule="evenodd" d="M14.5719 51.8689C9.97369 51.8689 6.24658 55.6126 6.24658 60.2314H22.891C22.891 55.6126 19.1701 51.8689 14.5719 51.8689Z" fill="white"/>
<path fill-rule="evenodd" clip-rule="evenodd" d="M79.8367 56.8625C77.9825 56.8625 76.4829 58.3688 76.4829 60.2313H83.1905C83.1842 58.3688 81.6847 56.8625 79.8367 56.8625Z" fill="white"/>
<path fill-rule="evenodd" clip-rule="evenodd" d="M73.1105 55.3625C70.435 55.3625 68.2634 57.5438 68.2634 60.2313H77.9576C77.9576 57.5438 75.7861 55.3625 73.1105 55.3625Z" fill="white"/>
<path fill-rule="evenodd" clip-rule="evenodd" d="M72.1523 26.5188C71.4865 26.5188 70.9514 27.0563 70.9514 27.7251C70.9514 28.3876 71.4865 28.9313 72.1523 28.9313C72.8119 28.9313 73.3532 28.3876 73.3532 27.7251C73.3532 27.0563 72.8181 26.5188 72.1523 26.5188Z" fill="white"/>
<path fill-rule="evenodd" clip-rule="evenodd" d="M75.4811 24.3438C75.0394 24.3438 74.6785 24.7062 74.6785 25.15C74.6785 25.5937 75.0394 25.9562 75.4811 25.9562C75.9229 25.9562 76.2838 25.5937 76.2838 25.15C76.2776 24.7062 75.9229 24.3438 75.4811 24.3438Z" fill="white"/>
<path fill-rule="evenodd" clip-rule="evenodd" d="M67.6535 20.2375C67.2117 20.2375 66.8508 20.6001 66.8508 21.0438C66.8508 21.4876 67.2117 21.85 67.6535 21.85C68.0953 21.85 68.4562 21.4876 68.4562 21.0438C68.4562 20.6001 68.0953 20.2375 67.6535 20.2375Z" fill="white"/>
<path fill-rule="evenodd" clip-rule="evenodd" d="M14.7894 21.8501C14.3725 21.8501 14.0303 22.1876 14.0303 22.6126C14.0303 23.0313 14.3725 23.3688 14.7894 23.3688C15.2063 23.3688 15.5485 23.0313 15.5485 22.6126C15.5485 22.1938 15.2063 21.8501 14.7894 21.8501Z" fill="white"/>
<path fill-rule="evenodd" clip-rule="evenodd" d="M13.315 16.4875C12.8981 16.4875 12.5559 16.825 12.5559 17.2438C12.5559 17.6626 12.8919 18.0063 13.315 18.0063C13.7319 18.0063 14.0679 17.6688 14.0679 17.2438C14.0679 16.825 13.7319 16.4875 13.315 16.4875Z" fill="white"/>
<path fill-rule="evenodd" clip-rule="evenodd" d="M12.7672 24.6438C12.1388 24.6438 11.6348 25.1563 11.6348 25.7813C11.6348 26.4125 12.145 26.9188 12.7672 26.9188C13.3957 26.9188 13.8997 26.4063 13.8997 25.7813C13.8997 25.15 13.3957 24.6438 12.7672 24.6438Z" fill="white"/>
<path fill-rule="evenodd" clip-rule="evenodd" d="M99.2749 50.7312C98.6091 50.7312 98.074 51.2749 98.074 51.9374C98.074 52.6062 98.6091 53.1437 99.2749 53.1437C99.9406 53.1437 100.476 52.6062 100.476 51.9374C100.476 51.2687 99.9406 50.7312 99.2749 50.7312Z" fill="white"/>
<path fill-rule="evenodd" clip-rule="evenodd" d="M101.197 47.6001C100.756 47.6001 100.395 47.9626 100.395 48.4063C100.395 48.8501 100.756 49.2126 101.197 49.2126C101.639 49.2126 102 48.8501 102 48.4063C102 47.9626 101.645 47.6001 101.197 47.6001Z" fill="white"/>
<path fill-rule="evenodd" clip-rule="evenodd" d="M4.36715 55.5751C5.0267 55.5751 5.56804 55.0376 5.56804 54.3689C5.56804 53.7064 5.03293 53.1626 4.36715 53.1626C3.70137 53.1626 3.16626 53.7001 3.16626 54.3689C3.16626 55.0376 3.70137 55.5751 4.36715 55.5751Z" fill="white"/>
<path fill-rule="evenodd" clip-rule="evenodd" d="M7.81439 41.0063C8.25616 41.0063 8.61705 40.6438 8.61705 40.2001C8.61705 39.7563 8.25616 39.3938 7.81439 39.3938C7.37261 39.3938 7.01172 39.7563 7.01172 40.2001C7.01172 40.6501 7.37261 41.0063 7.81439 41.0063Z" fill="white"/>
<path fill-rule="evenodd" clip-rule="evenodd" d="M92.7416 32.2124C92.2998 32.2124 91.939 32.5749 91.939 33.0186C91.939 33.4624 92.2998 33.8249 92.7416 33.8249C93.1834 33.8249 93.5443 33.4624 93.5443 33.0186C93.5381 32.5749 93.1834 32.2124 92.7416 32.2124Z" fill="white"/>
<path fill-rule="evenodd" clip-rule="evenodd" d="M87.3033 27.7812C87.0109 26.9375 86.3451 26.2687 85.5051 25.975C86.3451 25.6812 87.0109 25.0125 87.3033 24.1687C87.5958 25.0125 88.2616 25.6812 89.1016 25.975C88.2616 26.2687 87.5958 26.9375 87.3033 27.7812Z" fill="white"/>
<path fill-rule="evenodd" clip-rule="evenodd" d="M6.63855 36.5564C6.34611 35.7126 5.68033 35.0439 4.84033 34.7501C5.68033 34.4564 6.34611 33.7938 6.63855 32.9438C6.93099 33.7876 7.59677 34.4564 8.43677 34.7501C7.59677 35.0439 6.93099 35.7126 6.63855 36.5564Z" fill="white"/>
<path fill-rule="evenodd" clip-rule="evenodd" d="M44.6624 21.3125C44.4633 20.7313 44.0029 20.2625 43.418 20.0625C44.0029 19.8625 44.4633 19.4 44.6624 18.8125C44.8615 19.3938 45.322 19.8625 45.9068 20.0625C45.322 20.2625 44.8615 20.7313 44.6624 21.3125Z" fill="white"/>
<path fill-rule="evenodd" clip-rule="evenodd" d="M95.0811 50.7313C94.9193 50.7313 94.7887 50.6 94.7887 50.4375C94.7887 50.275 94.9193 50.1438 95.0811 50.1438H96.0829C96.2447 50.1438 96.3753 50.275 96.3753 50.4375C96.3753 50.6 96.2447 50.7313 96.0829 50.7313H95.0811ZM73.3593 50.7313C73.1976 50.7313 73.0669 50.6 73.0669 50.4375C73.0669 50.275 73.1976 50.1438 73.3593 50.1438H77.2047C77.3664 50.1438 77.4971 50.275 77.4971 50.4375C77.4971 50.6 77.3664 50.7313 77.2047 50.7313H73.3593Z" fill="#EE7D00"/>
<path fill-rule="evenodd" clip-rule="evenodd" d="M46.5603 41.3438C47.5745 40.1376 49.7149 40.5938 51.0216 44.0313C53.2989 48.7001 52.4029 54.3376 49.2358 54.3376H32.0812C29.6669 54.3376 30.0589 51.9626 31.4092 50.3938C32.7594 47.3813 31.938 46.4751 30.7247 46.5626C24.0483 47.0438 27.2216 39.1063 31.0358 40.8626C34.0536 42.2501 35.2234 40.9501 36.3745 39.7938C38.3345 37.8251 40.4563 38.1751 41.6136 40.6188C42.97 43.4688 44.6874 43.5751 46.5603 41.3438ZM33.6056 37.2188C33.1016 35.4001 29.4429 35.5751 29.6918 37.8126C29.7914 38.7376 30.7496 39.5813 31.8074 39.2751C32.8714 38.9751 33.842 38.0626 33.6056 37.2188Z" fill="#A8A096"/>
<path fill-rule="evenodd" clip-rule="evenodd" d="M28.7585 53.6375C25.131 53.6375 22.1941 56.5875 22.1941 60.2312H35.3229C35.3229 56.5875 32.3798 53.6375 28.7585 53.6375Z" fill="white"/>
<path fill-rule="evenodd" clip-rule="evenodd" d="M36.4178 55.5874C33.8667 55.5874 31.7947 57.6686 31.7947 60.2311H41.0409C41.0409 57.6686 38.9752 55.5874 36.4178 55.5874Z" fill="white"/>
<path fill-rule="evenodd" clip-rule="evenodd" d="M52.2846 49.0376C52.1229 49.5188 51.7744 49.7001 51.0402 49.7001H31.6953C31.6144 49.9188 31.5211 50.1501 31.4091 50.3938C30.8989 50.9876 30.5317 51.6876 30.3886 52.3376H51.0402C51.3824 52.3376 51.6375 52.3001 51.8304 52.2063C52.1726 51.3251 52.3282 50.2251 52.2846 49.0376ZM28.5033 46.3251C28.1735 45.0814 27.6571 43.9876 26.9913 43.0688C26.5993 44.3501 26.9415 45.7626 28.5033 46.3251ZM33.6055 37.2188C33.1637 35.6126 30.258 35.5563 29.754 37.1126C31.042 37.1876 32.3362 37.2626 33.6304 37.3438C33.6242 37.3001 33.618 37.2563 33.6055 37.2188Z" fill="#C8C0B0"/>
</g>
<defs>
<clipPath id="clip0_1_2967">
<rect width="104.023" height="59.875" fill="white" transform="translate(0.733398)"/>
</clipPath>
</defs>
</svg>
