<svg width="112" height="80" viewBox="0 0 112 80" fill="none" xmlns="http://www.w3.org/2000/svg">
<g clip-path="url(#clip0_1_3041)">
<path d="M85.7238 8.63749C85.8669 9.71874 85.1514 10.3437 84.1807 10.4437L69.0669 12.225C68.1025 12.325 66.6527 12.8562 65.85 13.4062L53.1442 22.0937C52.3416 22.6437 51.6011 22.7312 50.8047 21.7125L50.1078 20.8375C49.7718 19.9187 50.1576 18.725 50.9602 18.175L64.2696 9.07499C65.0722 8.52499 66.522 7.99374 67.4865 7.89374L83.2162 6.25624C84.1807 6.15624 85.2447 6.82499 85.5807 7.73749L85.7238 8.63749Z" fill="white"/>
<path d="M85.7238 8.63725L85.5869 7.74351C85.562 7.68101 85.5371 7.61851 85.506 7.56226C85.506 7.66851 85.4936 7.78101 85.4749 7.89351C85.3318 8.681 84.6411 9.2935 83.882 9.4685C83.3158 9.59975 82.7558 9.5685 82.1834 9.581C81.4616 9.5935 80.746 9.6935 80.0305 9.78725C78.7113 9.96225 77.3985 10.0185 76.0731 10.106C74.7478 10.1935 73.4225 10.306 72.1034 10.4748C71.7611 10.5185 71.4251 10.5623 71.0829 10.6185C70.9211 10.6435 70.7593 10.6685 70.5976 10.6935C70.5851 10.6935 70.5789 10.6998 70.5665 10.6998C70.5602 10.6998 70.554 10.6998 70.5478 10.706C70.4669 10.7185 70.386 10.731 70.3051 10.7498C69.6642 10.8623 69.0358 10.9873 68.4136 11.1685C67.8225 11.3435 67.2438 11.5498 66.6776 11.7873C66.5282 11.8498 66.3851 11.906 66.2358 11.9748C66.2234 11.981 66.2047 11.9873 66.1985 11.9935C66.1176 12.031 66.0367 12.0685 65.9558 12.106C65.7007 12.231 65.4456 12.356 65.1905 12.4935C64.0891 13.0747 63.0127 13.7122 61.9985 14.431C61.4696 14.806 60.9531 15.1935 60.4429 15.581C60.1691 15.7935 59.8954 16.0122 59.6154 16.2247C59.578 16.2497 59.4536 16.3435 59.3976 16.3872C59.3042 16.4622 59.2171 16.5435 59.13 16.6185C58.6696 17.0247 58.2091 17.4747 57.6616 17.756C57.002 18.0935 56.2118 18.1685 55.5647 17.7622C55.0234 17.4185 54.6438 16.906 54.2456 16.4122C54.1647 16.3122 54.0776 16.206 53.9967 16.106L50.9602 18.1747C50.1576 18.7247 49.7718 19.9247 50.1078 20.8372L50.8047 21.7122C51.6011 22.731 52.3416 22.6372 53.1442 22.0935L65.85 13.406C66.6527 12.856 68.1025 12.3247 69.0669 12.2248L84.1807 10.4373C85.1514 10.3373 85.8669 9.7185 85.7238 8.63725Z" fill="#4BB790"/>
<path d="M56.4361 22.6374L52.964 25.1436C52.628 25.3874 52.1614 25.3061 51.9249 24.9749L47.8182 19.2311C47.5755 18.8936 47.6564 18.4249 47.9862 18.1874L51.4582 15.6811C51.7942 15.4374 52.2609 15.5186 52.4974 15.8499L56.6041 21.5936C56.8467 21.9249 56.7721 22.3999 56.4361 22.6374Z" fill="#4BB790"/>
<path d="M56.6908 21.7063L56.2552 21.1C56.2179 21.1313 56.1868 21.1625 56.1494 21.1875C55.6205 21.55 54.9734 21.2875 54.6188 20.8313C54.5316 20.7188 54.4445 20.6063 54.3574 20.4938C54.3574 20.4938 54.3574 20.4875 54.3512 20.4875C54.3512 20.4875 54.3512 20.4875 54.345 20.4813C54.3077 20.4375 54.2703 20.3938 54.233 20.35C54.065 20.15 53.897 19.9563 53.729 19.7625C53.3868 19.3688 53.0445 18.9813 52.7023 18.5813C52.0303 17.8 51.3832 16.9938 50.8419 16.1125L47.8614 18.2625C47.5939 18.4563 47.5316 18.8375 47.7245 19.1125L51.9992 25.0875C52.1921 25.3563 52.5716 25.4188 52.8454 25.225L56.5476 22.5563C56.8214 22.3625 56.8836 21.975 56.6908 21.7063Z" fill="#6CDDBB"/>
<path d="M53.2687 35.9874L44.3897 42.225L33.6501 27.2562L34.8386 26.2562C36.643 24.4874 33.5693 23.1187 36.7924 20.3937L44.1159 15.2437C47.6439 13.0562 49.3861 14.6624 50.0705 15.6124L55.6519 23.1624C53.1567 26.7687 56.8901 33.1999 53.2687 35.9874Z" fill="#4BB790"/>
<path d="M55.6395 23.1562L50.0581 15.6062C49.9586 15.4625 49.8341 15.3125 49.6848 15.1562C49.7533 15.275 49.8155 15.3938 49.8839 15.5063C50.2573 16.1688 50.6244 16.8313 51.0288 17.475C51.4457 18.1375 51.9621 18.7313 52.4039 19.3812C52.939 20.175 53.4057 21.0625 53.4057 22.0437C53.4057 22.5312 53.3186 23.0187 53.219 23.5C53.1755 23.7062 53.1319 23.9125 53.0946 24.125C53.0821 24.1812 53.0199 24.3812 53.0448 24.4375C53.0448 24.4375 53.0635 24.225 53.051 24.3625C53.0448 24.425 53.0386 24.4875 53.0386 24.55C53.0137 24.8375 52.9826 25.125 52.9515 25.4125C52.939 25.525 52.9266 25.6312 52.9141 25.7437C52.9017 25.8312 52.8768 26.025 52.9079 25.825C52.8457 26.25 52.827 26.6937 52.827 27.1187C52.827 27.95 52.9701 28.775 52.9577 29.6062C52.939 30.5312 52.7337 31.3875 52.3044 32.2062C51.9435 32.8937 51.4644 33.5312 50.9417 34.1062C49.8715 35.2812 48.5586 36.2375 47.1088 36.8812C45.827 37.45 44.3897 37.475 43.2075 36.6437C42.131 35.8875 41.3968 34.7937 40.6564 33.725C40.4884 33.4812 40.3204 33.2437 40.1461 33.0062C40.0217 32.8375 39.8973 32.6687 39.7666 32.5C39.7044 32.4187 39.6359 32.3375 39.5737 32.25C39.5613 32.2312 39.555 32.225 39.5488 32.2125C39.5426 32.2062 39.5364 32.2 39.5301 32.1875C39.0013 31.5437 38.4413 30.9312 37.8688 30.3187C36.7115 29.1 35.5479 27.875 34.5337 26.5125L33.6501 27.2562L44.3897 42.225L53.2688 35.9875C56.8901 33.2 53.1568 26.7687 55.6395 23.1562Z" fill="#6CDDBB"/>
<path d="M24.2731 44.3812L22.2322 45.8562C21.9273 46.0749 21.4979 46.0062 21.2739 45.6999L18.4304 41.7249C18.2126 41.4187 18.2811 40.9874 18.5859 40.7624L20.6268 39.2874C20.9317 39.0686 21.3611 39.1374 21.5851 39.4436L24.4286 43.4187C24.6526 43.7312 24.5779 44.1624 24.2731 44.3812Z" fill="#152F4E"/>
<path d="M24.2731 44.3812L22.2322 45.8562C21.9273 46.0749 21.4979 46.0062 21.2739 45.6999L18.4304 41.7249C18.2126 41.4187 18.2811 40.9874 18.5859 40.7624L20.6268 39.2874C20.9317 39.0686 21.3611 39.1374 21.5851 39.4436L24.4286 43.4187C24.6526 43.7312 24.5779 44.1624 24.2731 44.3812Z" fill="#202B55"/>
<path d="M31.0367 45.9125C30.4207 45.5812 30.4332 45.1875 30.5203 44.1812C30.5203 44.1812 30.3461 39.4687 31.6403 37.175C33.3701 34.1125 32.0758 34.4812 32.0758 34.4812C32.6732 32.0062 34.5958 32.875 35.2118 33.2062C35.8278 33.5375 36.0643 34.3187 35.7283 34.9375C35.7283 34.9375 35.1994 35.925 33.8865 38.3875C32.5736 40.8437 32.7665 45.3937 32.7665 45.3937C32.4305 46.0125 31.6589 46.25 31.0367 45.9125Z" fill="#152F4E"/>
<path d="M35.2114 33.2062C34.5954 32.875 32.6728 32.0062 32.0754 34.4812C32.0754 34.4812 33.0088 34.2187 32.2372 35.9999C32.5981 36.1812 32.8657 36.5687 32.8657 36.9749C32.8657 38.1874 32.6914 39.3937 32.5172 40.5874C32.4737 40.8812 32.4301 41.1812 32.3928 41.4749C32.3741 41.6187 32.3554 41.7562 32.3368 41.8999C32.3305 41.9624 32.3243 42.0249 32.3181 42.0874C32.3181 42.0999 32.3181 42.1062 32.3181 42.1187C32.2683 42.6874 32.2372 43.2562 32.2497 43.8312C32.2621 44.4562 31.7705 44.9311 31.1732 44.9749C30.9243 44.9936 30.6817 44.9061 30.4888 44.7562C30.4701 45.3561 30.5634 45.6499 31.0488 45.9124C31.6648 46.2436 32.4425 46.0124 32.7723 45.3936C32.7723 45.3936 32.5794 40.8437 33.8923 38.3874C35.2052 35.9312 35.7341 34.9374 35.7341 34.9374C36.0577 34.3187 35.8274 33.5374 35.2114 33.2062Z" fill="#202B55"/>
<path d="M33.6502 27.2563C33.6502 27.2563 28.212 31.7501 22.9293 36.5001C20.4591 38.7188 20.3782 41.1001 22.78 47.6814C25.0635 53.9251 26.6875 54.9564 29.3569 53.0126C34.6956 49.1314 44.3836 42.2251 44.3836 42.2251L33.6502 27.2563ZM26.9489 45.2376C25.5738 41.4813 25.6235 40.1188 27.036 38.8563C30.0538 36.1438 33.1587 33.5813 33.1587 33.5813L39.2876 42.1251C39.2876 42.1251 33.756 46.0688 30.7071 48.2813C29.1827 49.3876 28.2555 48.8001 26.9489 45.2376Z" fill="#152F4E"/>
<path d="M39.144 34.9187C39.48 35.5187 39.7911 36.1375 40.0711 36.7687C40.3574 37.4187 40.6125 38.0812 40.8054 38.7625C40.992 39.4062 41.2534 40.0187 41.3156 40.6875C41.4525 42.0875 40.3387 43.05 39.4053 43.9062C38.4347 44.7937 37.4018 45.6062 36.3316 46.3687C35.3298 47.0812 34.272 47.7062 33.2516 48.3812C32.2684 49.0312 31.3102 49.7125 30.2773 50.2687C29.3067 50.7937 28.0995 51.3937 26.9609 51.3062C25.8906 51.225 24.9698 50.7062 24.1546 50.0312C23.8995 49.825 23.6569 49.5937 23.4329 49.3562C25.3929 54.0875 26.9484 54.7562 29.3627 53.0062C34.7013 49.125 44.3894 42.2187 44.3894 42.2187L39.144 34.9187Z" fill="#202B55"/>
<path opacity="0.38" d="M41.6831 17.9814C39.1694 19.7939 37.4209 21.6689 37.7818 22.1689C38.1365 22.6689 39.7916 20.9626 42.3054 19.1501C44.8191 17.3376 47.2396 16.1001 46.8849 15.6001C46.524 15.1001 44.1969 16.1689 41.6831 17.9814Z" fill="white"/>
<path fill-rule="evenodd" clip-rule="evenodd" d="M28.8962 52.4875C31.7958 52.4875 34.2349 55 34.8945 58.3812H36.6367C37.2962 55 39.7291 52.4875 42.6349 52.4875C43.4189 52.4875 44.1718 52.6687 44.8625 53.0062C45.5531 52.6687 46.306 52.4875 47.09 52.4875C50.4998 52.4875 53.2625 55.95 53.2625 60.225C53.2625 64.5 50.4998 67.9625 47.09 67.9625H42.6411C40.034 67.9625 37.8002 65.9312 36.898 63.0687H34.8385C34.7762 63.0687 34.714 63.0625 34.6518 63.05C33.7496 65.925 31.5158 67.9625 28.9025 67.9625H24.4473C21.8402 67.9625 19.6065 65.9312 18.7042 63.0687H18.0198C17.5345 63.0687 17.1362 62.6687 17.1362 62.1812V59.8437C17.1362 59.7875 17.1425 59.7375 17.1487 59.6812C17.3727 54.875 20.5522 51.0625 24.4473 51.0625C25.9033 51.0625 27.2598 51.5938 28.3985 52.5125C28.5602 52.5 28.7282 52.4875 28.8962 52.4875ZM57.9851 60.225C57.9851 55.1625 61.258 51.0625 65.2962 51.0625C66.7522 51.0625 68.1087 51.5938 69.2473 52.5125C69.4153 52.4938 69.5771 52.4875 69.7513 52.4875C73.1611 52.4875 75.9238 55.95 75.9238 60.225C75.9238 64.5 73.1611 67.9625 69.7513 67.9625H65.2962C63.3238 67.9625 61.5691 66.8062 60.4367 65H58.8438C58.3585 65 57.9602 64.6 57.9602 64.1125V62.3937V61.2125C57.9602 61.1562 57.9665 61.1 57.9727 61.05L57.9851 60.225ZM77.2367 60.225C77.2367 55.95 79.9993 52.4875 83.4091 52.4875C84.1931 52.4875 84.946 52.6687 85.6367 53.0062C86.3273 52.6687 87.0802 52.4875 87.8642 52.4875C91.274 52.4875 94.0367 55.95 94.0367 60.225C94.0367 64.5 91.274 67.9625 87.8642 67.9625H83.4091C81.4367 67.9625 79.682 66.8062 78.5496 65H77.4171C76.9318 65 76.5336 64.6 76.5336 64.1125V61.2062C76.5336 60.7812 76.8385 60.4187 77.2367 60.3375C77.2367 60.3 77.2367 60.2625 77.2367 60.225Z" fill="#152F4E"/>
<path fill-rule="evenodd" clip-rule="evenodd" d="M100.508 61.506C100.402 61.2185 100.265 60.8435 100.271 60.381C100.284 59.7435 100.439 59.7435 100.489 59.056H99.1577C99.0457 59.056 98.9586 58.9685 98.9586 58.856V57.1998C98.9586 57.106 99.0706 56.9123 99.1141 56.8873L100.788 56.2685C100.813 54.9498 100.396 53.381 99.9479 51.931C99.6803 51.056 98.5354 47.7248 96.675 46.9373C93.2465 45.4873 88.0385 43.1373 82.0776 42.031C74.6172 37.9435 73.3976 37.0498 65.7007 34.131C61.3638 31.6248 35.9896 32.131 23.8313 33.5498C22.1513 33.6498 22.7487 35.5123 22.898 36.4623L19.3638 41.0435L16.9247 41.9623C16.5949 42.0873 16.3522 42.3248 16.2278 42.6123L15.0518 44.756C14.778 45.3435 15.0455 45.7248 15.3566 46.1998C15.1513 46.6748 14.1993 49.2748 14.1246 51.3373C12.7184 52.4373 13.5273 56.131 14.4295 57.0248L17.1362 59.8435C17.298 54.9623 20.5087 51.0623 24.4473 51.0623C28.4856 51.0623 31.7585 55.1623 31.7585 60.2248C31.7585 60.9685 32.2936 62.3498 33.2767 62.3873H27.7016H57.9603L57.9852 60.2248C57.9852 55.1623 61.2581 51.0623 65.2963 51.0623C69.3345 51.0623 72.6074 55.1623 72.6074 60.2248C72.6074 60.9685 72.7879 62.3998 73.7212 62.3873H99.3754C101.267 62.3935 100.738 62.1373 100.508 61.506Z" fill="#E4E2DE"/>
<path fill-rule="evenodd" clip-rule="evenodd" d="M81.5178 62.3937H98.2121L96.3081 55.2375C96.0965 54.4562 95.8849 54.225 95.0823 54.225L87.74 54.2188C86.9312 54.2188 86.4832 54.7062 86.0414 55.3812L81.5178 62.3937Z" fill="#152F4E"/>
<path fill-rule="evenodd" clip-rule="evenodd" d="M81.76 62.3937H97.2409L95.6853 56.5625C95.4738 55.775 95.2622 55.5499 94.4596 55.5499L87.1173 55.5437C86.3085 55.5437 85.8605 56.0312 85.4187 56.7062L81.76 62.3937Z" fill="#6B7193"/>
<path fill-rule="evenodd" clip-rule="evenodd" d="M67.2065 34.7312C66.7273 34.5437 66.2296 34.3375 65.7007 34.125C58.6136 30.4875 31.9701 32.5188 23.8314 33.55C23.0723 33.5938 22.7799 34 22.699 34.5187C39.4305 33.4375 54.9736 32.7875 67.2065 34.7312Z" fill="#FAF9F4"/>
<path fill-rule="evenodd" clip-rule="evenodd" d="M98.3175 48.2688C97.9815 47.6813 97.689 47.2876 97.3903 46.9188C95.2872 44.3626 85.2259 42.6188 82.0775 42.0313C75.8863 41.3563 68.5006 42.0251 60.7539 43.1001C64.3815 43.5313 70.5352 44.7251 74.5859 46.4313L83.9815 48.3438L98.3175 48.2688Z" fill="white"/>
<path fill-rule="evenodd" clip-rule="evenodd" d="M98.5163 48.1062H82.5937V49.0374C82.5439 49.0124 82.4817 48.9937 82.4257 48.9812L74.8968 45.9624C74.6355 45.9062 74.343 45.9874 74.1564 46.1937C73.7333 46.5999 71.3004 47.9312 72.2773 48.6812L76.8755 53.2249C77.0124 53.3499 77.1928 53.4187 77.3981 53.4187L81.5235 52.9749C81.6541 52.9749 81.7848 52.9437 81.903 52.8812L84.367 51.0937C84.4355 51.0562 84.7092 50.9499 84.9955 50.9499H97.3154C97.5892 50.9499 97.8568 51.1124 97.9128 51.1687L99.1634 52.8874C99.2257 52.9499 99.2879 52.9749 99.3563 52.9749L100.445 53.5124C99.7608 51.4062 99.3626 49.7437 98.5163 48.1062Z" fill="white"/>
<path fill-rule="evenodd" clip-rule="evenodd" d="M99.7917 51.5062C99.4246 49.8 98.6779 48.3125 97.4148 46.9062L96.7552 47.3063C96.6619 47.3438 96.5872 47.4375 96.5312 47.5625C96.5375 48.0875 96.8112 49.8562 97.0912 50.1437L98.3419 51.4188C98.4041 51.4813 98.4664 51.5062 98.5348 51.5062H99.7917Z" fill="#003C50"/>
<path fill-rule="evenodd" clip-rule="evenodd" d="M82.0773 42.019C77.1804 38.919 71.1199 35.7627 65.7004 34.0627C59.8515 32.969 43.4621 32.7502 33.4505 34.069C29.263 34.619 19.8799 39.9315 27.1785 41.1752C27.6452 41.2565 28.0745 41.319 28.6905 41.369L52.7332 43.3253C53.9839 43.594 55.5208 43.6003 56.591 43.6128C56.6097 43.6065 56.6346 43.6003 56.6532 43.594C58.2959 43.5503 59.9386 43.2753 61.6061 42.9753C66.0675 42.169 77.9955 41.3065 82.0773 42.019Z" fill="#152F4E"/>
<path fill-rule="evenodd" clip-rule="evenodd" d="M62.7323 42.5376C62.3279 42.6126 61.9234 42.6814 61.5252 42.7439C59.2417 41.4376 53.455 36.0626 51.5261 33.5564C57.935 33.5876 63.9332 33.9439 66.7332 34.4689C71.6861 36.0126 77.0559 38.8814 81.5297 41.6876C77.8026 41.0439 66.8079 41.8064 62.7323 42.5376ZM55.0852 39.7314C53.959 39.5564 51.2399 39.6126 51.103 39.9314C50.2941 41.2314 50.431 42.0689 51.0532 42.6064L39.847 41.7626C39.9714 39.0814 40.351 36.4314 41.1039 33.8314C43.7608 33.6626 46.6417 33.5751 49.4914 33.5564C51.0843 34.9564 53.5172 37.4876 55.0852 39.7314ZM37.6319 41.6001L30.8061 41.0876C21.5537 40.3939 31.0177 35.0251 35.1617 34.4189C36.5306 34.2189 38.0612 34.0564 39.7039 33.9314C38.6274 36.4189 38.0301 38.9876 37.6319 41.6001Z" fill="#83929B"/>
<path fill-rule="evenodd" clip-rule="evenodd" d="M37.75 40.8751C37.7126 41.1188 37.6691 41.3563 37.6317 41.6001L30.806 41.0876C28.6406 40.9251 27.502 40.5001 27.0789 39.9438C30.5384 40.4688 34.1286 40.7376 37.75 40.8751ZM39.8966 40.9438C43.4993 41.0313 47.102 41.0063 50.6113 41.0001C50.4184 41.7188 50.6175 42.2376 51.0531 42.6126L39.8469 41.7688C39.8593 41.4876 39.878 41.2126 39.8966 40.9438ZM59.2042 41.0564C62.6264 41.1501 65.8495 41.3626 68.7491 41.8376C66.758 42.0126 64.7046 42.1876 62.7384 42.5376C62.334 42.6126 61.9295 42.6814 61.5313 42.7439C60.9402 42.4126 60.1251 41.8126 59.2042 41.0564Z" fill="#A4ACB1"/>
<path fill-rule="evenodd" clip-rule="evenodd" d="M76.0978 41.4564C68.4943 37.0001 63.4169 36.1064 54.8863 37.1751C53.4863 35.8064 52.2356 34.4876 51.52 33.5564C57.9289 33.5876 63.9272 33.9439 66.7272 34.4689C71.68 36.0126 77.0498 38.8814 81.5236 41.6876C80.3227 41.4814 78.3503 41.4189 76.0978 41.4564ZM52.8889 36.9876C49.0436 36.3251 44.7067 36.1251 40.5129 36.2189C40.6747 35.4189 40.8738 34.6251 41.0978 33.8314C42.6223 33.7314 44.2152 33.6626 45.8329 33.6189C47.04 33.5876 48.2658 33.5626 49.4854 33.5564C50.4498 34.3939 51.7005 35.6376 52.8889 36.9876ZM38.8329 36.2689C35.0498 36.4189 31.4596 36.7939 28.5352 37.2564C30.3645 35.9189 33.3014 34.6939 35.1618 34.4189C36.5307 34.2189 38.0614 34.0564 39.704 33.9314C39.3743 34.7001 39.0818 35.4814 38.8329 36.2689Z" fill="#C8D3D9"/>
<path fill-rule="evenodd" clip-rule="evenodd" d="M82.1647 47.3002L74.6047 45.6939C74.3558 45.6377 74.082 45.7127 73.9016 45.9127C73.5034 46.3002 71.6118 47.5564 72.539 48.2689L76.8945 51.3189C77.0251 51.4314 77.1994 51.5064 77.386 51.5064H81.2998C81.4242 51.5064 81.5424 51.4752 81.6607 51.4189L83.994 50.1439C84.3735 49.9377 84.4669 49.4627 84.1869 49.1377L82.5691 47.5627C82.4758 47.4314 82.3327 47.3377 82.1647 47.3002Z" fill="#003C50"/>
<path fill-rule="evenodd" clip-rule="evenodd" d="M97.0353 47.2998H81.99V50.1373H97.9189L97.0353 47.2998Z" fill="#152F4E"/>
<path fill-rule="evenodd" clip-rule="evenodd" d="M99.1132 56.8876L100.407 56.4064C100.47 56.3751 100.575 56.7064 100.588 56.8189C100.613 57.0376 100.544 58.6501 100.246 59.0501H99.1567C98.8332 59.0563 98.8705 57.0064 99.1132 56.8876Z" fill="#152F4E"/>
<path fill-rule="evenodd" clip-rule="evenodd" d="M84.5667 62.3937H96.7311L96.3515 60.3125C96.1835 59.4 95.9284 59.1499 95.1258 59.1437L87.3418 59.1375C86.5329 59.1375 86.0849 59.7 85.6431 60.4812L84.5667 62.3937Z" fill="white"/>
<path fill-rule="evenodd" clip-rule="evenodd" d="M81.8599 47.9126L75.5506 46.7626C75.339 46.7251 75.115 46.7813 74.9657 46.9188L73.9453 47.7188C73.6715 47.9313 73.6528 48.2313 73.9888 48.4501L77.4733 50.7938C77.579 50.8751 77.7284 50.9251 77.8839 50.9251H81.1506C81.2501 50.9251 81.3559 50.9063 81.4493 50.8626L82.955 49.9438C83.2724 49.7938 83.347 49.4501 83.1168 49.2251L82.2021 48.0938C82.1213 48.0063 82.003 47.9376 81.8599 47.9126Z" fill="#C8D3D9"/>
<path fill-rule="evenodd" clip-rule="evenodd" d="M73.7331 48.1001C73.7269 48.2251 73.8514 48.3626 73.982 48.4501L77.23 50.6376C77.3295 50.7126 77.4415 50.7001 77.5909 50.7001H80.6397C80.7331 50.7001 80.8326 50.6813 80.9197 50.6376C81.3304 50.3876 82.1082 49.9876 82.4442 49.7126C80.0362 48.6688 76.3713 48.2501 73.7331 48.1001Z" fill="#83929B"/>
<path fill-rule="evenodd" clip-rule="evenodd" d="M99.6363 50.9251C100.246 50.9251 98.5785 47.3877 97.7322 47.5814L97.3278 47.9064C97.2593 47.9314 97.2033 48.0002 97.166 48.0877C97.0789 48.5814 97.1909 49.6501 97.4833 49.9376L98.4042 50.8564C98.4478 50.9001 98.4976 50.9189 98.5474 50.9189L99.6363 50.9251Z" fill="#C8D3D9"/>
<path fill-rule="evenodd" clip-rule="evenodd" d="M99.4867 50.6624C99.4618 50.3499 99.3062 49.8749 99.0262 49.325L97.5952 49.5374C97.4956 49.5499 97.4956 49.6562 97.5454 49.7L98.5036 50.6187C98.5596 50.6437 98.6218 50.6562 98.6778 50.6562L99.4867 50.6624Z" fill="#83929B"/>
<path fill-rule="evenodd" clip-rule="evenodd" d="M70.4913 59.7814C70.4913 55.8814 67.9651 52.7126 64.8539 52.7126C61.7366 52.7126 59.2166 55.8751 59.2166 59.7814C59.2166 63.6814 61.7428 66.8501 64.8539 66.8501C67.9713 66.8501 70.4913 63.6876 70.4913 59.7814ZM68.9793 59.7814C68.9793 56.9251 67.1313 54.6126 64.8601 54.6126C62.589 54.6126 60.741 56.9251 60.741 59.7814C60.741 62.6314 62.589 64.9439 64.8601 64.9439C67.1313 64.9439 68.9793 62.6376 68.9793 59.7814Z" fill="#6B7193"/>
<path fill-rule="evenodd" clip-rule="evenodd" d="M63.7153 64.4502C63.6656 64.9377 63.6593 65.0315 64.2131 65.1315C64.6362 65.2127 65.0656 65.2065 65.4887 65.1315C65.8869 65.0815 65.8247 65.044 65.582 64.4502C65.358 63.9065 65.2211 63.3377 65.1651 62.7565C65.1216 62.3252 65.0096 61.7877 65.4825 61.694C65.7189 61.6315 65.9242 61.5252 66.1358 61.369C66.4096 61.119 66.5527 61.294 66.6896 61.5565C66.9758 62.1127 67.3118 62.6315 67.7163 63.1127C67.9589 63.4065 67.9838 63.4815 68.2265 63.094C68.4443 62.744 68.5998 62.3877 68.7492 62.0002C68.8549 61.694 68.8798 61.744 68.5687 61.6502C68.0585 61.494 67.6043 61.3002 67.1314 61.0502C66.5963 60.7627 66.6087 60.7127 66.7145 60.3565C66.7954 60.069 66.8078 59.844 66.7643 59.544C66.7083 59.1315 66.6958 59.069 67.4425 58.819C67.822 58.6877 68.2016 58.594 68.5998 58.5315C69.0541 58.4565 69.0229 58.469 68.8736 57.9315C68.7865 57.6252 68.1394 56.1002 68.0149 56.0815C68.0025 56.0815 67.318 56.9815 67.3056 56.994C67.0754 57.3252 66.8763 57.669 66.6958 58.0252C66.5651 58.2877 66.4158 58.444 66.1545 58.2002C65.974 58.0377 65.7874 57.9377 65.5571 57.8752C65.2522 57.794 65.2149 57.6502 65.2149 57.3565C65.2149 56.6377 65.358 55.794 65.6194 55.1315C65.8496 54.5377 65.9056 54.5127 65.5198 54.4377C65.1029 54.3502 64.686 54.3502 64.2691 54.4252C63.7464 54.5127 63.7589 54.5877 63.8211 55.019C63.958 55.9252 64.126 56.7627 64.574 57.5752C64.7109 57.8315 64.7047 57.9252 64.4993 58.1377C64.35 58.2877 64.2318 58.4315 64.1136 58.6127C64.0016 58.7877 63.9393 58.8877 63.7402 58.8502C63.6033 58.8252 63.4976 58.7127 63.2673 58.4627C62.9873 58.1565 62.7198 57.8752 62.4647 57.544C62.2718 57.294 62.0975 57.0315 61.9295 56.769C61.55 56.1565 61.5749 56.3065 61.4691 56.5002C61.2824 56.8502 61.0895 57.2002 60.9589 57.569C60.7846 58.0565 60.7971 58.0627 61.1455 58.2315C61.7367 58.519 62.2531 58.7565 62.8878 58.9565C63.118 59.0252 63.2736 59.0565 63.3793 59.069C63.8087 59.1377 63.8211 59.1377 63.8024 59.694C63.7962 59.8002 63.8024 59.8815 63.8024 59.9377C63.8149 60.244 63.7278 60.3127 63.4416 60.3502C63.3296 60.3627 63.1491 60.3877 62.8442 60.4752C62.2095 60.6502 61.7055 60.8627 61.1144 61.144C60.7349 61.3252 60.7286 61.3252 60.8904 61.844C60.9589 62.044 61.0335 62.244 61.1144 62.4315C61.4131 63.0627 61.4442 63.2502 61.8051 62.7065C61.9669 62.444 62.1473 62.1877 62.3402 61.9315C62.6078 61.5877 62.894 61.3065 63.1989 60.994C63.4291 60.7565 63.5411 60.644 63.6718 60.6252C63.8771 60.5877 63.9393 60.694 64.0513 60.8877C64.1509 61.0502 64.2505 61.1815 64.3625 61.3315C64.5553 61.5752 64.574 61.6627 64.4247 61.919C64.3687 62.0127 64.2753 62.1752 64.1509 62.4877C63.8896 63.1565 63.79 63.7315 63.7153 64.4502ZM66.4967 59.7815C66.4967 59.0877 66.0487 58.519 65.4949 58.519C64.9411 58.519 64.4869 59.0815 64.4869 59.7815C64.4869 60.4752 64.9349 61.0377 65.4949 61.0377C66.0425 61.044 66.4967 60.4815 66.4967 59.7815ZM63.7464 62.3127C64.0887 61.4502 64.0824 61.7627 63.846 61.3565C63.6469 61.0815 63.7464 61.0565 63.51 61.294C63.2176 61.5877 62.9438 61.8627 62.6824 62.194C62.502 62.4252 62.334 62.669 62.1784 62.9252C62.1162 63.0252 62.0602 63.119 62.0167 63.2002C61.886 63.4252 61.7989 63.5752 61.6744 63.644C61.4193 63.7877 61.27 63.6502 61.0211 63.2065C60.9091 63.0065 60.8033 62.8065 60.71 62.6002C60.6166 62.394 60.5357 62.1815 60.4673 61.969C60.1811 61.0877 60.1997 61.0752 60.9215 60.7377C61.5313 60.4502 62.0664 60.219 62.7198 60.044C63.1989 59.9127 63.3358 60.069 63.3544 59.6752C63.3669 59.3815 63.0993 59.4815 62.7447 59.369C62.0913 59.1627 61.55 58.9127 60.9402 58.619C60.2495 58.2815 60.2246 58.269 60.5295 57.4065C60.6789 56.994 60.8904 56.6065 61.0958 56.219C61.5686 55.344 61.9482 55.969 62.2904 56.519C62.446 56.7752 62.6202 57.019 62.8007 57.2627C63.0433 57.5815 63.3047 57.8565 63.5722 58.1502C63.8087 58.4065 63.6967 58.369 63.9269 58.0877C64.2007 57.7565 64.1882 57.919 63.8771 57.1502C63.6033 56.4377 63.4789 55.8252 63.3669 55.0815C63.2487 54.2877 63.23 54.1502 64.1758 53.9877C64.6425 53.9065 65.1278 53.9127 65.5882 54.0065C66.4531 54.1877 66.2727 54.619 66.0114 55.294C65.8185 55.7877 65.7065 56.3127 65.6691 56.844C65.6131 57.6815 65.526 57.3315 66.0487 57.6065C66.3162 57.7752 66.2602 57.8377 66.5216 57.3815C66.8327 56.844 67.1998 56.3315 67.6167 55.8752C67.7723 55.7065 67.8905 55.6252 68.046 55.644C68.55 55.7065 69.1909 57.5315 69.3465 58.0565C69.4772 58.4877 69.5083 58.844 68.9047 58.9315C68.4381 58.994 68.0087 59.0877 67.5607 59.2377C67.1625 59.369 67.1687 59.3877 67.1811 59.4877C67.2309 59.8502 67.2185 60.1315 67.1189 60.4815C67.1065 60.5377 67.1003 60.5502 67.3118 60.6627C67.7598 60.9065 68.1954 61.0877 68.6745 61.2377C69.2967 61.4252 69.3838 61.5502 69.1412 62.169C68.9483 62.669 68.7367 63.1065 68.4505 63.5502C68.2763 63.819 68.1705 63.9502 67.9838 63.944C67.8034 63.9377 67.6976 63.8065 67.4985 63.569C67.1251 63.119 66.814 62.7065 66.5154 62.2002C66.2291 61.7065 66.4158 61.794 65.9927 62.0002C65.4514 62.2627 65.5322 62.1065 65.5882 62.7315C65.6442 63.269 65.7687 63.8002 65.974 64.3002C66.0549 64.5065 66.2042 64.794 66.2416 64.994C66.3038 65.3627 66.142 65.4752 65.5447 65.5815C65.078 65.6627 64.5802 65.669 64.1136 65.5815C63.1678 65.4002 63.1802 65.244 63.2611 64.419C63.3544 63.6502 63.4664 63.0252 63.7464 62.3127Z" fill="white"/>
<path fill-rule="evenodd" clip-rule="evenodd" d="M96.7306 62.3936H82.1333C82.1333 63.0123 82.6373 63.5248 83.2595 63.5248H95.6106C96.2266 63.5186 96.7306 63.0123 96.7306 62.3936Z" fill="#6B7193"/>
<path fill-rule="evenodd" clip-rule="evenodd" d="M81.2743 49.9562L81.7285 50.0312C81.5854 50.3937 81.293 50.65 80.8325 50.65C80.2476 50.65 79.8556 50.2187 79.6814 49.7V49.6937L80.1979 49.775C80.3348 50.025 80.5525 50.2 80.8387 50.2C81.0441 50.2062 81.1872 50.1062 81.2743 49.9562ZM79.5881 49.2312C79.5881 49.2062 79.5881 49.1875 79.5819 49.1625C79.5756 48.9812 79.6005 48.8 79.6503 48.6375C79.781 48.225 80.0796 47.925 80.5774 47.925C81.1623 47.925 81.5605 48.3562 81.7348 48.875C81.7908 49.05 81.8281 49.2312 81.8343 49.4125C81.8343 49.475 81.8343 49.5375 81.8281 49.6L81.3925 49.5312C81.3925 49.5 81.3925 49.4625 81.3925 49.4312C81.3863 49.2937 81.3614 49.1562 81.3179 49.0187C81.1996 48.6687 80.9445 48.3687 80.5774 48.3687C80.3099 48.3687 80.1419 48.5375 80.0734 48.7687C80.0361 48.8875 80.0236 49.0125 80.0236 49.15C80.0236 49.2 80.0299 49.25 80.0361 49.3062L79.5881 49.2312ZM78.9036 49.6937C78.9161 49.6562 78.9285 49.6187 78.9347 49.575L79.3703 49.6437C79.3579 49.7062 79.3454 49.7625 79.3267 49.825C79.1774 50.3 78.8227 50.65 78.2441 50.65C77.5596 50.65 77.093 50.1437 76.8939 49.5375C76.8627 49.4375 76.8316 49.3312 76.813 49.225L77.2796 49.3C77.2859 49.3312 77.2983 49.3625 77.3107 49.3937C77.4601 49.8375 77.7836 50.2062 78.2441 50.2062C78.5925 50.2062 78.8103 49.9875 78.9036 49.6937ZM76.7756 48.775C76.7819 48.6 76.8067 48.4375 76.8565 48.2812C77.0059 47.8062 77.3543 47.45 77.933 47.45C78.6174 47.45 79.0841 47.9562 79.2894 48.5687C79.3579 48.775 79.3952 48.9937 79.4014 49.2062L78.9596 49.1312C78.9472 48.9875 78.9161 48.8437 78.8725 48.7062C78.7232 48.2625 78.3996 47.8937 77.933 47.8937C77.5845 47.8937 77.373 48.1124 77.2796 48.4125C77.2361 48.5437 77.2174 48.6937 77.2174 48.85L76.7756 48.775Z" fill="white"/>
<path fill-rule="evenodd" clip-rule="evenodd" d="M29.6492 59.7814C29.6492 55.8814 27.123 52.7126 24.0119 52.7126C20.9007 52.7126 18.3745 55.8751 18.3745 59.7814C18.3745 63.6814 20.9007 66.8501 24.0119 66.8501C27.123 66.8501 29.6492 63.6876 29.6492 59.7814ZM28.131 59.7814C28.131 56.9251 26.283 54.6126 24.0119 54.6126C21.7345 54.6126 19.8927 56.9251 19.8927 59.7814C19.8927 62.6314 21.7407 64.9439 24.0119 64.9439C26.2892 64.9501 28.131 62.6376 28.131 59.7814Z" fill="#6B7193"/>
<path fill-rule="evenodd" clip-rule="evenodd" d="M22.873 64.4502C22.8232 64.9377 22.817 65.0315 23.3708 65.1315C23.7939 65.2127 24.2232 65.2065 24.6464 65.1315C25.0446 65.0815 24.9886 65.044 24.7397 64.4502C24.5157 63.9065 24.3788 63.3377 24.3228 62.7565C24.2792 62.3252 24.1672 61.7877 24.6401 61.694C24.8766 61.6315 25.0819 61.5252 25.2935 61.369C25.5672 61.119 25.7104 61.294 25.8472 61.5565C26.1335 62.1127 26.4695 62.6315 26.8739 63.1127C27.1166 63.4065 27.1415 63.4815 27.3841 63.094C27.6019 62.744 27.7575 62.3877 27.9068 62.0002C28.0126 61.694 28.0375 61.744 27.7201 61.6502C27.2099 61.494 26.7557 61.3002 26.2828 61.0502C25.7477 60.7627 25.7601 60.7127 25.8597 60.3565C25.9406 60.069 25.953 59.844 25.9095 59.544C25.8472 59.1315 25.841 59.069 26.5815 58.819C26.961 58.6877 27.3406 58.594 27.7388 58.5315C28.193 58.4565 28.1619 58.469 28.0126 57.9315C27.9255 57.6252 27.2784 56.1002 27.1539 56.0815C27.1415 56.0815 26.457 56.9815 26.4446 56.994C26.2144 57.3252 26.0152 57.669 25.8348 58.0252C25.7041 58.2877 25.5548 58.444 25.2935 58.2002C25.113 58.0377 24.9326 57.9377 24.6961 57.8752C24.3912 57.794 24.3539 57.6502 24.3539 57.3565C24.3539 56.6377 24.497 55.794 24.7584 55.1315C24.9886 54.5377 25.0446 54.5127 24.6588 54.4377C24.2419 54.3502 23.825 54.3502 23.4081 54.4252C22.8855 54.5127 22.8979 54.5877 22.9601 55.019C23.097 55.9252 23.265 56.7627 23.713 57.5752C23.8499 57.8315 23.8437 57.9252 23.6384 58.1377C23.489 58.2877 23.3708 58.4315 23.2526 58.6127C23.1406 58.7877 23.0784 58.8877 22.8792 58.8502C22.7424 58.8252 22.6366 58.7127 22.4064 58.4627C22.1264 58.1565 21.8588 57.8752 21.6037 57.544C21.4108 57.294 21.2366 57.0315 21.0686 56.769C20.689 56.1565 20.7139 56.3065 20.6019 56.5002C20.4152 56.8502 20.2224 57.2002 20.0917 57.569C19.9175 58.0565 19.9299 58.0627 20.2784 58.2315C20.8695 58.519 21.3859 58.7565 22.0206 58.9565C22.2508 59.0252 22.4064 59.0565 22.5121 59.069C22.9477 59.1377 22.9601 59.1377 22.9352 59.694C22.929 59.8002 22.9352 59.8815 22.9415 59.9377C22.9539 60.244 22.8668 60.3127 22.5806 60.3502C22.4686 60.3627 22.2881 60.3877 21.9832 60.4752C21.3486 60.6502 20.8446 60.8627 20.2535 61.144C19.8739 61.3252 19.8677 61.3252 20.0295 61.844C20.0917 62.044 20.1664 62.244 20.2535 62.4315C20.5521 63.0627 20.5832 63.2502 20.9441 62.7065C21.1059 62.444 21.2864 62.1877 21.4792 61.9315C21.7468 61.5877 22.033 61.3065 22.3379 60.994C22.5681 60.7565 22.6801 60.644 22.8108 60.6252C23.0161 60.5877 23.0784 60.694 23.1966 60.8877C23.2899 61.0502 23.3895 61.1815 23.5077 61.3315C23.7006 61.5752 23.7192 61.6627 23.5699 61.919C23.5139 62.0127 23.4144 62.1752 23.2961 62.4877C23.0472 63.1565 22.9477 63.7315 22.873 64.4502ZM25.6481 59.7815C25.6481 59.0877 25.2001 58.519 24.6401 58.519C24.0864 58.519 23.6321 59.0815 23.6321 59.7815C23.6321 60.4752 24.0801 61.0377 24.6401 61.0377C25.2001 61.044 25.6481 60.4815 25.6481 59.7815ZM22.9041 62.3127C23.2526 61.4502 23.2401 61.7627 23.0037 61.3565C22.8046 61.0815 22.9041 61.0565 22.6739 61.294C22.3815 61.5877 22.1077 61.8627 21.8464 62.194C21.6659 62.4252 21.4979 62.669 21.3424 62.9252C21.2801 63.0252 21.2241 63.119 21.1806 63.2002C21.0499 63.4252 20.9628 63.5752 20.8446 63.644C20.5895 63.7877 20.4401 63.6502 20.185 63.2065C20.073 63.0065 19.9672 62.8065 19.8801 62.6002C19.7868 62.394 19.7059 62.1815 19.6375 61.969C19.3512 61.0877 19.3699 61.0752 20.0917 60.7377C20.7015 60.4502 21.2366 60.219 21.8899 60.044C22.369 59.9127 22.5059 60.069 22.5246 59.6752C22.537 59.3815 22.2695 59.4815 21.9148 59.369C21.2615 59.1627 20.7201 58.9127 20.1104 58.619C19.4197 58.2815 19.3948 58.269 19.6997 57.4065C19.849 56.994 20.0606 56.6065 20.2659 56.219C20.7388 55.344 21.1184 55.969 21.4606 56.519C21.6161 56.7752 21.7904 57.019 21.9708 57.2627C22.2135 57.5815 22.4748 57.8565 22.7424 58.1502C22.9788 58.4065 22.8668 58.369 23.097 58.0877C23.3708 57.7565 23.3584 57.919 23.0472 57.1502C22.7735 56.4377 22.649 55.8252 22.537 55.0815C22.4188 54.2877 22.4001 54.1502 23.3459 53.9877C23.8126 53.9065 24.2979 53.9127 24.7584 54.0065C25.6232 54.1877 25.4428 54.619 25.1815 55.294C24.9886 55.7877 24.8766 56.3127 24.8455 56.844C24.7895 57.6815 24.7024 57.3315 25.225 57.6065C25.4926 57.7752 25.4304 57.8377 25.6979 57.3815C26.009 56.844 26.3761 56.3315 26.793 55.8752C26.9486 55.7065 27.0668 55.6252 27.2224 55.644C27.7326 55.7065 28.3672 57.5315 28.5228 58.0565C28.6535 58.4877 28.6846 58.844 28.081 58.9315C27.6144 58.994 27.185 59.0877 26.737 59.2377C26.3388 59.369 26.345 59.3877 26.3575 59.4877C26.4072 59.8502 26.3948 60.1315 26.2952 60.4815C26.2828 60.5377 26.2766 60.5502 26.4881 60.6627C26.9361 60.9065 27.3717 61.0877 27.8508 61.2377C28.473 61.4252 28.5601 61.5502 28.3175 62.169C28.1246 62.669 27.913 63.1065 27.6268 63.5502C27.4526 63.819 27.3468 63.9502 27.1601 63.944C26.9797 63.9377 26.8739 63.8065 26.6748 63.569C26.3015 63.119 25.9904 62.7065 25.6917 62.2002C25.4055 61.7065 25.5921 61.794 25.169 62.0002C24.6277 62.2627 24.7086 62.1065 24.7646 62.7315C24.8144 63.269 24.945 63.8002 25.1504 64.3002C25.2375 64.5065 25.3806 64.794 25.4179 64.994C25.4864 65.3627 25.3184 65.4752 24.7272 65.5815C24.2544 65.6627 23.7628 65.669 23.2961 65.5815C22.3441 65.4002 22.3628 65.244 22.4437 64.419C22.5121 63.6502 22.6241 63.0252 22.9041 62.3127Z" fill="white"/>
<path fill-rule="evenodd" clip-rule="evenodd" d="M71.8167 50.8626C72.9056 52.2751 73.6336 54.1126 73.8576 56.2876C73.9883 57.5314 74.3927 57.7564 75.5314 57.7189H81.6105C82.3447 57.7189 83.0291 57.1564 83.5145 56.6064L86.3643 53.3314C86.7811 52.8564 87.8576 52.9064 88.4922 52.9064H96.1269C96.5936 52.9064 97.0416 52.9001 97.2282 53.3251C97.9874 55.0939 98.4105 57.1814 98.9705 58.8564C99.0078 58.9626 99.0514 59.0564 99.1696 59.0564H100.501C100.451 59.7501 100.296 59.7376 100.283 60.3814H99.8665C99.2318 60.3814 98.6967 59.6376 98.5287 59.0251L97.2282 54.2189C97.1038 53.7689 96.5936 53.3564 96.1269 53.3564H88.4922C87.8638 53.3564 87.1545 53.6939 86.806 54.2251L83.5145 59.2689C83.11 59.8876 82.3447 60.3814 81.6105 60.3814H75.5314C74.3927 60.4189 73.9883 60.1939 73.8576 58.9501C73.2851 53.5939 69.7136 49.4251 65.2958 49.4251C60.8656 49.4251 57.126 53.6001 56.7278 58.9939C56.6531 60.0189 56.3794 60.3751 55.3527 60.3751H34.3838C33.5189 60.3751 33.102 59.9314 32.99 58.8376C32.4611 53.5251 28.8274 49.4189 24.4407 49.4189C21.4851 49.4189 18.9154 51.3064 17.3225 54.1251C16.9491 54.7876 14.6345 54.8439 13.3651 53.4751C13.1847 52.7439 13.5705 51.4626 14.1367 51.2189C15.3127 52.0251 16.9491 52.1314 17.3225 51.4689C18.9154 48.6501 21.4851 47.6439 24.4407 47.6439C28.8274 47.6439 32.4611 50.8626 32.99 56.1751C33.102 57.2689 33.5189 57.7126 34.3838 57.7126H55.3527C56.3794 57.7126 56.6531 57.3564 56.7278 56.3314C56.9269 53.6189 58.078 51.5439 59.5216 49.9439C60.7163 48.6126 63.118 47.8751 58.4078 47.2064C46.3989 45.5001 28.3109 44.6689 16.9243 44.3001C17.5091 43.5814 20.5331 39.4314 21.8647 37.8064C21.0807 39.9189 23.8683 41.4376 26.2203 41.6439C35.286 42.4376 66.1109 43.4501 71.8167 50.8626Z" fill="#FAF9F4"/>
<path fill-rule="evenodd" clip-rule="evenodd" d="M16.9309 41.9624C16.6011 42.0874 16.3584 42.3249 16.234 42.6124L15.0517 44.7562C14.778 45.3437 15.0455 45.7249 15.3566 46.1999H16.4331C16.5575 46.1999 16.682 46.1624 16.8064 46.0812L19.8366 43.5437C20.2535 43.2749 20.4464 42.6562 20.2349 42.2437L19.37 41.0874C19.3389 40.9999 17.1673 41.8749 16.9309 41.9624Z" fill="#E84E0F"/>
<path fill-rule="evenodd" clip-rule="evenodd" d="M16.9306 41.9625C16.6008 42.0875 16.3582 42.3249 16.2337 42.6124L15.6924 43.5999L18.8222 43.775L19.6062 43.0812C20.2968 42.6374 19.8053 41.6187 19.3759 41.0437C19.0399 41.1312 17.1919 41.8625 16.9306 41.9625Z" fill="#F8B472"/>
<path fill-rule="evenodd" clip-rule="evenodd" d="M55.3217 59.456C55.303 59.4998 55.3217 59.5498 55.3652 59.5748C55.4088 59.5935 55.4585 59.5748 55.4834 59.531C56.535 57.2498 56.4541 53.8123 56.3856 50.6998C56.3172 47.6498 56.2488 44.9061 57.2505 43.8936C57.2879 43.8623 57.2879 43.7998 57.2505 43.7686C57.2194 43.7373 57.1634 43.7373 57.1261 43.7686C56.0745 44.8373 56.1368 47.6185 56.2052 50.706C56.2736 53.7935 56.3545 57.206 55.3217 59.456Z" fill="#C8C7C4"/>
<path fill-rule="evenodd" clip-rule="evenodd" d="M24.9386 41.3001C24.9759 41.2688 24.9822 41.2126 24.951 41.1751C24.9199 41.1376 24.8639 41.1313 24.8266 41.1626C24.7022 41.2688 24.5964 41.3751 24.4968 41.4876C24.391 41.6001 24.3039 41.7188 24.223 41.8313C23.5075 42.8751 23.6319 44.0751 24.223 45.2126C24.8079 46.3376 25.8471 47.3939 26.9671 48.1751L26.9733 48.1814C27.0168 48.2126 27.0666 48.2001 27.0977 48.1564C27.1288 48.1126 27.1164 48.0626 27.0728 48.0314L27.0666 48.0251C25.9653 47.2626 24.951 46.2251 24.3786 45.1251C23.8186 44.0439 23.6942 42.9063 24.3724 41.9251C24.447 41.8126 24.5342 41.7063 24.6337 41.6001C24.7146 41.5001 24.8204 41.4001 24.9386 41.3001Z" fill="#C8C7C4"/>
<path fill-rule="evenodd" clip-rule="evenodd" d="M55.0664 43.0125C53.2246 42.9938 49.5162 42.9688 49.6531 41.0562C49.6967 40.4875 49.8833 39.875 50.5304 39.7687C51.2024 39.6562 52.4904 39.5812 53.486 39.625C54.7366 39.6812 54.9731 39.925 55.6202 40.925C56.1553 41.7437 56.4104 42.725 55.0664 43.0125Z" fill="#E4E2DE"/>
<path fill-rule="evenodd" clip-rule="evenodd" d="M49.6594 40.9938C49.7092 40.4438 49.9083 39.875 50.5305 39.7751C51.2025 39.6626 52.4905 39.5876 53.4861 39.6313C54.7368 39.6876 54.9732 39.9313 55.6203 40.9313L55.6639 41H49.6594V40.9938Z" fill="#FAF9F4"/>
<path fill-rule="evenodd" clip-rule="evenodd" d="M38.634 42.6749C38.6589 42.6311 38.6464 42.5749 38.6029 42.5499C38.5593 42.5249 38.5033 42.5374 38.4784 42.5811C37.3024 44.5374 37.6259 48.7311 37.9433 52.8436C38.1424 55.4311 38.3415 57.9936 38.1548 59.9249C38.1486 59.9748 38.186 60.0186 38.2357 60.0249C38.2855 60.0311 38.3291 59.9936 38.3353 59.9436C38.5157 57.9936 38.3228 55.4249 38.1237 52.8311C37.8064 48.7436 37.489 44.5811 38.634 42.6749Z" fill="#C8C7C4"/>
<path fill-rule="evenodd" clip-rule="evenodd" d="M82.9551 56.8875L78.3506 56.1938C77.5853 56.0813 76.2413 59.0563 77.2804 59.0563H81.7417C82.6128 59.0563 83.6395 57.0375 82.9551 56.8875Z" fill="#152F4E"/>
<path fill-rule="evenodd" clip-rule="evenodd" d="M17.2169 67.9625C16.6694 67.9625 16.6383 67.0625 17.2169 67.0625H94.6276C95.2125 67.0625 95.2125 67.9625 94.6276 67.9625H17.2169ZM14.8027 67.9625H10.1298C9.54494 67.9625 9.54494 67.0625 10.1298 67.0625H14.8027C15.4374 67.0625 15.4685 67.9625 14.8027 67.9625ZM87.136 69.7563C86.5636 69.7563 86.5263 68.8563 87.136 68.8563H91.1121C91.6969 68.8563 91.6969 69.7563 91.1121 69.7563H87.136ZM84.6783 69.7563H14.6534C14.0685 69.7563 14.0685 68.8563 14.6534 68.8563H84.6783C85.2818 68.8625 85.2569 69.7563 84.6783 69.7563Z" fill="#152F4E"/>
<path d="M8.71118 14.1875L18.9094 11.4875L25.0818 12.8375V67.3813H8.71118V14.1875Z" fill="#6CDDBB"/>
<path opacity="0.5" d="M18.5051 11.5938L18.9096 11.4875L19.314 11.575V67.3813H18.5051V11.5938Z" fill="white"/>
<path opacity="0.5" d="M8.71118 14.1875L9.51385 13.9688V67.3812H8.71118V14.1875Z" fill="white"/>
<path d="M9.65074 67.9686H24.5405L25.0756 67.3874L8.71118 67.3811L9.65074 67.9686Z" fill="#384D5E"/>
<path opacity="0.5" d="M11.5361 48.0939L15.201 47.9314V48.3501L11.5361 48.5064V48.0939Z" fill="white"/>
<path d="M11.5361 41.3877L15.201 41.1064V47.9314L11.5361 48.0939V41.3877Z" fill="#384D5E"/>
<path d="M11.5361 41.3877L13.353 44.6314L11.5361 48.0939V41.3877Z" fill="#213340"/>
<path d="M13.353 44.6314L11.5361 41.3877L15.201 41.1064V44.5189L13.353 44.6314Z" fill="#0E1B22"/>
<path d="M9.96167 29.0874L16.8497 28.1499V40.1311L9.96167 40.6874V29.0874Z" fill="#516779"/>
<path opacity="0.5" d="M9.96167 40.6874L16.8497 40.1311V40.5561L9.96167 41.0999V40.6874Z" fill="white"/>
<path d="M12.6372 31.5499L16.8497 31.0312V28.1499L9.96167 29.0874L12.6372 31.5499Z" fill="#0E1B22"/>
<path d="M9.96167 29.0874L12.6372 31.5499L9.96167 40.6874V29.0874Z" fill="#384D5E"/>
<path d="M13.291 32.3999L16.8501 31.9749V37.2811L11.7168 37.7624L13.291 32.3999Z" fill="#0E1B22"/>
<path d="M13.8321 38.5873L13.1228 38.6498L13.3406 37.9124L14.0499 37.8499L13.8321 38.5873Z" fill="#0E1B22"/>
<path d="M12.9548 38.6624L12.2517 38.7249L12.4695 37.9936L13.1726 37.9312L12.9548 38.6624Z" fill="#0E1B22"/>
<path d="M12.0836 38.7435L11.3867 38.806L11.5983 38.0747L12.3014 38.0122L12.0836 38.7435Z" fill="#0E1B22"/>
<path d="M13.5398 39.4997L12.8367 39.556L13.0544 38.8247L13.7576 38.7622L13.5398 39.4997Z" fill="#0E1B22"/>
<path d="M12.6687 39.5749L11.9656 39.6311L12.1834 38.8999L12.8865 38.8374L12.6687 39.5749Z" fill="#0E1B22"/>
<path d="M11.8036 39.6497L11.1067 39.706L11.3182 38.981L12.0151 38.9185L11.8036 39.6497Z" fill="#0E1B22"/>
<path d="M13.7264 36.0247L14.3984 33.7872C14.442 33.6435 14.5913 33.5185 14.7282 33.4997L15.8109 33.3747C15.954 33.356 16.0349 33.4622 15.9913 33.606L15.3131 35.856C15.2695 35.9997 15.1202 36.1247 14.9771 36.1372L13.9007 36.2435C13.7638 36.2685 13.6829 36.1685 13.7264 36.0247ZM14.6784 33.681C14.6349 33.6872 14.5913 33.7247 14.5789 33.7685L13.9069 36.006C13.8944 36.0497 13.9193 36.081 13.9629 36.0747L15.0393 35.9685C15.0829 35.9622 15.1264 35.9247 15.1389 35.881L15.8171 33.631C15.8295 33.5872 15.8047 33.556 15.7611 33.5622L14.6784 33.681Z" fill="#80C185"/>
<path d="M14.075 35.9122L15.0083 35.8185L15.1265 35.4185L14.1932 35.5122L14.075 35.9122Z" fill="#80C185"/>
<path d="M14.2427 35.356L15.176 35.256L15.3005 34.856L14.3609 34.956L14.2427 35.356Z" fill="#80C185"/>
<path d="M14.4111 34.7935L15.3445 34.6935L15.4689 34.2935L14.5294 34.3935L14.4111 34.7935Z" fill="#80C185"/>
<path d="M14.5789 34.2372L15.5184 34.131L15.6366 33.731L14.6971 33.8372L14.5789 34.2372Z" fill="#80C185"/>
<path d="M14.8961 33.481C14.8649 33.581 14.9209 33.656 15.0205 33.6435L15.4063 33.5997C15.5058 33.5872 15.6116 33.4997 15.6427 33.3935L15.6801 33.2747C15.7112 33.1747 15.6552 33.0997 15.5556 33.1122L15.1698 33.156C15.0703 33.1685 14.9645 33.256 14.9334 33.3622L14.8961 33.481Z" fill="#80C185"/>
<path d="M14.9831 38.1124C14.9396 38.2936 15.0391 38.4562 15.2071 38.4812C15.3751 38.5062 15.5431 38.3749 15.5867 38.1936C15.6302 38.0124 15.5307 37.8436 15.3627 37.8249C15.1947 37.8061 15.0205 37.9311 14.9831 38.1124Z" fill="#F3932A"/>
<path d="M15.7859 38.0375C15.7423 38.2188 15.8419 38.3875 16.0099 38.4063C16.1779 38.4313 16.3521 38.3 16.3956 38.1188C16.4392 37.9375 16.3396 37.7688 16.1716 37.7438C15.9974 37.7313 15.8294 37.8563 15.7859 38.0375Z" fill="#7DBC52"/>
<path opacity="0.2" d="M16.8497 28.1499L9.96167 29.0874L11.3928 35.8062L16.8497 35.2374V28.1499Z" fill="#010101"/>
<path opacity="0.2" d="M25.0819 12.8375L18.9094 11.4875V67.3813H25.0819V12.8375Z" fill="#220B0C"/>
<path d="M13.7573 42.9061V60.8749C13.7573 63.2999 15.7173 65.2686 18.1315 65.2686C20.2658 65.2686 21.9955 63.5311 21.9955 61.3874V31.9749" stroke="#0E1B22" stroke-miterlimit="10" stroke-linecap="round"/>
<path d="M22.7483 32.3H21.3234V30.4875L20.3279 29.075L21.7839 27.125L22.7483 29.2188V32.3Z" fill="#213340"/>
<path opacity="0.5" d="M22.3933 29.7V32.3H22.748V29.2625L22.3933 29.7Z" fill="white"/>
<path d="M21.3234 30.4875V32.3H21.6719V30.05L20.8879 28.325L20.3279 29.075L21.3234 30.4875Z" fill="#010101"/>
<path d="M23.1656 35.1062H20.7451V36.2562H23.1656V35.1062Z" fill="#516779"/>
</g>
<defs>
<clipPath id="clip0_1_3041">
<rect width="92.0764" height="63.5062" fill="white" transform="translate(8.71118 6.25)"/>
</clipPath>
</defs>
</svg>
