<svg width="112" height="80" viewBox="0 0 112 80" fill="none" xmlns="http://www.w3.org/2000/svg">
<g clip-path="url(#clip0_1_3148)">
<path fill-rule="evenodd" clip-rule="evenodd" d="M84.2788 64.7625C84.1606 64.9625 84.229 65.225 84.4343 65.3437C84.6335 65.4625 84.8948 65.3937 85.013 65.1875L94.9747 47.8625C95.093 47.6625 95.0245 47.4 94.8192 47.2812C94.6201 47.1625 94.3587 47.2312 94.2405 47.4375L84.2788 64.7625Z" fill="#6B7192"/>
<path fill-rule="evenodd" clip-rule="evenodd" d="M75.1326 63.6937C74.4295 63.6937 73.8633 64.2625 73.8633 64.9688C73.8633 65.675 74.4357 66.2438 75.1326 66.2438H84.6464C85.3495 66.2438 85.9157 65.675 85.9157 64.9688C85.9157 64.4625 85.6233 64.025 85.2002 63.8187L76.8811 59H73.9504C73.7326 59.575 73.9504 60.2375 74.498 60.5562L79.9113 63.6937H75.1326Z" fill="#43AF8B"/>
<path fill-rule="evenodd" clip-rule="evenodd" d="M75.1328 64.125C75.5995 64.125 75.9791 64.5062 75.9791 64.975C75.9791 65.4437 75.5995 65.825 75.1328 65.825C74.6662 65.825 74.2866 65.4437 74.2866 64.975C74.2866 64.5 74.6662 64.125 75.1328 64.125Z" fill="#152F4E"/>
<path fill-rule="evenodd" clip-rule="evenodd" d="M84.6463 64.125C85.1129 64.125 85.4925 64.5062 85.4925 64.975C85.4925 65.4437 85.1129 65.825 84.6463 65.825C84.1796 65.825 83.8 65.4437 83.8 64.975C83.8 64.5 84.1796 64.125 84.6463 64.125Z" fill="#152F4E"/>
<path fill-rule="evenodd" clip-rule="evenodd" d="M62.5393 64.7625C62.4211 64.9625 62.4895 65.225 62.6948 65.3437C62.894 65.4625 63.1553 65.3937 63.2735 65.1875L73.2352 47.8625C73.3535 47.6625 73.285 47.4 73.0797 47.2812C72.8806 47.1625 72.6192 47.2312 72.501 47.4375L62.5393 64.7625Z" fill="#6B7192"/>
<path fill-rule="evenodd" clip-rule="evenodd" d="M53.3865 63.6937C52.6834 63.6937 52.1172 64.2625 52.1172 64.9688C52.1172 65.675 52.6834 66.2438 53.3865 66.2438H62.9004C63.6035 66.2438 64.1697 65.675 64.1697 64.9688C64.1697 64.4625 63.8773 64.025 63.4541 63.8187L55.1412 59H52.2043C51.9865 59.575 52.2043 60.2375 52.7519 60.5562L58.1652 63.6937H53.3865Z" fill="#43AF8B"/>
<path fill-rule="evenodd" clip-rule="evenodd" d="M53.3863 64.125C53.8529 64.125 54.2325 64.5062 54.2325 64.975C54.2325 65.4437 53.8529 65.825 53.3863 65.825C52.9196 65.825 52.54 65.4437 52.54 64.975C52.54 64.5 52.9196 64.125 53.3863 64.125Z" fill="#152F4E"/>
<path fill-rule="evenodd" clip-rule="evenodd" d="M62.9002 64.125C63.3668 64.125 63.7464 64.5062 63.7464 64.975C63.7464 65.4437 63.3668 65.825 62.9002 65.825C62.4335 65.825 62.054 65.4437 62.054 64.975C62.054 64.5 62.4335 64.125 62.9002 64.125Z" fill="#152F4E"/>
<path fill-rule="evenodd" clip-rule="evenodd" d="M9.04691 67.6563C8.60513 67.6563 8.60513 66.6001 9.04691 66.6001H91.4976C91.9331 66.6001 91.9082 67.6563 91.4976 67.6563H9.04691ZM93.3207 66.6001H96.8487C97.2905 66.6001 97.2905 67.6563 96.8487 67.6563H93.3207C92.8167 67.6563 92.8353 66.6001 93.3207 66.6001ZM16.1402 69.7751C15.6985 69.7751 15.6985 68.7188 16.1402 68.7188H19.1456C19.606 68.7188 19.5749 69.7751 19.1456 69.7751H16.1402ZM20.9998 68.7188H93.4265C93.8682 68.7188 93.8682 69.7751 93.4265 69.7751H20.9998C20.5642 69.7751 20.5456 68.7188 20.9998 68.7188Z" fill="#152F4E"/>
<path fill-rule="evenodd" clip-rule="evenodd" d="M59.6587 56.075H56.4294C55.9005 56.075 55.4712 56.5062 55.4712 57.0375V61.3375C55.4712 61.8687 55.9005 62.3 56.4294 62.3H59.6587C60.1876 62.3 60.6169 61.8687 60.6169 61.3375V57.0375C60.6169 56.5062 60.1876 56.075 59.6587 56.075ZM40.9983 56.075H37.7689C37.2401 56.075 36.8107 56.5062 36.8107 57.0375V61.3375C36.8107 61.8687 37.2401 62.3 37.7689 62.3H40.9983C41.5272 62.3 41.9565 61.8687 41.9565 61.3375V57.0375C41.9565 56.5062 41.5272 56.075 40.9983 56.075ZM81.6916 56.075H78.4623C77.9334 56.075 77.5041 56.5062 77.5041 57.0375V61.3375C77.5041 61.8687 77.9334 62.3 78.4623 62.3H81.6916C82.2143 62.3 82.6498 61.8687 82.6498 61.3375V57.0375C82.6498 56.5062 82.2205 56.075 81.6916 56.075ZM18.9654 56.075H15.7361C15.2072 56.075 14.7778 56.5062 14.7778 57.0375V61.3375C14.7778 61.8687 15.2072 62.3 15.7361 62.3H18.9654C19.4943 62.3 19.9236 61.8687 19.9236 61.3375V57.0375C19.9236 56.5062 19.4881 56.075 18.9654 56.075Z" fill="#152F4E"/>
<path fill-rule="evenodd" clip-rule="evenodd" d="M55.5083 59.0002C55.3652 58.294 55.2905 57.5502 55.2905 56.7877C55.2905 51.769 59.3225 47.7315 62.5768 47.7065C65.8248 47.6815 65.4203 48.069 66.5652 49.0065C68.7305 49.594 72.327 54.7565 72.327 56.844C72.327 58.9315 72.327 56.919 72.327 56.9565C72.7252 57.044 73.0301 57.4002 73.0301 57.8252V59.0002H55.5083Z" fill="#152F4E"/>
<path fill-rule="evenodd" clip-rule="evenodd" d="M62.4708 57.6565C61.917 57.6565 61.469 57.094 61.469 56.4003C61.469 55.7065 61.917 55.144 62.4708 55.144C63.0245 55.144 63.4725 55.7065 63.4725 56.4003C63.4725 57.094 63.0245 57.6565 62.4708 57.6565Z" fill="#6B7192"/>
<path fill-rule="evenodd" clip-rule="evenodd" d="M64.0326 56.0062C63.8148 56.0062 63.6406 55.8312 63.6406 55.6125C63.6406 55.3937 63.8148 55.2188 64.0326 55.2188H66.8139C67.0317 55.2188 67.2059 55.3937 67.2059 55.6125C67.2059 55.8312 67.0317 56.0062 66.8139 56.0062H64.0326Z" fill="#6B7192"/>
<path fill-rule="evenodd" clip-rule="evenodd" d="M60.1629 59.0003C59.4225 55.294 60.586 50.8378 63.9024 48.7065C64.0766 48.744 63.9895 48.719 64.1575 48.769C60.9967 50.9565 59.7585 55.3628 60.4864 59.0003H60.1629Z" fill="#6B7192"/>
<path fill-rule="evenodd" clip-rule="evenodd" d="M62.4707 57.0753C62.1721 57.0753 61.9294 56.7691 61.9294 56.4003C61.9294 56.0253 62.1721 55.7253 62.4707 55.7253C62.7694 55.7253 63.012 56.0316 63.012 56.4003C63.012 56.7753 62.7694 57.0753 62.4707 57.0753Z" fill="#152F4E"/>
<path fill-rule="evenodd" clip-rule="evenodd" d="M15.0327 59.0003C14.8896 58.294 14.8149 57.5503 14.8149 56.7878C14.8149 51.769 18.0754 47.7065 22.1012 47.7065C23.5696 47.7065 24.9385 48.2503 26.0834 49.1878C28.2487 49.7753 31.8514 54.8253 31.8514 56.844C31.8514 58.994 31.8514 56.919 31.8514 56.9565C32.2496 57.044 32.5545 57.4003 32.5545 57.8253V59.0003H15.0327Z" fill="#152F4E"/>
<path fill-rule="evenodd" clip-rule="evenodd" d="M21.9957 57.6565C21.4419 57.6565 20.9939 57.094 20.9939 56.4003C20.9939 55.7065 21.4419 55.144 21.9957 55.144C22.5495 55.144 22.9975 55.7065 22.9975 56.4003C22.9975 57.094 22.5432 57.6565 21.9957 57.6565Z" fill="#6B7192"/>
<path fill-rule="evenodd" clip-rule="evenodd" d="M23.557 56.0062C23.3393 56.0062 23.165 55.8312 23.165 55.6125C23.165 55.3937 23.3393 55.2188 23.557 55.2188H26.3384C26.5561 55.2188 26.7304 55.3937 26.7304 55.6125C26.7304 55.8312 26.5561 56.0062 26.3384 56.0062H23.557Z" fill="#6B7192"/>
<path fill-rule="evenodd" clip-rule="evenodd" d="M19.6871 59.0003C18.9466 55.294 20.1102 50.8378 23.4266 48.7065C23.6008 48.744 23.5137 48.719 23.6817 48.769C20.5208 50.9565 19.2826 55.3628 20.0106 59.0003H19.6871Z" fill="#6B7192"/>
<path fill-rule="evenodd" clip-rule="evenodd" d="M21.9952 57.0751C21.6965 57.0751 21.4539 56.7688 21.4539 56.4001C21.4539 56.0251 21.6965 55.7251 21.9952 55.7251C22.2939 55.7251 22.5365 56.0313 22.5365 56.4001C22.5303 56.7751 22.2939 57.0751 21.9952 57.0751Z" fill="#152F4E"/>
<path fill-rule="evenodd" clip-rule="evenodd" d="M97.9252 58.1189C97.8195 57.8314 97.6826 57.4626 97.695 57.0001C97.7074 56.3689 97.863 56.3626 97.9128 55.6751H96.5812C96.4692 55.6751 96.3883 55.5876 96.3883 55.4814V53.8251C96.3883 53.7314 96.5003 53.5376 96.5377 53.5189L98.2052 52.9001C98.2301 51.5814 97.8132 50.0251 97.3714 48.5751C97.1039 47.7001 95.9652 44.3814 94.111 43.6001C90.695 42.1564 85.5057 39.8126 79.5572 38.7064C72.1154 34.6251 70.8959 33.7376 63.2239 30.8251C58.8995 28.3314 33.6061 28.8314 21.479 30.2501C19.8052 30.3501 20.3963 32.2064 20.5519 33.1564L17.0301 37.7251L14.5972 38.6376C14.2675 38.7626 14.0248 39.0001 13.9003 39.2814L12.7243 41.4189C12.4506 42.0064 12.7181 42.3814 13.0292 42.8564C12.8239 43.3314 11.8781 45.9189 11.8035 47.9814C10.3972 49.0814 11.2123 52.7564 12.1021 53.6564L14.8088 56.4626C14.9706 51.5939 18.1688 47.7126 22.0888 47.7126C26.1146 47.7126 29.3812 51.8001 29.3812 56.8501C29.3812 57.5939 29.9163 58.9689 30.8995 59.0064H55.5083L55.5332 56.8501C55.5332 51.8064 58.7999 47.7126 62.8257 47.7126C66.8515 47.7126 70.1181 51.8001 70.1181 56.8501C70.1181 57.5939 70.2923 59.0189 71.2319 59.0064H96.8114C98.6843 59.0001 98.1554 58.7501 97.9252 58.1189Z" fill="#E3E1DD"/>
<path fill-rule="evenodd" clip-rule="evenodd" d="M78.9912 59H95.6294L93.7254 51.8625C93.5201 51.0812 93.3085 50.85 92.4996 50.85L85.1823 50.8438C84.3797 50.8438 83.9254 51.3312 83.4899 52.0062L78.9912 59Z" fill="#152F4E"/>
<path fill-rule="evenodd" clip-rule="evenodd" d="M79.2334 59H94.6707L93.1214 53.1875C92.9161 52.4062 92.7045 52.1749 91.8956 52.1749L84.5783 52.1687C83.7756 52.1687 83.3214 52.6562 82.8858 53.3312L79.2334 59Z" fill="#6B7192"/>
<path fill-rule="evenodd" clip-rule="evenodd" d="M64.7236 31.4313C64.2508 31.2438 63.753 31.0438 63.2241 30.8313C56.1618 27.1938 29.5991 29.2188 21.4791 30.2501C20.72 30.2938 20.4276 30.7001 20.3467 31.2126C37.0347 30.1376 52.5281 29.4876 64.7236 31.4313Z" fill="#F9F8F3"/>
<path fill-rule="evenodd" clip-rule="evenodd" d="M95.7473 44.925C95.4113 44.3375 95.1251 43.9438 94.8202 43.575C92.7233 41.025 82.6931 39.2875 79.5509 38.7C73.3784 38.025 66.0113 38.6938 58.2896 39.7688C61.9047 40.2 68.0398 41.3938 72.078 43.0875L81.4487 45L95.7473 44.925Z" fill="#F9F8F3"/>
<path fill-rule="evenodd" clip-rule="evenodd" d="M95.94 44.7627H80.061V45.6877C80.005 45.6627 79.949 45.6439 79.893 45.6314L72.3827 42.6189C72.1214 42.5627 71.8352 42.6439 71.6423 42.8502C71.2192 43.2564 68.7925 44.5814 69.7694 45.3252L74.3552 49.8564C74.4921 49.9752 74.6725 50.0502 74.8716 50.0502L78.9845 49.6064C79.1152 49.6064 79.2396 49.5752 79.3578 49.5127L81.8156 47.7252C81.8841 47.6877 82.1516 47.5814 82.4378 47.5814H94.7205C94.9943 47.5814 95.2618 47.7439 95.3116 47.8002L96.556 49.5127C96.6183 49.5752 96.6805 49.6002 96.7489 49.6002L97.8316 50.1314C97.1845 48.0502 96.7863 46.3939 95.94 44.7627Z" fill="#F9F8F3"/>
<path fill-rule="evenodd" clip-rule="evenodd" d="M97.21 48.15C96.8429 46.45 96.1025 44.9688 94.8394 43.5625L94.1798 43.9563C89.1398 43.9563 84.8153 43.9563 79.6322 43.9563L72.1033 42.3563C71.8544 42.3 71.5806 42.375 71.4002 42.575C71.0019 42.9563 69.1166 44.2125 70.0437 44.925L74.3868 47.9625C74.5113 48.075 74.6855 48.15 74.8784 48.15H78.7797C78.898 48.15 79.0224 48.1188 79.1344 48.0625L81.4615 46.7875C86.1407 46.7875 90.0047 46.7875 94.5096 46.7875L95.754 48.0625C95.8163 48.125 95.8785 48.15 95.9469 48.15H97.21Z" fill="#152F4E"/>
<path fill-rule="evenodd" clip-rule="evenodd" d="M79.5507 38.6939C74.6725 35.6064 68.6245 32.4564 63.2236 30.7626C57.3934 29.6751 41.0538 29.4564 31.0734 30.7689C26.8983 31.3126 17.5463 36.6064 24.82 37.8564C25.2867 37.9376 25.716 38.0001 26.3258 38.0501L50.3 40.0001C51.5507 40.2689 53.0752 40.2751 54.1454 40.2876C54.164 40.2814 54.1889 40.2751 54.2076 40.2689C55.844 40.2251 57.4867 39.9501 59.148 39.6501C63.5907 38.8439 75.4814 37.9814 79.5507 38.6939Z" fill="#152F4E"/>
<path fill-rule="evenodd" clip-rule="evenodd" d="M79.0097 38.3626C74.5483 35.5626 69.191 32.7001 64.2567 31.1626C61.463 30.6438 55.4834 30.2876 49.0932 30.2563C51.0221 32.7563 56.7901 38.1126 59.0674 39.4188C59.4656 39.3501 59.8701 39.2813 60.2745 39.2126C64.3314 38.4813 75.2888 37.7188 79.0097 38.3626ZM47.0647 30.2563C44.2212 30.2751 41.3527 30.3626 38.702 30.5313C37.9492 33.1251 37.5696 35.7688 37.4514 38.4376L48.6203 39.2751C47.9981 38.7376 47.8612 37.9001 48.6701 36.6063C48.8069 36.2876 51.5136 36.2313 52.6398 36.4063C51.0718 34.1751 48.6514 31.6501 47.0647 30.2563ZM37.3083 30.6251C35.6718 30.7501 34.1411 30.9126 32.7785 31.1126C28.6469 31.7188 19.2078 37.0688 28.4354 37.7563L35.2363 38.2688C35.6345 35.6688 36.2318 33.1063 37.3083 30.6251Z" fill="#82919A"/>
<path fill-rule="evenodd" clip-rule="evenodd" d="M24.7205 36.6189C25.1436 37.1689 26.276 37.6001 28.4351 37.7626L35.236 38.2752C35.2733 38.0377 35.3107 37.7939 35.3542 37.5564C31.7453 37.4126 28.1676 37.1439 24.7205 36.6189ZM37.4511 38.4377L48.62 39.2752C48.1845 38.9002 47.9916 38.3814 48.1782 37.6689C44.6813 37.6814 41.0849 37.7002 37.4947 37.6126C37.476 37.8877 37.4636 38.1627 37.4511 38.4377ZM59.0609 39.4189C59.4591 39.3502 59.8636 39.2814 60.268 39.2127C62.2342 38.8627 64.2751 38.6877 66.2662 38.5127C63.3791 38.0439 60.1622 37.8314 56.7525 37.7377C57.6671 38.4814 58.476 39.0814 59.0609 39.4189Z" fill="#A3ABB0"/>
<path fill-rule="evenodd" clip-rule="evenodd" d="M79.0098 38.3626C74.5484 35.5626 69.1911 32.7001 64.2569 31.1626C61.4631 30.6438 55.4835 30.2876 49.0933 30.2563C49.8089 31.1813 51.0533 32.5063 52.4471 33.8626C60.9467 32.8001 66.0115 33.6876 73.5964 38.1313C75.8364 38.0938 77.8027 38.1563 79.0098 38.3626ZM47.0649 30.2563C45.8515 30.2626 44.6258 30.2813 43.4249 30.3188C41.8071 30.3626 40.2204 30.4313 38.7022 30.5313C38.472 31.3188 38.2791 32.1126 38.1173 32.9063C42.2987 32.8126 46.6169 33.0126 50.456 33.6751C49.2675 32.3313 48.0169 31.0938 47.0649 30.2563ZM37.3084 30.6251C35.672 30.7501 34.1413 30.9126 32.7787 31.1126C30.9244 31.3813 27.9938 32.6126 26.1707 33.9438C29.0827 33.4813 32.6667 33.1126 36.4373 32.9626C36.6862 32.1751 36.9724 31.3938 37.3084 30.6251Z" fill="#C7D2D8"/>
<path fill-rule="evenodd" clip-rule="evenodd" d="M96.5377 53.5125L97.8257 53.0375C97.8879 53.0062 97.9937 53.3375 98.0062 53.45C98.0311 53.6687 97.9626 55.275 97.6639 55.675H96.5813C96.2577 55.675 96.2951 53.6375 96.5377 53.5125Z" fill="#152F4E"/>
<path fill-rule="evenodd" clip-rule="evenodd" d="M82.0334 59.0001H94.1606L93.781 56.9251C93.613 56.0126 93.3641 55.7626 92.5552 55.7626L84.7961 55.7563C83.9934 55.7563 83.5454 56.3126 83.1037 57.0939L82.0334 59.0001Z" fill="#F9F8F3"/>
<path fill-rule="evenodd" clip-rule="evenodd" d="M79.3333 44.5627L73.0489 43.4127C72.8373 43.3752 72.6133 43.4315 72.464 43.569L71.4436 44.369C71.1698 44.5815 71.1511 44.8815 71.4871 45.1002L74.9591 47.4377C75.0649 47.519 75.208 47.569 75.3698 47.569H78.6302C78.7298 47.569 78.8356 47.5502 78.9289 47.5065L80.4347 46.594C80.7458 46.444 80.8267 46.1065 80.5964 45.8752L79.688 44.7502C79.5947 44.6565 79.4764 44.594 79.3333 44.5627Z" fill="#C7D2D8"/>
<path fill-rule="evenodd" clip-rule="evenodd" d="M71.2319 44.7566C71.2257 44.8816 71.3501 45.0191 71.4808 45.1003L74.7226 47.2816C74.8221 47.3566 74.9341 47.3441 75.0835 47.3441H78.1261C78.2195 47.3441 78.319 47.3253 78.4061 47.2816C78.8106 47.0316 79.5884 46.6316 79.9244 46.3566C77.5164 45.3191 73.8639 44.9003 71.2319 44.7566Z" fill="#82919A"/>
<path fill-rule="evenodd" clip-rule="evenodd" d="M97.0606 47.5687C97.6704 47.5687 96.0028 44.0437 95.1565 44.2374L94.7521 44.5624C94.6836 44.5874 94.6276 44.6562 94.5903 44.7437C94.5032 45.2374 94.6152 46.2999 94.9076 46.5874L95.8285 47.4999C95.8721 47.5437 95.9219 47.5624 95.9717 47.5624L97.0606 47.5687Z" fill="#C7D2D8"/>
<path fill-rule="evenodd" clip-rule="evenodd" d="M96.9107 47.3063C96.892 46.9938 96.7302 46.5188 96.4565 45.9751L95.0253 46.1876C94.9258 46.2001 94.9258 46.3001 94.9756 46.3501L95.9276 47.2688C95.9836 47.2938 96.0396 47.3063 96.1018 47.3063H96.9107Z" fill="#82919A"/>
<path fill-rule="evenodd" clip-rule="evenodd" d="M94.1605 59H79.6067C79.6067 59.6188 80.1107 60.125 80.7267 60.125H93.0405C93.6565 60.1313 94.1605 59.625 94.1605 59Z" fill="#6B7192"/>
<path fill-rule="evenodd" clip-rule="evenodd" d="M78.3132 46.8562C78.027 46.8562 77.8092 46.675 77.6724 46.4312L77.1621 46.35V46.3562C77.3364 46.8687 77.7284 47.3 78.3132 47.3C78.7737 47.3 79.0661 47.0437 79.2092 46.6812L78.755 46.6062C78.6679 46.7562 78.5186 46.8562 78.3132 46.8562ZM77.523 45.9562C77.5168 45.9062 77.5106 45.8562 77.5106 45.8C77.5044 45.6687 77.523 45.5375 77.5604 45.4187C77.6288 45.1875 77.7968 45.0187 78.0644 45.0187C78.4252 45.0187 78.6804 45.3125 78.7986 45.6625C78.8421 45.7937 78.867 45.9375 78.8732 46.0687C78.8732 46.1 78.8732 46.1375 78.8732 46.1687L79.3088 46.2375C79.315 46.175 79.315 46.1125 79.315 46.05C79.3088 45.8687 79.2777 45.6875 79.2155 45.5125C79.0412 44.9937 78.643 44.5687 78.0644 44.5687C77.5666 44.5687 77.2679 44.8687 77.1435 45.2812C77.0937 45.4437 77.0688 45.625 77.075 45.8062C77.075 45.8312 77.075 45.85 77.0812 45.875L77.523 45.9562ZM75.731 46.8562C75.2706 46.8562 74.947 46.4875 74.7977 46.05C74.7852 46.0187 74.779 45.9875 74.7666 45.9562L74.2999 45.8812C74.3186 45.9875 74.3435 46.0875 74.3808 46.1875C74.5799 46.7937 75.0466 47.3 75.731 47.3C76.3097 47.3 76.6581 46.95 76.8075 46.475C76.8261 46.4187 76.8386 46.3562 76.851 46.2937L76.4155 46.225C76.4092 46.2625 76.3968 46.3062 76.3844 46.3437C76.291 46.6375 76.0795 46.8562 75.731 46.8562ZM74.7044 45.4937C74.7044 45.3437 74.723 45.1937 74.7666 45.0625C74.8599 44.7625 75.0715 44.5437 75.4199 44.5437C75.8804 44.5437 76.2039 44.9125 76.3532 45.3562C76.3968 45.4937 76.4279 45.6375 76.4404 45.775L76.8821 45.85C76.8759 45.6375 76.8386 45.4187 76.7701 45.2187C76.5648 44.6125 76.0981 44.1062 75.4199 44.1062C74.8475 44.1062 74.4928 44.4562 74.3497 44.9312C74.2999 45.0875 74.275 45.25 74.2688 45.425L74.7044 45.4937Z" fill="white"/>
<path fill-rule="evenodd" clip-rule="evenodd" d="M69.3154 47.5064C70.3981 48.9189 71.1261 50.7439 71.3501 52.9189C71.4808 54.1627 71.879 54.3814 73.0177 54.3439H79.0781C79.8123 54.3439 80.4968 53.7877 80.9759 53.2314L83.8194 49.9689C84.2363 49.4939 85.3128 49.5439 85.9412 49.5439H93.551C94.0177 49.5439 94.4657 49.5377 94.6461 49.9627C95.399 51.7252 95.8221 53.8064 96.3821 55.4752C96.4194 55.5814 96.463 55.6689 96.575 55.6689H97.9065C97.8568 56.3627 97.7074 56.3502 97.6888 56.9877H97.2719C96.6434 56.9877 96.1083 56.2502 95.9403 55.6377L94.6461 50.8439C94.5279 50.3939 94.0114 49.9814 93.551 49.9814H85.9412C85.3128 49.9814 84.6034 50.3189 84.2612 50.8502L80.9759 55.8814C80.5714 56.4939 79.8123 56.9939 79.0781 56.9939H73.0177C71.879 57.0314 71.4808 56.8127 71.3501 55.5689C70.7777 50.2314 67.2186 46.0752 62.8132 46.0752C58.3954 46.0752 54.6683 50.2377 54.2763 55.6189C54.2017 56.6439 53.9279 57.0002 52.9012 57.0002H31.9946C31.1297 57.0002 30.7128 56.5564 30.607 55.4689C30.0781 50.1752 26.4568 46.0814 22.0826 46.0814C19.1332 46.0814 16.5759 47.9627 14.983 50.7752C14.6097 51.4377 12.3074 51.4939 11.0319 50.1314C10.8514 49.4002 11.2372 48.1252 11.8034 47.8814C12.9794 48.6877 14.6097 48.7877 14.983 48.1314C16.5759 45.3189 19.1332 44.3189 22.0826 44.3189C26.4568 44.3189 30.0781 47.5252 30.607 52.8252C30.719 53.9127 31.1297 54.3564 31.9946 54.3564H52.9012C53.9279 54.3564 54.2017 54.0002 54.2763 52.9752C54.4754 50.2689 55.6266 48.2064 57.0639 46.6064C58.2523 45.2814 60.6541 44.5439 55.9563 43.8752C43.9848 42.1627 25.9466 41.3376 14.591 40.9689C15.1759 40.2564 18.1874 36.1189 19.519 34.4939C18.735 36.6001 21.5163 38.1126 23.8559 38.3189C32.903 39.1126 63.6346 40.1189 69.3154 47.5064Z" fill="#F9F8F3"/>
<path fill-rule="evenodd" clip-rule="evenodd" d="M14.5972 38.6375C14.2675 38.7625 14.0248 39 13.9003 39.2875L12.7243 41.425C12.4506 42.0125 12.7181 42.3875 13.0292 42.8625H14.0995C14.2177 42.8625 14.3483 42.825 14.4728 42.7438L17.4968 40.2125C17.9137 39.9438 18.1066 39.3313 17.895 38.9125L17.0301 37.7563C16.999 37.675 14.8337 38.55 14.5972 38.6375Z" fill="#E74E0F"/>
<path fill-rule="evenodd" clip-rule="evenodd" d="M14.5971 38.6377C14.2673 38.7627 14.0247 39.0002 13.9002 39.2877L13.3589 40.2752L16.4762 40.4502L17.2602 39.7627C17.9509 39.3252 17.4593 38.3064 17.03 37.7314C16.7002 37.8064 14.8584 38.5377 14.5971 38.6377Z" fill="#F7B371"/>
<path fill-rule="evenodd" clip-rule="evenodd" d="M52.8701 56.0751C52.8515 56.1189 52.8701 56.1689 52.9137 56.1939C52.9572 56.2126 53.007 56.1939 53.0319 56.1501C54.0772 53.8751 54.0026 50.4501 53.9279 47.3439C53.8595 44.3064 53.7972 41.5689 54.7928 40.5564C54.8239 40.5189 54.8239 40.4689 54.7928 40.4314C54.7617 40.4001 54.7057 40.4001 54.6683 40.4314C53.6168 41.4939 53.679 44.2689 53.7537 47.3439C53.8221 50.4314 53.903 53.8376 52.8701 56.0751ZM36.2381 39.3439C36.263 39.3001 36.2506 39.2439 36.207 39.2189C36.1634 39.1939 36.1074 39.2064 36.0826 39.2501C34.9128 41.2001 35.2301 45.3814 35.5474 49.4814C35.7466 52.0626 35.9394 54.6189 35.759 56.5439C35.7528 56.5939 35.7901 56.6376 35.8399 56.6439C35.8897 56.6501 35.9332 56.6126 35.9394 56.5626C36.1199 54.6189 35.927 52.0626 35.7279 49.4689C35.4106 45.4001 35.0932 41.2501 36.2381 39.3439ZM22.5865 37.9751C22.6239 37.9439 22.6301 37.8876 22.599 37.8501C22.5679 37.8126 22.5119 37.8064 22.4745 37.8376C22.3563 37.9439 22.2443 38.0501 22.1448 38.1626C22.0452 38.2751 21.9519 38.3876 21.871 38.5064C21.1554 39.5501 21.2799 40.7439 21.871 41.8814C22.4497 43.0001 23.4888 44.0564 24.6025 44.8376L24.6088 44.8439C24.6523 44.8689 24.7021 44.8626 24.7332 44.8189C24.7581 44.7751 24.7519 44.7251 24.7083 44.6939L24.7021 44.6876C23.607 43.9251 22.5928 42.8876 22.0265 41.8001C21.4665 40.7251 21.3483 39.5876 22.0203 38.6126C22.095 38.5001 22.1821 38.3939 22.2754 38.2876C22.3625 38.1751 22.4683 38.0751 22.5865 37.9751Z" fill="#C7C6C3"/>
<path fill-rule="evenodd" clip-rule="evenodd" d="M52.6214 39.6875C50.7796 39.6687 47.0836 39.6437 47.2267 37.7375C47.2703 37.1687 47.4569 36.5625 48.104 36.4562C48.776 36.3437 50.064 36.2687 51.0472 36.3125C52.2916 36.3687 52.5343 36.6125 53.1752 37.6062C53.7041 38.4187 53.9654 39.3937 52.6214 39.6875Z" fill="#E3E1DD"/>
<path fill-rule="evenodd" clip-rule="evenodd" d="M47.2327 37.6689C47.2824 37.1189 47.4816 36.5564 48.1038 36.4501C48.7758 36.3376 50.0638 36.2626 51.0469 36.3064C52.2913 36.3626 52.534 36.6064 53.1749 37.6001L53.2184 37.6626H47.2327V37.6689Z" fill="#F9F8F3"/>
<path fill-rule="evenodd" clip-rule="evenodd" d="M80.4221 53.5125L75.8301 52.8188C75.071 52.7063 73.727 55.675 74.7661 55.675H79.215C80.0799 55.675 81.1066 53.6625 80.4221 53.5125Z" fill="#152F4E"/>
<path fill-rule="evenodd" clip-rule="evenodd" d="M24.1793 64.7626C24.2975 64.9626 24.2291 65.2251 24.0237 65.3439C23.8246 65.4626 23.5633 65.3939 23.4451 65.1876L13.4895 47.8564C13.3713 47.6564 13.4397 47.3939 13.645 47.2751C13.8442 47.1564 14.1055 47.2251 14.2237 47.4314L24.1793 64.7626Z" fill="#6B7192"/>
<path fill-rule="evenodd" clip-rule="evenodd" d="M33.3259 63.6937C34.029 63.6937 34.5952 64.2625 34.5952 64.9688C34.5952 65.675 34.029 66.2438 33.3259 66.2438H23.8121C23.1089 66.2438 22.5427 65.675 22.5427 64.9688C22.5427 64.4625 22.8352 64.025 23.2583 63.8187L31.5774 59H34.5081C34.7259 59.575 34.5081 60.2375 33.9605 60.5562L28.5472 63.6937H33.3259Z" fill="#6CDDBB"/>
<path d="M33.3257 65.825C33.7931 65.825 34.172 65.4444 34.172 64.975C34.172 64.5056 33.7931 64.125 33.3257 64.125C32.8584 64.125 32.4795 64.5056 32.4795 64.975C32.4795 65.4444 32.8584 65.825 33.3257 65.825Z" fill="#152F4E"/>
<path fill-rule="evenodd" clip-rule="evenodd" d="M23.8123 64.125C23.3456 64.125 22.9661 64.5062 22.9661 64.975C22.9661 65.4437 23.3456 65.825 23.8123 65.825C24.279 65.825 24.6585 65.4437 24.6585 64.975C24.6585 64.5 24.279 64.125 23.8123 64.125Z" fill="#152F4E"/>
<path fill-rule="evenodd" clip-rule="evenodd" d="M44.6192 64.7626C44.7374 64.9626 44.669 65.2251 44.4637 65.3439C44.2646 65.4626 44.0032 65.3939 43.885 65.1876L33.9294 47.8564C33.8112 47.6564 33.8796 47.3939 34.085 47.2751C34.2841 47.1564 34.5454 47.2251 34.6637 47.4314L44.6192 64.7626Z" fill="#6B7192"/>
<path fill-rule="evenodd" clip-rule="evenodd" d="M53.7658 63.6937C54.4689 63.6937 55.0351 64.2625 55.0351 64.9688C55.0351 65.675 54.4689 66.2438 53.7658 66.2438H44.252C43.5489 66.2438 42.9827 65.675 42.9827 64.9688C42.9827 64.4625 43.2751 64.025 43.6982 63.8187L52.0173 59H54.948C55.1658 59.575 54.948 60.2375 54.4004 60.5562L48.9871 63.6937H53.7658Z" fill="#6CDDBB"/>
<path d="M53.9603 65.7987C54.4151 65.6908 54.6967 65.233 54.5894 64.7762C54.482 64.3193 54.0262 64.0364 53.5713 64.1443C53.1165 64.2521 52.8349 64.71 52.9423 65.1668C53.0497 65.6237 53.5054 65.9066 53.9603 65.7987Z" fill="#152F4E"/>
<path d="M44.8525 65.5771C45.1829 65.2452 45.1829 64.707 44.8525 64.3751C44.522 64.0431 43.9862 64.0431 43.6557 64.3751C43.3253 64.707 43.3253 65.2452 43.6557 65.5771C43.9862 65.909 44.522 65.909 44.8525 65.5771Z" fill="#152F4E"/>
<path fill-rule="evenodd" clip-rule="evenodd" d="M70.3483 61.3501C70.5848 61.3501 70.7715 61.5376 70.7715 61.7751C70.7715 62.0126 70.5786 62.2001 70.3483 62.2001C70.1119 62.2001 69.9252 62.0126 69.9252 61.7751C69.9252 61.5376 70.1119 61.3501 70.3483 61.3501ZM68.6558 63.0501C68.8923 63.0501 69.0789 63.2376 69.0789 63.4751C69.0789 63.7126 68.8923 63.9001 68.6558 63.9001C68.4193 63.9001 68.2327 63.7126 68.2327 63.4751C68.2327 63.2376 68.4193 63.0501 68.6558 63.0501ZM68.6558 61.3501C68.8923 61.3501 69.0789 61.5376 69.0789 61.7751C69.0789 62.0126 68.8923 62.2001 68.6558 62.2001C68.4193 62.2001 68.2327 62.0126 68.2327 61.7751C68.2327 61.5376 68.4193 61.3501 68.6558 61.3501ZM70.3483 63.0501C70.5848 63.0501 70.7715 63.2376 70.7715 63.4751C70.7715 63.7126 70.5786 63.9001 70.3483 63.9001C70.1119 63.9001 69.9252 63.7126 69.9252 63.4751C69.9252 63.2376 70.1119 63.0501 70.3483 63.0501Z" fill="white"/>
<path fill-rule="evenodd" clip-rule="evenodd" d="M91.5721 61.3501C91.8085 61.3501 91.9952 61.5376 91.9952 61.7751C91.9952 62.0126 91.8085 62.2001 91.5721 62.2001C91.3357 62.2001 91.149 62.0126 91.149 61.7751C91.149 61.5376 91.3419 61.3501 91.5721 61.3501ZM89.8797 63.0501C90.1161 63.0501 90.3028 63.2376 90.3028 63.4751C90.3028 63.7126 90.1161 63.9001 89.8797 63.9001C89.6432 63.9001 89.4565 63.7126 89.4565 63.4751C89.4565 63.2376 89.6494 63.0501 89.8797 63.0501ZM89.8797 61.3501C90.1161 61.3501 90.3028 61.5376 90.3028 61.7751C90.3028 62.0126 90.1161 62.2001 89.8797 62.2001C89.6432 62.2001 89.4565 62.0126 89.4565 61.7751C89.4565 61.5376 89.6494 61.3501 89.8797 61.3501ZM91.5721 63.0501C91.8085 63.0501 91.9952 63.2376 91.9952 63.4751C91.9952 63.7126 91.8085 63.9001 91.5721 63.9001C91.3357 63.9001 91.149 63.7126 91.149 63.4751C91.149 63.2376 91.3419 63.0501 91.5721 63.0501Z" fill="white"/>
<path fill-rule="evenodd" clip-rule="evenodd" d="M62.4956 66.2501H76.8875C77.5719 66.2501 78.1257 65.6939 78.1257 65.0064V60.7064C78.1257 60.0189 77.5719 59.4626 76.8875 59.4626H62.4956C61.8112 59.4626 61.2574 60.0189 61.2574 60.7064V65.0001C61.2512 65.6876 61.8049 66.2501 62.4956 66.2501Z" fill="#6B7192"/>
<path fill-rule="evenodd" clip-rule="evenodd" d="M62.9125 66.2501H76.4582C77.1427 66.2501 77.6964 65.6876 77.6964 65.0064V61.5501C77.6964 60.8626 77.1364 60.3064 76.4582 60.3064H75.556C74.9338 60.3064 74.4173 60.7689 74.3302 61.3689H68.8609C68.7738 60.7689 68.2511 60.3064 67.6351 60.3064H62.9187C62.2342 60.3064 61.6805 60.8689 61.6805 61.5501V65.0001C61.6742 65.6876 62.2342 66.2501 62.9125 66.2501ZM74.3178 61.7876V62.6376H68.8733V61.7876H74.3178ZM74.3178 63.0626V63.9126H68.8733V63.0626H74.3178ZM74.3053 64.3376C74.212 64.9376 73.6956 65.3939 73.0796 65.3939H70.1178C69.5018 65.3939 68.9791 64.9314 68.892 64.3376H74.3053Z" fill="#152F4E"/>
<path fill-rule="evenodd" clip-rule="evenodd" d="M63.3423 59.4503H77.7342C78.4187 59.4503 78.9787 58.894 78.9787 58.2065V53.9066C78.9787 53.2191 78.4249 52.6628 77.7342 52.6628H63.3423C62.6578 52.6628 62.1041 53.2191 62.1041 53.9066V58.2065C62.0978 58.894 62.6516 59.4503 63.3423 59.4503Z" fill="#6B7192"/>
<path fill-rule="evenodd" clip-rule="evenodd" d="M63.7651 59.4503H77.3109C77.9954 59.4503 78.5492 58.8878 78.5492 58.2066V54.7503C78.5492 54.0628 77.9892 53.5066 77.3109 53.5066H76.4025C75.7803 53.5066 75.2638 53.9691 75.1767 54.5691H69.7074C69.6203 53.9691 69.0976 53.5066 68.4816 53.5066H63.7651C63.0807 53.5066 62.5269 54.0691 62.5269 54.7503V58.2066C62.5207 58.8941 63.0807 59.4503 63.7651 59.4503ZM75.1643 54.9941V55.8441H69.7198V54.9941H75.1643ZM75.1643 56.2691V57.1191H69.7198V56.2691H75.1643ZM75.1518 57.5441C75.0585 58.1441 74.542 58.6003 73.926 58.6003H70.9643C70.342 58.6003 69.8256 58.1378 69.7385 57.5441H75.1518Z" fill="#152F4E"/>
<path fill-rule="evenodd" clip-rule="evenodd" d="M62.4956 52.6564H76.8875C77.5719 52.6564 78.1257 52.1001 78.1257 51.4126V47.1126C78.1257 46.4251 77.5719 45.8689 76.8875 45.8689H62.4956C61.8112 45.8689 61.2574 46.4251 61.2574 47.1126V51.4126C61.2512 52.1001 61.8049 52.6564 62.4956 52.6564Z" fill="#6B7192"/>
<path fill-rule="evenodd" clip-rule="evenodd" d="M62.9125 52.6564H76.4582C77.1427 52.6564 77.6964 52.0939 77.6964 51.4126V47.9564C77.6964 47.2689 77.1364 46.7126 76.4582 46.7126H75.556C74.9338 46.7126 74.4173 47.1751 74.3302 47.7751H68.8609C68.7738 47.1751 68.2511 46.7126 67.6351 46.7126H62.9187C62.2342 46.7126 61.6805 47.2751 61.6805 47.9564V51.4126C61.6742 52.0939 62.2342 52.6564 62.9125 52.6564ZM74.3178 48.2001V49.0501H68.8733V48.2001H74.3178ZM74.3178 49.4751V50.3251H68.8733V49.4751H74.3178ZM74.3053 50.7501C74.212 51.3501 73.6956 51.8064 73.0796 51.8064H70.1178C69.5018 51.8064 68.9791 51.3439 68.892 50.7501H74.3053Z" fill="#152F4E"/>
<path fill-rule="evenodd" clip-rule="evenodd" d="M86.4393 64.5251C88.2811 62.8689 89.4757 60.1689 89.4757 57.1251C89.4757 54.0814 88.2811 51.3814 86.4393 49.7251V48.0063H82.1646C78.1264 48.0063 74.8535 52.0876 74.8535 57.1251C74.8535 62.1626 78.1264 66.2501 82.1646 66.2501H86.4393V64.5251Z" fill="#152F4E"/>
<path fill-rule="evenodd" clip-rule="evenodd" d="M89.9053 57.1314C89.9053 53.6314 88.0822 49.2064 84.3862 48.3689C82.9426 48.6939 81.6484 49.5751 80.6528 50.8189C79.3586 52.4314 78.556 54.6626 78.556 57.1314H89.9053ZM80.3666 48.4376C77.4111 49.6126 75.2769 53.0564 75.2769 57.1251H75.5942C75.5942 54.5564 76.428 52.2314 77.7844 50.5439C78.5062 49.6376 79.3897 48.9126 80.3666 48.4376ZM76.0111 57.1314H76.8573C76.8573 54.5626 77.6911 52.2376 79.0475 50.5501C79.8004 49.6064 80.7151 48.8689 81.7355 48.3939C80.3355 48.7376 79.0786 49.6001 78.1017 50.8189C76.8137 52.4251 76.0111 54.6626 76.0111 57.1314ZM77.2866 57.1314H78.1328C78.1328 54.5626 78.9666 52.2376 80.3231 50.5501C81.076 49.6064 81.9906 48.8689 83.0173 48.3939C81.6173 48.7376 80.3604 49.6001 79.3835 50.8189C78.0831 52.4251 77.2866 54.6626 77.2866 57.1314Z" fill="#6B7192"/>
<path fill-rule="evenodd" clip-rule="evenodd" d="M86.439 66.2499C90.4773 66.2499 93.7501 62.1624 93.7501 57.1312C93.7501 52.0999 90.471 48.0125 86.439 48.0125C82.4008 48.0125 79.1279 52.0999 79.1279 57.1312C79.1279 62.1624 82.4008 66.2499 86.439 66.2499Z" fill="#152F4E"/>
<path fill-rule="evenodd" clip-rule="evenodd" d="M87.1917 64.7627C90.5579 64.7627 93.2832 61.344 93.2832 57.1315C93.2832 52.919 90.5579 49.5002 87.1917 49.5002C83.8254 49.5002 81.1001 52.919 81.1001 57.1315C81.1001 61.344 83.8317 64.7627 87.1917 64.7627ZM87.1917 62.7065C89.6494 62.7065 91.6405 60.2065 91.6405 57.1252C91.6405 54.044 89.6494 51.544 87.1917 51.544C84.7339 51.544 82.7428 54.044 82.7428 57.1252C82.7428 60.2065 84.7339 62.7065 87.1917 62.7065Z" fill="#6B7192"/>
<path fill-rule="evenodd" clip-rule="evenodd" d="M85.966 55.294L85.4309 54.0814H84.0869C83.8318 54.0814 83.6265 53.8127 83.6265 53.4815C83.6265 53.1502 83.8318 52.8815 84.0869 52.8815H84.902L84.2923 51.4939C84.1678 51.2064 84.2425 50.8377 84.4603 50.6752C84.678 50.5064 84.958 50.6064 85.0825 50.8939L85.6923 52.2815L86.0967 51.3565C86.2211 51.069 86.5011 50.969 86.7251 51.1377C86.9429 51.3065 87.0176 51.6689 86.8931 51.9627L86.2211 53.4939L86.7563 54.7127C87.1109 54.5752 87.4843 54.5752 87.8389 54.7127L88.374 53.4939L87.702 51.969C87.5776 51.6815 87.6523 51.3127 87.87 51.1502C88.0878 50.9814 88.3678 51.0814 88.4923 51.3689L88.8967 52.294L89.5065 50.9065C89.6309 50.619 89.9109 50.519 90.1349 50.6877C90.3527 50.8565 90.4274 51.219 90.3029 51.5127L89.6931 52.9065H90.5083C90.7571 52.9065 90.9625 53.1752 90.9687 53.5065C90.9687 53.8377 90.7634 54.1065 90.5145 54.1065H89.1643L88.6291 55.3252C88.8905 55.6565 89.0834 56.0877 89.1705 56.5564H90.2407L90.9127 55.0315C91.0371 54.744 91.3171 54.644 91.5411 54.8127C91.7589 54.9815 91.8336 55.344 91.7091 55.6377L91.3047 56.5627H92.5243C92.7794 56.5627 92.9847 56.8315 92.9847 57.1627C92.9847 57.494 92.7794 57.7627 92.5243 57.7627H91.3047L91.7091 58.6877C91.8336 58.9752 91.7589 59.344 91.5411 59.5065C91.3234 59.6752 91.0434 59.5752 90.9189 59.2877L90.2469 57.7627H89.1767C89.0896 58.2315 88.9029 58.6627 88.6354 58.9939L89.1705 60.2064H90.5145C90.7696 60.2064 90.9749 60.4752 90.9687 60.8065C90.9687 61.1377 90.7634 61.4065 90.5083 61.4065H89.6931L90.3029 62.794C90.4274 63.0815 90.3527 63.4502 90.1349 63.6127C89.9171 63.7814 89.6371 63.6814 89.5127 63.3939L88.9029 62.0064L88.4985 62.9315C88.374 63.219 88.094 63.319 87.8763 63.1502C87.6585 62.9815 87.5838 62.6189 87.7083 62.3314L88.3803 60.8065L87.8451 59.5877C87.4905 59.7252 87.1171 59.7252 86.7625 59.5877L86.2274 60.8065L86.8994 62.3377C87.0238 62.6252 86.9491 62.9939 86.7314 63.1565C86.5136 63.3252 86.2336 63.2252 86.1091 62.9377L85.7047 62.0127L85.0949 63.4065C84.9705 63.694 84.6905 63.794 84.4727 63.6252C84.2549 63.4565 84.1803 63.094 84.3047 62.8065L84.9145 61.419H84.0994C83.8443 61.419 83.6451 61.1502 83.6389 60.8189C83.6389 60.4877 83.8443 60.219 84.0931 60.219H85.4371L85.9723 59.0002C85.7047 58.6627 85.518 58.2377 85.4309 57.7689H84.3607L83.6887 59.294C83.5643 59.5815 83.2843 59.6815 83.0665 59.5127C82.8487 59.344 82.774 58.9815 82.8985 58.694L83.3029 57.7689H82.0709C81.8158 57.7689 81.6167 57.5002 81.6167 57.169C81.6167 56.8377 81.822 56.569 82.0771 56.569H83.2967L82.8923 55.6439C82.7678 55.3564 82.8425 54.9877 83.0603 54.8252C83.278 54.6565 83.558 54.7565 83.6825 55.044L84.3545 56.569H85.4247C85.5118 56.0565 85.6985 55.6252 85.966 55.294ZM87.5589 55.844C87.0176 55.6565 86.4638 56.0752 86.3207 56.7815C86.1776 57.494 86.4949 58.219 87.0363 58.4065C87.5776 58.594 88.1314 58.1752 88.2745 57.469C88.4176 56.769 88.094 56.0315 87.5589 55.844Z" fill="white"/>
</g>
<defs>
<clipPath id="clip0_1_3148">
<rect width="89.4942" height="41.025" fill="white" transform="translate(8.71118 28.75)"/>
</clipPath>
</defs>
</svg>
