<svg width="144" height="48" viewBox="0 0 144 48" fill="none" xmlns="http://www.w3.org/2000/svg">
<path d="M144 41.5158C144 45.1022 141.157 48 137.638 48H6.36246C2.8434 48 0 45.1022 0 41.5158V6.48416C0 2.89779 2.8434 0 6.36246 0H137.638C141.157 0 144 2.89779 144 6.48416V41.5158Z" fill="#152F4E"/>
<path d="M10.8105 9.23853V25.5063V41.7454L26.8856 25.5063L10.8105 9.23853Z" fill="url(#paint0_linear_1_3379)"/>
<path d="M31.193 21.1169L24.7179 17.301L10.8105 9.12402V9.23879L26.8856 25.5066L31.193 21.1169Z" fill="url(#paint1_linear_1_3379)"/>
<path d="M10.8105 41.7457V41.8604L24.7179 33.6835L31.193 29.8676L26.8856 25.5066L10.8105 41.7457Z" fill="url(#paint2_linear_1_3379)"/>
<path d="M31.1928 21.1174L26.8855 25.5072L31.1928 29.8682L38.6251 25.5072L31.1928 21.1174Z" fill="url(#paint3_linear_1_3379)"/>
<path d="M112.075 31.8473C111.484 31.8473 110.921 31.7326 110.414 31.5031C109.907 31.2735 109.485 30.9292 109.147 30.4415H109.035C109.091 30.9866 109.147 31.503 109.147 32.0195V35.9215H107.74V22.2359H108.894L109.091 23.527H109.147C109.513 23.0105 109.935 22.6375 110.414 22.408C110.893 22.1785 111.456 22.0637 112.075 22.0637C113.314 22.0637 114.243 22.4941 114.918 23.3548C115.594 24.2155 115.932 25.4206 115.932 26.9699C115.932 28.5192 115.594 29.7242 114.918 30.5849C114.215 31.417 113.257 31.8473 112.075 31.8473ZM111.85 23.2687C110.893 23.2687 110.217 23.527 109.795 24.0721C109.372 24.6172 109.147 25.4493 109.147 26.6256V26.9412C109.147 28.261 109.372 29.2078 109.795 29.7816C110.217 30.3554 110.921 30.6423 111.878 30.6423C112.666 30.6423 113.314 30.298 113.764 29.6381C114.215 28.9782 114.44 28.0601 114.44 26.9125C114.44 25.7362 114.215 24.8181 113.764 24.1869C113.314 23.5843 112.694 23.2687 111.85 23.2687Z" fill="white"/>
<path d="M119.17 31.6747H117.762V18.2473H119.17V31.6747Z" fill="white"/>
<path d="M127.249 31.6752L126.968 30.3267H126.912C126.461 30.9292 125.983 31.3309 125.532 31.5317C125.082 31.7326 124.491 31.8473 123.815 31.8473C122.886 31.8473 122.182 31.6178 121.647 31.1301C121.112 30.6423 120.859 29.9537 120.859 29.0643C120.859 27.142 122.351 26.1665 125.363 26.0518L126.94 25.9944V25.4206C126.94 24.6746 126.771 24.1295 126.461 23.7852C126.152 23.4409 125.645 23.2687 124.969 23.2687C124.209 23.2687 123.308 23.4983 122.351 23.986L121.929 22.8958C122.379 22.6375 122.886 22.4367 123.421 22.2932C123.956 22.1498 124.519 22.0637 125.054 22.0637C126.152 22.0637 126.968 22.3219 127.503 22.8097C128.038 23.2974 128.291 24.1008 128.291 25.2197V31.6752H127.249ZM124.068 30.671C124.941 30.671 125.617 30.4128 126.123 29.925C126.63 29.4373 126.884 28.7487 126.884 27.8593V26.9986L125.476 27.056C124.35 27.0846 123.562 27.2855 123.055 27.6011C122.548 27.9167 122.323 28.4044 122.323 29.0643C122.323 29.5808 122.464 29.9824 122.773 30.2406C123.083 30.5276 123.505 30.671 124.068 30.671Z" fill="white"/>
<path d="M129.108 22.2356H130.6L132.627 27.6295C133.077 28.8632 133.359 29.7526 133.443 30.2978H133.499C133.584 30.0109 133.725 29.4944 133.95 28.8058C134.175 28.0886 134.963 25.908 136.258 22.2643H137.779L133.809 32.9947C133.415 34.0563 132.965 34.8022 132.43 35.2613C131.895 35.7204 131.247 35.9212 130.487 35.9212C130.065 35.9212 129.643 35.8638 129.22 35.7777V34.6301C129.53 34.6875 129.868 34.7449 130.262 34.7449C131.219 34.7449 131.923 34.1997 132.317 33.0808L132.824 31.7323L129.108 22.2356Z" fill="white"/>
<path d="M86.034 23.0962C86.4844 23.4692 87.4134 24.2725 87.4134 25.7644C87.4134 27.2277 86.597 27.9163 85.7806 28.5762C85.5272 28.8344 85.2457 29.1213 85.2457 29.5516C85.2457 29.982 85.5272 30.2115 85.7524 30.4124L86.4562 30.9575C87.3008 31.7035 88.0891 32.3634 88.0891 33.7405C88.0891 35.6054 86.3155 37.4704 82.9935 37.4704C80.1782 37.4704 78.8269 36.0932 78.8269 34.6299C78.8269 33.9127 79.1647 32.9085 80.319 32.2199C81.5295 31.4739 83.1624 31.3592 84.0351 31.3018C83.7536 30.9575 83.4439 30.5845 83.4439 29.9533C83.4439 29.609 83.5284 29.4082 83.641 29.1787C83.4158 29.2074 83.2187 29.2074 83.0216 29.2074C80.9665 29.2074 79.8122 27.658 79.8122 26.1087C79.8122 25.1906 80.2064 24.1864 81.051 23.4692C82.1489 22.5511 83.4721 22.3789 84.5137 22.3789H88.5114L87.2727 23.0962H86.034ZM84.6545 31.8756C84.4856 31.8469 84.4011 31.8469 84.204 31.8469C84.0351 31.8469 82.9935 31.8756 82.1771 32.1625C81.7548 32.306 80.5161 32.7937 80.5161 34.1996C80.5161 35.6054 81.8674 36.6096 83.9225 36.6096C85.7806 36.6096 86.7659 35.6915 86.7659 34.4865C86.7659 33.4823 86.1466 32.9372 84.6545 31.8756ZM85.2175 28.1171C85.668 27.658 85.6961 27.0268 85.6961 26.6826C85.6961 25.248 84.8515 23.0388 83.2469 23.0388C82.7401 23.0388 82.2052 23.297 81.8955 23.6987C81.5577 24.1004 81.4732 24.6455 81.4732 25.1619C81.4732 26.4817 82.2334 28.6909 83.8944 28.6909C84.4011 28.6909 84.9079 28.4327 85.2175 28.1171Z" fill="white"/>
<path d="M73.8161 31.5599C70.7474 31.5599 69.0864 29.1212 69.0864 26.912C69.0864 24.3298 71.1697 22.1206 74.0976 22.1206C76.941 22.1206 78.7146 24.3872 78.7146 26.7685C78.7428 29.0925 76.9691 31.5599 73.8161 31.5599ZM76.2372 29.9532C76.7158 29.322 76.8284 28.5187 76.8284 27.7727C76.8284 26.0226 76.012 22.7231 73.619 22.7231C72.9715 22.7231 72.3521 22.9813 71.8735 23.383C71.1134 24.0716 70.9727 24.9323 70.9727 25.793C70.9727 27.744 71.9298 30.9574 74.2665 30.9574C75.0266 30.9861 75.7867 30.5844 76.2372 29.9532Z" fill="white"/>
<path d="M63.3153 31.5599C60.2467 31.5599 58.5857 29.1212 58.5857 26.912C58.5857 24.3298 60.669 22.1206 63.5968 22.1206C66.4402 22.1206 68.2138 24.3872 68.2138 26.7685C68.242 29.0925 66.4684 31.5599 63.3153 31.5599ZM65.7364 29.9532C66.215 29.322 66.3276 28.5187 66.3276 27.7727C66.3276 26.0226 65.5112 22.7231 63.1182 22.7231C62.4707 22.7231 61.8514 22.9813 61.3728 23.383C60.6127 24.0716 60.4719 24.9323 60.4719 25.793C60.4719 27.744 61.4291 30.9574 63.7657 30.9574C64.5259 30.9861 65.286 30.5844 65.7364 29.9532Z" fill="white"/>
<path d="M57.1214 31.2448L54.3343 31.9047C53.2082 32.0768 52.1947 32.249 51.1249 32.249C45.7478 32.249 43.6926 28.2322 43.6926 25.0762C43.6926 21.2316 46.5923 17.6453 51.5472 17.6453C52.5888 17.6453 53.6023 17.8174 54.5313 18.0756C55.9953 18.506 56.6709 18.9937 57.0932 19.3093L55.4885 20.8873L54.8129 21.0595L55.2915 20.2561C54.6158 19.5962 53.4334 18.3912 51.1249 18.3912C48.0563 18.3912 45.7196 20.7726 45.7196 24.2442C45.7196 27.974 48.3659 31.4743 52.617 31.4743C53.8557 31.4743 54.5032 31.2161 55.0944 30.9866V27.7732L52.1665 27.9453L53.7149 27.0846H57.8533L57.3466 27.5723C57.2058 27.6871 57.1777 27.7445 57.1495 27.8879C57.1214 28.0601 57.1214 28.6339 57.1214 28.8347V31.2448Z" fill="white"/>
<path d="M92.199 30.6707C91.5515 30.6133 91.4107 30.4985 91.4107 29.7239V29.4944V18.5057C91.4107 18.477 91.4107 18.4196 91.4107 18.3909C91.4952 17.7023 91.6922 17.5876 92.2834 17.2146H89.5245L88.0605 17.9319H89.5526V29.523V30.1829C89.5526 30.5846 89.4682 30.642 89.0177 31.2445H92.4524L93.1843 30.8141C92.8465 30.7568 92.5368 30.7281 92.199 30.6707Z" fill="white"/>
<path d="M100.11 30.8715C99.8845 30.9863 99.6874 31.1297 99.4622 31.2158C98.8147 31.5027 98.1672 31.5888 97.576 31.5888C96.9567 31.5888 95.9995 31.5601 95.0141 30.8141C93.6347 29.8386 93.0435 28.1458 93.0435 26.6539C93.0435 23.6127 95.4927 22.092 97.4634 22.092C98.1672 22.092 98.871 22.2642 99.4622 22.6372C100.419 23.2971 100.673 24.1291 100.814 24.5882L96.281 26.4818L94.7889 26.5965C95.2675 29.0927 96.9285 30.5559 98.7866 30.5559C99.7719 30.5559 100.476 30.2116 101.151 29.8673L100.11 30.8715ZM98.308 24.9898C98.674 24.8464 98.871 24.7316 98.871 24.4447C98.871 23.67 97.9983 22.7519 96.9566 22.7519C96.1684 22.7519 94.7326 23.3544 94.7326 25.4776C94.7326 25.8219 94.7608 26.1662 94.7889 26.5105L98.308 24.9898Z" fill="white"/>
<path d="M101.996 22.2641V23.5552H101.828V22.2641H101.405V22.1206H102.391V22.2641H101.996Z" fill="white"/>
<path d="M103.714 23.5552V22.2354L103.32 23.5552H103.207L102.813 22.2354V23.5552H102.672V22.1206H102.926L103.292 23.2682L103.658 22.1206H103.911V23.5552H103.714Z" fill="white"/>
<path d="M47.5778 13.7714H46.6206C46.6206 13.6279 46.5361 13.2549 46.3391 12.6237H44.9314C44.7344 13.2549 44.6499 13.6279 44.6499 13.7714H43.749C43.749 13.6853 43.9742 13.0254 44.4528 11.7917C44.9314 10.558 45.1566 9.8694 45.1566 9.75464H46.3109C46.3109 9.8694 46.5361 10.5293 46.9584 11.763C47.3525 12.9967 47.5778 13.6566 47.5778 13.7714ZM46.1701 12.0212C45.8323 10.9597 45.6634 10.3858 45.6634 10.2998H45.6071C45.6071 10.3858 45.4382 10.9597 45.0722 12.0212H46.1701Z" fill="white"/>
<path d="M51.4631 13.7705H50.703C50.703 13.6845 50.4215 13.2541 49.8584 12.422C49.2672 11.5613 48.9576 10.9875 48.8731 10.6719H48.8168C48.8731 11.131 48.9012 11.5326 48.9012 11.9056C48.9012 12.422 48.9012 13.0246 48.9575 13.7705H48.2256C48.2537 13.1393 48.2819 12.422 48.2819 11.6761C48.2819 10.9301 48.2537 10.2989 48.2256 9.75379H49.1265C49.1265 9.86855 49.3798 10.2989 49.8866 11.0449C50.4215 11.8482 50.7312 12.3934 50.7875 12.6803H50.8438C50.7875 12.2212 50.7593 11.8195 50.7593 11.4466C50.7593 10.9014 50.7312 10.3276 50.703 9.7251H51.4631C51.435 10.2415 51.4068 10.8727 51.4068 11.6474C51.435 12.4507 51.435 13.1393 51.4631 13.7705Z" fill="white"/>
<path d="M55.8545 11.6196C55.8545 12.1934 55.6575 12.7098 55.2915 13.1402C54.9255 13.5705 54.4188 13.8001 53.7431 13.8001C53.4334 13.8001 53.0393 13.8001 52.5044 13.7714C52.5325 13.1402 52.5325 12.4516 52.5325 11.6769C52.5325 10.931 52.5325 10.2998 52.5044 9.75464H53.0393C53.1237 9.75464 53.2645 9.75464 53.4334 9.75464C53.6023 9.75464 53.715 9.75464 53.7713 9.75464C54.5032 9.75464 55.0381 9.92679 55.3478 10.2998C55.6856 10.6728 55.8545 11.1031 55.8545 11.6196ZM55.01 11.763C55.01 11.3613 54.8974 11.0457 54.6721 10.7588C54.4469 10.5006 54.1091 10.3571 53.6305 10.3571C53.546 10.3571 53.4334 10.3572 53.2645 10.3858C53.2927 10.7875 53.2927 11.2179 53.2927 11.6769C53.2927 12.1647 53.2927 12.6524 53.3208 13.1402C53.4616 13.1689 53.5742 13.1689 53.715 13.1689C54.1372 13.1689 54.4751 13.0254 54.6721 12.7672C54.9255 12.4803 55.01 12.1647 55.01 11.763Z" fill="white"/>
<path d="M59.8802 13.7714H58.9793C58.7541 13.0541 58.557 12.595 58.4444 12.4229C58.3318 12.2508 58.1066 12.1647 57.8532 12.1647C57.7406 12.1647 57.628 12.1647 57.5154 12.1647C57.5154 12.6811 57.5154 13.2262 57.5435 13.7714H56.699C56.7271 13.1402 56.7271 12.4516 56.7271 11.6769C56.7271 10.931 56.7271 10.2998 56.699 9.75464H57.2339C57.2902 9.75464 57.4309 9.75464 57.5999 9.75464C57.7969 9.75464 57.9658 9.75464 58.1348 9.75464C59.0638 9.75464 59.5142 10.0702 59.5142 10.7301C59.5142 11.2466 59.2609 11.5909 58.726 11.7917V11.8491C58.923 11.9065 59.1201 12.0786 59.2608 12.3368C59.4298 12.5664 59.6268 13.0541 59.8802 13.7714ZM58.7541 10.931C58.7541 10.5293 58.5007 10.3285 57.9658 10.3285C57.7688 10.3285 57.5999 10.3285 57.4591 10.3858C57.4872 10.7014 57.4872 11.1318 57.4872 11.6196C57.5999 11.6196 57.6843 11.6196 57.7688 11.6196C58.4444 11.6196 58.7541 11.39 58.7541 10.931Z" fill="white"/>
<path d="M64.216 11.7053C64.216 12.3365 64.0189 12.8529 63.6529 13.2833C63.2869 13.6849 62.8083 13.9145 62.2453 13.9145C61.7104 13.9145 61.2599 13.7136 60.9221 13.3406C60.5561 12.9677 60.3872 12.4799 60.3872 11.8774C60.3872 11.2462 60.5843 10.7298 60.9503 10.2994C61.3162 9.89774 61.7948 9.66821 62.3579 9.66821C62.8928 9.66821 63.3432 9.86905 63.6811 10.242C64.047 10.615 64.216 11.1028 64.216 11.7053ZM63.3995 11.7913C63.3995 11.361 63.2869 11.0167 63.0899 10.7585C62.8646 10.5002 62.6113 10.3568 62.3016 10.3568C62.0201 10.3568 61.7667 10.5002 61.5415 10.7585C61.3444 11.0167 61.2318 11.361 61.2318 11.7913C61.2318 12.2217 61.3444 12.566 61.5696 12.8242C61.7948 13.0824 62.0482 13.2259 62.3579 13.2259C62.6394 13.2259 62.8928 13.0824 63.118 12.8242C63.2869 12.5373 63.3995 12.193 63.3995 11.7913Z" fill="white"/>
<path d="M65.9332 13.7714H65.0886C65.1168 13.1402 65.1168 12.4229 65.1168 11.6769C65.1168 10.931 65.1168 10.2998 65.0886 9.75464H65.9332C65.905 10.2711 65.905 10.9023 65.905 11.6769C65.905 12.4516 65.905 13.1402 65.9332 13.7714Z" fill="white"/>
<path d="M70.325 11.6196C70.325 12.1934 70.1279 12.7098 69.762 13.1402C69.396 13.5705 68.8892 13.8001 68.2136 13.8001C67.9039 13.8001 67.5098 13.8001 66.9749 13.7714C67.003 13.1402 67.003 12.4516 67.003 11.6769C67.003 10.931 67.003 10.2998 66.9749 9.75464H67.5098C67.5942 9.75464 67.735 9.75464 67.9039 9.75464C68.0728 9.75464 68.1854 9.75464 68.2417 9.75464C68.9737 9.75464 69.5086 9.92679 69.8183 10.2998C70.1561 10.6728 70.325 11.1031 70.325 11.6196ZM69.4804 11.763C69.4804 11.3613 69.3678 11.0457 69.1426 10.7588C68.9174 10.5006 68.5795 10.3571 68.101 10.3571C68.0165 10.3571 67.9039 10.3572 67.735 10.3858C67.7631 10.7875 67.7631 11.2179 67.7631 11.6769C67.7631 12.1647 67.7631 12.6524 67.7913 13.1402C67.932 13.1689 68.0446 13.1689 68.1854 13.1689C68.6077 13.1689 68.9455 13.0254 69.1426 12.7672C69.396 12.4803 69.4804 12.1647 69.4804 11.763Z" fill="white"/>
<path d="M76.1246 13.7714H75.1675C75.1675 13.6279 75.083 13.2549 74.8859 12.6237H73.4783C73.2812 13.2549 73.1968 13.6279 73.1968 13.7714H72.2959C72.2959 13.6853 72.5211 13.0254 72.9997 11.7917C73.4783 10.558 73.7035 9.8694 73.7035 9.75464H74.8578C74.8578 9.8694 75.083 10.5293 75.5053 11.763C75.9276 12.9967 76.1246 13.6566 76.1246 13.7714ZM74.7452 12.0212C74.4073 10.9597 74.2384 10.3858 74.2384 10.2998H74.1821C74.1821 10.3858 74.0132 10.9597 73.6472 12.0212H74.7452Z" fill="white"/>
<path d="M79.6719 10.8162C79.6719 11.304 79.503 11.6769 79.137 11.9065C78.771 12.136 78.3487 12.2508 77.8138 12.2508C77.7293 12.2508 77.6449 12.2508 77.6167 12.2508C77.6167 12.6237 77.6167 13.1402 77.6449 13.7714H76.8003C76.8284 13.1689 76.8284 12.4803 76.8284 11.6769C76.8284 10.931 76.8284 10.2998 76.8003 9.75464H77.3352C77.4197 9.75464 77.5604 9.75464 77.7575 9.75464C77.9827 9.75464 78.1516 9.75464 78.3205 9.75464C78.7147 9.75464 79.0244 9.84071 79.2777 10.0129C79.5311 10.185 79.6719 10.4432 79.6719 10.8162ZM78.8836 10.9884C78.8836 10.558 78.6021 10.3285 78.0109 10.3285C77.8701 10.3285 77.7293 10.3571 77.5604 10.3858C77.5886 10.7875 77.5886 11.2179 77.5886 11.7056C77.6449 11.7056 77.7012 11.7056 77.7575 11.7056C78.5176 11.7056 78.8836 11.4474 78.8836 10.9884Z" fill="white"/>
<path d="M83.2753 10.8162C83.2753 11.304 83.1064 11.6769 82.7405 11.9065C82.3745 12.136 81.9522 12.2508 81.4173 12.2508C81.3328 12.2508 81.2484 12.2508 81.2202 12.2508C81.2202 12.6237 81.2202 13.1402 81.2484 13.7714H80.4038C80.432 13.1689 80.432 12.4803 80.432 11.6769C80.432 10.931 80.432 10.2998 80.4038 9.75464H80.9387C81.0232 9.75464 81.1639 9.75464 81.361 9.75464C81.5862 9.75464 81.7551 9.75464 81.924 9.75464C82.3182 9.75464 82.6278 9.84071 82.8812 10.0129C83.1627 10.185 83.2753 10.4432 83.2753 10.8162ZM82.5152 10.9884C82.5152 10.558 82.2337 10.3285 81.6425 10.3285C81.5017 10.3285 81.361 10.3571 81.1921 10.3858C81.2202 10.7875 81.2202 11.2179 81.2202 11.7056C81.2765 11.7056 81.3328 11.7056 81.3891 11.7056C82.1493 11.7056 82.5152 11.4474 82.5152 10.9884Z" fill="white"/>
<path d="M89.2157 11.7053C89.2157 12.3365 89.0186 12.8529 88.6526 13.2833C88.2867 13.7136 87.8081 13.9145 87.245 13.9145C86.7101 13.9145 86.2597 13.7136 85.9219 13.3406C85.5559 12.9677 85.387 12.4799 85.387 11.8774C85.387 11.2462 85.584 10.7298 85.95 10.2994C86.316 9.89774 86.7946 9.66821 87.3576 9.66821C87.8925 9.66821 88.343 9.86905 88.6808 10.242C89.0468 10.615 89.2157 11.1028 89.2157 11.7053ZM88.3711 11.7913C88.3711 11.361 88.2585 11.0167 88.0614 10.7585C87.8362 10.5002 87.5829 10.3568 87.2732 10.3568C86.9917 10.3568 86.7383 10.5002 86.5131 10.7585C86.316 11.0167 86.2034 11.361 86.2034 11.7913C86.2034 12.2217 86.316 12.566 86.5412 12.8242C86.7664 13.0824 87.0198 13.2259 87.3295 13.2259C87.611 13.2259 87.8644 13.0824 88.0896 12.8242C88.2867 12.5373 88.3711 12.193 88.3711 11.7913Z" fill="white"/>
<path d="M93.3254 13.7705H92.5653C92.5653 13.6845 92.2838 13.2541 91.7207 12.422C91.1295 11.5613 90.8199 10.9875 90.7354 10.6719H90.6791C90.7354 11.131 90.7636 11.5326 90.7636 11.9056C90.7636 12.422 90.7636 13.0246 90.8199 13.7705H90.0879C90.116 13.1393 90.1442 12.422 90.1442 11.6761C90.1442 10.9301 90.116 10.2989 90.0879 9.75379H90.9888C90.9888 9.86855 91.2421 10.2989 91.7489 11.0449C92.2838 11.8482 92.5935 12.3934 92.6498 12.6803H92.7061C92.6498 12.2212 92.6216 11.8195 92.6216 11.4466C92.6216 10.9014 92.6216 10.3276 92.5653 9.7251H93.3254C93.2973 10.2415 93.2691 10.8727 93.2691 11.6474C93.2691 12.4507 93.2973 13.1393 93.3254 13.7705Z" fill="white"/>
<defs>
<linearGradient id="paint0_linear_1_3379" x1="18.8429" y1="9.24168" x2="18.8429" y2="41.7493" gradientUnits="userSpaceOnUse">
<stop stop-color="#2079B0"/>
<stop offset="0.2863" stop-color="#4A93B8"/>
<stop offset="0.767" stop-color="#83BEBF"/>
<stop offset="1" stop-color="#97CFBF"/>
</linearGradient>
<linearGradient id="paint1_linear_1_3379" x1="10.8006" y1="17.3099" x2="31.2054" y2="17.3099" gradientUnits="userSpaceOnUse">
<stop stop-color="#5ABCAB"/>
<stop offset="1" stop-color="#E6E99A"/>
</linearGradient>
<linearGradient id="paint2_linear_1_3379" x1="21.0029" y1="25.4961" x2="21.0029" y2="41.8678" gradientUnits="userSpaceOnUse">
<stop stop-color="#E53432"/>
<stop offset="0.1668" stop-color="#D73948"/>
<stop offset="0.5748" stop-color="#B33F72"/>
<stop offset="0.8619" stop-color="#9A4189"/>
<stop offset="1" stop-color="#904192"/>
</linearGradient>
<linearGradient id="paint3_linear_1_3379" x1="32.7551" y1="21.1308" x2="32.7551" y2="29.8619" gradientUnits="userSpaceOnUse">
<stop stop-color="#F18779"/>
<stop offset="0.1194" stop-color="#F2917A"/>
<stop offset="0.7128" stop-color="#FABC77"/>
<stop offset="1" stop-color="#FDCB72"/>
</linearGradient>
</defs>
</svg>
