<svg width="16" height="10" viewBox="0 0 16 10" fill="none" xmlns="http://www.w3.org/2000/svg">
<path d="M15.1949 1.57223C15.1095 1.27063 14.9427 0.995583 14.711 0.77446C14.4793 0.553338 14.1908 0.393853 13.8743 0.31188C12.7006 0.00500099 8.00519 5.42143e-06 8.00519 5.42143e-06C8.00519 5.42143e-06 3.31051 -0.00499044 2.13609 0.288329C1.81976 0.374075 1.53189 0.535815 1.30011 0.758022C1.06833 0.98023 0.900432 1.25544 0.81253 1.55724C0.502999 2.67485 0.500001 4.99286 0.500001 4.99286C0.500001 4.99286 0.497003 7.32229 0.804286 8.42849C0.976664 9.0401 1.48256 9.52326 2.1256 9.68812C3.31126 9.995 7.99395 9.99999 7.99395 9.99999C7.99395 9.99999 12.6894 10.005 13.863 9.71238C14.1797 9.63056 14.4684 9.47144 14.7007 9.25077C14.933 9.0301 15.1007 8.75552 15.1874 8.45418C15.4976 7.33728 15.4999 5.01998 15.4999 5.01998C15.4999 5.01998 15.5149 2.68984 15.1949 1.57223ZM6.50325 7.14031L6.507 2.85827L10.4095 5.00285L6.50325 7.14031Z" fill="white"/>
</svg>
