<svg width="14" height="13" viewBox="0 0 14 13" fill="none" xmlns="http://www.w3.org/2000/svg">
<path fill-rule="evenodd" clip-rule="evenodd" d="M12.0073 1.00988C12.3101 1.31259 12.5464 1.67518 12.701 2.07446C12.8793 2.54815 12.9744 3.04909 12.9822 3.55516C13.0196 4.19433 13.0196 4.40138 13.0196 6.03302C13.0196 7.66467 13.0109 7.86838 12.9822 8.51088C12.9722 9.01046 12.878 9.50336 12.7024 9.97088C12.5475 10.3701 12.3112 10.7327 12.0084 11.0355C11.7056 11.3383 11.3431 11.5746 10.9438 11.7294C10.4765 11.9045 9.9828 11.9991 9.48382 12.0093C8.84599 12.046 8.63694 12.046 7.00596 12.046C5.37498 12.046 5.17128 12.0373 4.5281 12.0093C4.0281 11.9928 3.53458 11.8912 3.06877 11.7087C2.66942 11.5542 2.3067 11.318 2.00378 11.0153C1.70087 10.7126 1.46442 10.3501 1.30956 9.95085C1.1339 9.48266 1.03973 8.98976 1.02971 8.49018C0.99231 7.85101 0.99231 7.6433 0.99231 6.01232C0.99231 4.38067 1.00099 4.17697 1.02971 3.53446C1.03947 3.03544 1.13411 2.54172 1.30956 2.07446C1.46399 1.67508 1.70021 1.31239 2.00305 1.00966C2.30589 0.706938 2.66866 0.470861 3.0681 0.316578C3.53479 0.140658 4.02812 0.0457882 4.52677 0.0360658C5.1646 0 5.37365 0 7.00463 0C8.63561 0 8.83931 0.00801458 9.48249 0.0360658C9.98152 0.046312 10.4752 0.141163 10.9425 0.316578C11.3418 0.471041 11.7045 0.707182 12.0073 1.00988ZM11.6798 9.56815C11.813 9.20698 11.8832 8.82566 11.8875 8.44075V8.44142H11.8949C11.9236 7.80294 11.9236 7.62795 11.9236 6.00113V6.00096C11.9236 4.37332 11.9163 4.195 11.8875 3.55984C11.8813 3.17925 11.8111 2.80242 11.6798 2.44513C11.5795 2.18537 11.4259 1.94947 11.229 1.75256C11.0321 1.55564 10.7962 1.40208 10.5364 1.30171C10.1793 1.16885 9.80201 1.09858 9.42104 1.094C8.7752 1.05727 8.60823 1.05726 6.98058 1.05726C5.35294 1.05726 5.17462 1.06528 4.53946 1.094C4.15878 1.09932 3.7818 1.16956 3.42475 1.30171C2.89779 1.50341 2.48036 1.91817 2.27666 2.44513C2.14352 2.80607 2.07326 3.18717 2.06894 3.57186C2.03355 4.21904 2.03355 4.38534 2.03355 6.01297V6.01299C2.03355 7.63996 2.04022 7.81895 2.06894 8.45345C2.07516 8.83403 2.14538 9.21086 2.27666 9.56815C2.3774 9.82837 2.53164 10.0645 2.72941 10.2614C2.92718 10.4582 3.16407 10.6114 3.42475 10.7109C3.78162 10.8437 4.15871 10.914 4.53946 10.9186C5.18597 10.9553 5.35228 10.9553 6.98058 10.9553C8.60756 10.9553 8.78655 10.948 9.42104 10.9186C9.80198 10.9137 10.1792 10.8434 10.5364 10.7109C10.7962 10.6108 11.0321 10.4573 11.2291 10.2605C11.426 10.0637 11.5795 9.82787 11.6798 9.56815ZM10.2117 3.52646C10.6093 3.52646 10.9316 3.20411 10.9316 2.80648C10.9316 2.40884 10.6093 2.08649 10.2117 2.08649C9.81402 2.08649 9.49167 2.40884 9.49167 2.80648C9.49167 3.20411 9.81402 3.52646 10.2117 3.52646ZM7.00143 2.91997C6.18236 2.91997 5.39684 3.24534 4.81767 3.82451C4.2385 4.40368 3.91312 5.18921 3.91312 6.00828C3.91312 6.82735 4.2385 7.61287 4.81767 8.19204C5.39684 8.77121 6.18236 9.09659 7.00143 9.09659C7.8205 9.09659 8.60603 8.77121 9.18519 8.19204C9.76437 7.61287 10.0897 6.82735 10.0897 6.00828C10.0897 5.18921 9.76437 4.40368 9.18519 3.82451C8.60603 3.24534 7.8205 2.91997 7.00143 2.91997ZM7.00143 8.01394C6.46932 8.01394 5.959 7.80256 5.58274 7.4263C5.20648 7.05004 4.9951 6.53972 4.9951 6.00761C4.9951 5.4755 5.20648 4.96518 5.58274 4.58892C5.959 4.21266 6.46932 4.00128 7.00143 4.00128C7.53354 4.00128 8.04386 4.21266 8.42012 4.58892C8.79638 4.96518 9.00776 5.4755 9.00776 6.00761C9.00776 6.53972 8.79638 7.05004 8.42012 7.4263C8.04386 7.80256 7.53354 8.01394 7.00143 8.01394Z" fill="white"/>
</svg>
