<svg width="432" height="54" viewBox="0 0 432 54" fill="none" xmlns="http://www.w3.org/2000/svg">
<path d="M286.571 0.0603259C296.235 0.0603259 303.686 8.97536 303.686 19.6135C303.686 30.2516 296.235 39.1666 286.571 39.1666C281.799 39.1666 278.265 36.7921 276.699 34.8077L276.539 34.5967V54H265.4V0.884404H276.539V4.63022C278.014 2.60748 281.629 0.0603259 286.571 0.0603259ZM38.5071 0.884404V28.5285H44.5562V47.4823H34.6712V38.3425H9.88497V47.4823H0V28.5285H0.95899C3.97782 28.5285 6.01618 26.1814 6.11873 20.032L6.12278 19.5385V0.884404H38.5071ZM199.523 0.240421L200.036 0.3298L188.375 16.0461L202.186 26.6156L213.848 10.8993C217.027 17.3761 216.565 25.3941 211.986 31.5666C208.789 35.874 204.19 38.471 199.321 39.1993C190.602 40.2917 182.458 35.5076 178.818 27.8524C175.982 21.4978 176.561 13.8095 180.987 7.8446C185.344 1.97322 192.309 -0.720725 199.008 0.165205L199.523 0.240421ZM66.6835 0.0603259C77.1565 0.0603259 86.554 7.19676 86.3925 21.6132L86.3797 22.2355H57.9788C58.4952 26.0563 61.2984 29.4275 67.2736 29.4275C70.3896 29.4275 73.2337 28.0466 74.2394 26.1466L74.3554 25.9064H86.0108C83.6502 33.6977 75.9783 39.1666 66.6835 39.1666C55.2494 39.1666 47.1348 30.9258 47.1348 19.5385C47.1348 8.30111 55.5444 0.0603259 66.6835 0.0603259ZM127.908 0.884404V38.3425H116.769V10.6984H106.663V24.2583C106.663 34.8964 100.024 39.1666 93.532 39.1666L92.4733 39.1597C90.9549 39.1378 89.7408 39.0598 88.7065 38.8623L88.3682 38.792V29.2027C89.1059 29.2777 90.1386 29.3526 90.9501 29.3526C93.7425 29.3526 95.4229 28.2234 95.5194 23.4991L95.5238 23.0596V0.884404H127.908ZM239.731 0.0603259C250.205 0.0603259 259.602 7.19676 259.44 21.6132L259.428 22.2355H231.027C231.543 26.0563 234.346 29.4275 240.322 29.4275C243.438 29.4275 246.282 28.0466 247.287 26.1466L247.403 25.9064H259.059C256.698 33.6977 249.026 39.1666 239.731 39.1666C228.297 39.1666 220.183 30.9258 220.183 19.5385C220.183 8.30111 228.592 0.0603259 239.731 0.0603259ZM411.747 0.0603259C422.035 0.0603259 428.551 6.49187 430.668 15.0255L430.779 15.4931H419.271C417.943 12.4964 415.656 10.2489 411.747 10.2489C407.099 10.2489 403.558 13.77 403.558 19.6135C403.558 25.4569 407.099 28.978 411.747 28.978C415.517 28.978 417.778 26.8882 419.125 24.052L419.271 23.7339H430.779C428.787 32.4991 422.222 39.1666 411.747 39.1666C400.534 39.1666 392.346 30.4763 392.346 19.6135C392.346 8.75061 400.534 0.0603259 411.747 0.0603259ZM147.232 0.884404V21.4864L162.576 0.884404H172.535V38.3425H161.47V17.7406L146.052 38.3425H136.093V0.884404H147.232ZM327.731 0.884404C337.69 0.884404 341.747 6.95262 341.747 12.4215C341.747 14.8188 341.009 16.6168 339.681 18.4148C342.263 20.3626 344.107 23.5091 344.107 26.8054C344.107 32.1766 340.621 38.126 331.061 38.3367L330.534 38.3425H309.658V0.884404H327.731ZM361.071 0.884404V21.4864L376.415 0.884404H386.374V38.3425H375.308V17.7406L359.891 38.3425H349.932V0.884404H361.071ZM329.723 22.8349H320.797V29.2027H329.723C331.493 29.2027 333.042 28.079 333.042 25.9813C333.042 23.979 331.631 22.9324 329.963 22.8414L329.723 22.8349ZM284.063 10.3238C279.047 10.3238 275.654 14.2195 275.654 19.6135C275.654 25.0074 279.047 28.9031 284.063 28.9031C289.079 28.9031 292.473 25.0074 292.473 19.6135C292.473 14.2195 289.079 10.3238 284.063 10.3238ZM27.3681 10.6984H17.2618V19.988C17.2618 23.9553 16.7083 26.1115 15.826 27.9961L15.5651 28.5285H27.3681V10.6984ZM327.51 9.42485H320.797V15.4182H327.51C328.985 15.4182 330.682 14.669 330.682 12.4215C330.682 10.2717 329.129 9.49283 327.703 9.42916L327.51 9.42485ZM66.3884 9.05027C62.1098 9.05027 59.4167 11.4304 58.3757 14.702L58.2739 15.0436H74.0603C72.88 10.5486 69.2654 9.05027 66.3884 9.05027ZM239.436 9.05027C235.158 9.05027 232.465 11.4304 231.424 14.702L231.322 15.0436H247.108C245.928 10.5486 242.313 9.05027 239.436 9.05027Z" fill="#152F4E"/>
</svg>
