<svg width="1278" height="2534" viewBox="0 0 1278 2534" fill="none" xmlns="http://www.w3.org/2000/svg">
<g opacity="0.7">
<g opacity="0.3" clip-path="url(#clip0_90_1456)">
<path opacity="0.5" d="M12.56 10.9902H9.41992V1267.01H12.56V10.9902Z" fill="#75DFB8"/>
<path opacity="0.2" d="M73.9486 9.42014H70.8086V1268.58H73.9486V9.42014Z" fill="#75DFB8"/>
<path opacity="0.2" d="M136.906 9.42014H133.766V1268.58H136.906V9.42014Z" fill="#75DFB8"/>
<path opacity="0.2" d="M199.864 9.42014H196.724V1268.58H199.864V9.42014Z" fill="#75DFB8"/>
<path opacity="0.2" d="M262.822 9.42014H259.682V1268.58H262.822V9.42014Z" fill="#75DFB8"/>
<path opacity="0.5" d="M325.78 9.42014H322.64V1268.58H325.78V9.42014Z" fill="#75DFB8"/>
<path opacity="0.2" d="M388.738 9.42014H385.598V1268.58H388.738V9.42014Z" fill="#75DFB8"/>
<path opacity="0.2" d="M451.696 9.42014H448.556V1268.58H451.696V9.42014Z" fill="#75DFB8"/>
<path opacity="0.2" d="M514.654 9.42014H511.514V1268.58H514.654V9.42014Z" fill="#75DFB8"/>
<path opacity="0.2" d="M577.612 9.42014H574.472V1268.58H577.612V9.42014Z" fill="#75DFB8"/>
<path opacity="0.5" d="M640.57 9.42014H637.43V1268.58H640.57V9.42014Z" fill="#75DFB8"/>
<path opacity="0.2" d="M703.528 9.42014H700.388V1268.58H703.528V9.42014Z" fill="#75DFB8"/>
<path opacity="0.2" d="M766.486 9.41992H763.346V1268.58H766.486V9.41992Z" fill="#75DFB8"/>
<path opacity="0.2" d="M829.444 9.42014H826.304V1268.58H829.444V9.42014Z" fill="#75DFB8"/>
<path opacity="0.2" d="M892.402 9.41992H889.262V1268.58H892.402V9.41992Z" fill="#75DFB8"/>
<path opacity="0.5" d="M955.36 9.42014H952.22V1268.58H955.36V9.42014Z" fill="#75DFB8"/>
<path opacity="0.2" d="M1018.32 9.42014H1015.18V1268.58H1018.32V9.42014Z" fill="#75DFB8"/>
<path opacity="0.2" d="M1081.28 9.42014H1078.14V1268.58H1081.28V9.42014Z" fill="#75DFB8"/>
<path opacity="0.2" d="M1144.23 9.42014H1141.09V1268.58H1144.23V9.42014Z" fill="#75DFB8"/>
<path opacity="0.2" d="M1207.19 9.42014H1204.05V1268.58H1207.19V9.42014Z" fill="#75DFB8"/>
<path opacity="0.5" d="M1276 9H11V13H1276V9Z" fill="#75DFB8"/>
<path opacity="0.2" d="M1278 71H0V74H1278V71Z" fill="#75DFB8"/>
<path opacity="0.2" d="M1278 134H0V137H1278V134Z" fill="#75DFB8"/>
<path opacity="0.2" d="M1278 197H0V200H1278V197Z" fill="#75DFB8"/>
<path opacity="0.2" d="M1278 260H0V263H1278V260Z" fill="#75DFB8"/>
<path opacity="0.5" d="M1278 323H9V326H1278V323Z" fill="#75DFB8"/>
<path opacity="0.2" d="M1278 386H9V389H1278V386Z" fill="#75DFB8"/>
<path opacity="0.2" d="M1278 449H0V452H1278V449Z" fill="#75DFB8"/>
<path opacity="0.2" d="M1278 512H0V515H1278V512Z" fill="#75DFB8"/>
<path opacity="0.2" d="M1278 574H0V578H1278V574Z" fill="#75DFB8"/>
<path opacity="0.5" d="M1278 637H9V641H1278V637Z" fill="#75DFB8"/>
<path opacity="0.2" d="M1278 700H0V704H1278V700Z" fill="#75DFB8"/>
<path opacity="0.2" d="M1278 763H0V766H1278V763Z" fill="#75DFB8"/>
<path opacity="0.2" d="M1278 826H0V829H1278V826Z" fill="#75DFB8"/>
<path opacity="0.2" d="M1278 889H0V892H1278V889Z" fill="#75DFB8"/>
<path opacity="0.5" d="M1278 952H9V955H1278V952Z" fill="#75DFB8"/>
<path opacity="0.2" d="M1278 1015H0V1018H1278V1015Z" fill="#75DFB8"/>
<path opacity="0.2" d="M1278 1078H0V1081H1278V1078Z" fill="#75DFB8"/>
<path opacity="0.2" d="M1278 1141H0V1144H1278V1141Z" fill="#75DFB8"/>
<path opacity="0.2" d="M1278 1204H0V1207H1278V1204Z" fill="#75DFB8"/>
<path opacity="0.5" d="M1280 1265H11V1269H1280V1265Z" fill="#75DFB8"/>
<path d="M12.56 0H9.41992V21.9803H12.56V0Z" fill="#75DFB8"/>
<path d="M21.9803 9.42014H0V12.5602H21.9803V9.42014Z" fill="#75DFB8"/>
<path d="M12.56 314.005H9.41992V335.985H12.56V314.005Z" fill="#75DFB8"/>
<path d="M21.9803 323.425H0V326.565H21.9803V323.425Z" fill="#75DFB8"/>
<path d="M12.56 628.01H9.41992V649.99H12.56V628.01Z" fill="#75DFB8"/>
<path d="M21.9803 637.43H0V640.57H21.9803V637.43Z" fill="#75DFB8"/>
<path d="M12.56 942.015H9.41992V963.995H12.56V942.015Z" fill="#75DFB8"/>
<path d="M21.9803 951.435H0V954.575H21.9803V951.435Z" fill="#75DFB8"/>
<path d="M12.56 1256.02H9.41992V1278H12.56V1256.02Z" fill="#75DFB8"/>
<path d="M21.9803 1265.44H0V1268.58H21.9803V1265.44Z" fill="#75DFB8"/>
<path d="M326.565 0H323.425V21.9803H326.565V0Z" fill="#75DFB8"/>
<path d="M335.985 9.42014H314.005V12.5602H335.985V9.42014Z" fill="#75DFB8"/>
<path d="M326.565 314.005H323.425V335.985H326.565V314.005Z" fill="#75DFB8"/>
<path d="M335.985 323.425H314.005V326.565H335.985V323.425Z" fill="#75DFB8"/>
<path d="M326.565 628.01H323.425V649.99H326.565V628.01Z" fill="#75DFB8"/>
<path d="M335.985 637.43H314.005V640.57H335.985V637.43Z" fill="#75DFB8"/>
<path d="M326.565 942.015H323.425V963.995H326.565V942.015Z" fill="#75DFB8"/>
<path d="M335.985 951.435H314.005V954.575H335.985V951.435Z" fill="#75DFB8"/>
<path d="M326.565 1256.02H323.425V1278H326.565V1256.02Z" fill="#75DFB8"/>
<path d="M335.985 1265.44H314.005V1268.58H335.985V1265.44Z" fill="#75DFB8"/>
<path d="M640.57 0H637.43V21.9803H640.57V0Z" fill="#75DFB8"/>
<path d="M649.99 9.42014H628.01V12.5602H649.99V9.42014Z" fill="#75DFB8"/>
<path d="M640.57 314.005H637.43V335.985H640.57V314.005Z" fill="#75DFB8"/>
<path d="M649.99 323.425H628.01V326.565H649.99V323.425Z" fill="#75DFB8"/>
<path d="M640.57 628.01H637.43V649.99H640.57V628.01Z" fill="#75DFB8"/>
<path d="M649.99 637.43H628.01V640.57H649.99V637.43Z" fill="#75DFB8"/>
<path d="M640.57 942.015H637.43V963.995H640.57V942.015Z" fill="#75DFB8"/>
<path d="M649.99 951.435H628.01V954.575H649.99V951.435Z" fill="#75DFB8"/>
<path d="M640.57 1256.02H637.43V1278H640.57V1256.02Z" fill="#75DFB8"/>
<path d="M649.99 1265.44H628.01V1268.58H649.99V1265.44Z" fill="#75DFB8"/>
<path d="M954.575 0H951.435V21.9803H954.575V0Z" fill="#75DFB8"/>
<path d="M963.995 9.42014H942.015V12.5602H963.995V9.42014Z" fill="#75DFB8"/>
<path d="M954.575 314.005H951.435V335.985H954.575V314.005Z" fill="#75DFB8"/>
<path d="M963.995 323.425H942.015V326.565H963.995V323.425Z" fill="#75DFB8"/>
<path d="M954.575 628.01H951.435V649.99H954.575V628.01Z" fill="#75DFB8"/>
<path d="M963.995 637.43H942.015V640.57H963.995V637.43Z" fill="#75DFB8"/>
<path d="M954.575 942.015H951.435V963.995H954.575V942.015Z" fill="#75DFB8"/>
<path d="M963.995 951.435H942.015V954.575H963.995V951.435Z" fill="#75DFB8"/>
<path d="M954.575 1256.02H951.435V1278H954.575V1256.02Z" fill="#75DFB8"/>
<path d="M963.995 1265.44H942.015V1268.58H963.995V1265.44Z" fill="#75DFB8"/>
<path d="M169.563 166.423H166.423V169.563H169.563V166.423Z" fill="#75DFB8"/>
<path d="M483.568 166.423H480.428V169.563H483.568V166.423Z" fill="#75DFB8"/>
<path d="M797.573 166.423H794.433V169.563H797.573V166.423Z" fill="#75DFB8"/>
<path d="M1111.58 166.423H1108.44V169.563H1111.58V166.423Z" fill="#75DFB8"/>
<path d="M169.563 480.427H166.423V483.568H169.563V480.427Z" fill="#75DFB8"/>
<path d="M483.568 480.428H480.428V483.568H483.568V480.428Z" fill="#75DFB8"/>
<path d="M797.573 480.428H794.433V483.568H797.573V480.428Z" fill="#75DFB8"/>
<path d="M1111.58 480.428H1108.44V483.568H1111.58V480.428Z" fill="#75DFB8"/>
<path d="M169.563 794.432H166.423V797.572H169.563V794.432Z" fill="#75DFB8"/>
<path d="M483.568 794.432H480.428V797.572H483.568V794.432Z" fill="#75DFB8"/>
<path d="M797.573 794.432H794.433V797.572H797.573V794.432Z" fill="#75DFB8"/>
<path d="M1111.58 794.432H1108.44V797.572H1111.58V794.432Z" fill="#75DFB8"/>
<path d="M169.563 1108.44H166.423V1111.58H169.563V1108.44Z" fill="#75DFB8"/>
<path d="M483.568 1108.44H480.428V1111.58H483.568V1108.44Z" fill="#75DFB8"/>
<path d="M797.573 1108.44H794.433V1111.58H797.573V1108.44Z" fill="#75DFB8"/>
<path d="M1111.58 1108.44H1108.44V1111.58H1111.58V1108.44Z" fill="#75DFB8"/>
</g>
<g opacity="0.3">
<path opacity="0.5" d="M12.56 1266.99H9.41992V2523.01H12.56V1266.99Z" fill="#75DFB8"/>
<path opacity="0.2" d="M73.9486 1265.42H70.8086V2524.58H73.9486V1265.42Z" fill="#75DFB8"/>
<path opacity="0.2" d="M136.906 1265.42H133.766V2524.58H136.906V1265.42Z" fill="#75DFB8"/>
<path opacity="0.2" d="M199.864 1265.42H196.724V2524.58H199.864V1265.42Z" fill="#75DFB8"/>
<path opacity="0.2" d="M262.822 1265.42H259.682V2524.58H262.822V1265.42Z" fill="#75DFB8"/>
<path opacity="0.5" d="M325.78 1265.42H322.64V2524.58H325.78V1265.42Z" fill="#75DFB8"/>
<path opacity="0.2" d="M388.738 1265.42H385.598V2524.58H388.738V1265.42Z" fill="#75DFB8"/>
<path opacity="0.2" d="M451.696 1265.42H448.556V2524.58H451.696V1265.42Z" fill="#75DFB8"/>
<path opacity="0.2" d="M514.654 1265.42H511.514V2524.58H514.654V1265.42Z" fill="#75DFB8"/>
<path opacity="0.2" d="M577.612 1265.42H574.472V2524.58H577.612V1265.42Z" fill="#75DFB8"/>
<path opacity="0.5" d="M640.57 1265.42H637.43V2524.58H640.57V1265.42Z" fill="#75DFB8"/>
<path opacity="0.2" d="M703.528 1265.42H700.388V2524.58H703.528V1265.42Z" fill="#75DFB8"/>
<path opacity="0.2" d="M766.486 1265.42H763.346V2524.58H766.486V1265.42Z" fill="#75DFB8"/>
<path opacity="0.2" d="M829.444 1265.42H826.304V2524.58H829.444V1265.42Z" fill="#75DFB8"/>
<path opacity="0.2" d="M892.402 1265.42H889.262V2524.58H892.402V1265.42Z" fill="#75DFB8"/>
<path opacity="0.5" d="M955.36 1265.42H952.22V2524.58H955.36V1265.42Z" fill="#75DFB8"/>
<path opacity="0.2" d="M1018.32 1265.42H1015.18V2524.58H1018.32V1265.42Z" fill="#75DFB8"/>
<path opacity="0.2" d="M1081.28 1265.42H1078.14V2524.58H1081.28V1265.42Z" fill="#75DFB8"/>
<path opacity="0.2" d="M1144.23 1265.42H1141.09V2524.58H1144.23V1265.42Z" fill="#75DFB8"/>
<path opacity="0.2" d="M1207.19 1265.42H1204.05V2524.58H1207.19V1265.42Z" fill="#75DFB8"/>
<path opacity="0.5" d="M1278 1265H11V1269H1278V1265Z" fill="#75DFB8"/>
<path opacity="0.2" d="M1278 1327H0V1330H1278V1327Z" fill="#75DFB8"/>
<path opacity="0.2" d="M1278 1390H0V1393H1278V1390Z" fill="#75DFB8"/>
<path opacity="0.2" d="M1278 1453H0V1456H1278V1453Z" fill="#75DFB8"/>
<path opacity="0.2" d="M1278 1516H0V1519H1278V1516Z" fill="#75DFB8"/>
<path opacity="0.5" d="M1278 1579H9V1582H1278V1579Z" fill="#75DFB8"/>
<path opacity="0.2" d="M1278 1642H0V1645H1278V1642Z" fill="#75DFB8"/>
<path opacity="0.2" d="M1278 1705H0V1708H1278V1705Z" fill="#75DFB8"/>
<path opacity="0.2" d="M1278 1768H0V1771H1278V1768Z" fill="#75DFB8"/>
<path opacity="0.2" d="M1278 1830H0V1834H1278V1830Z" fill="#75DFB8"/>
<path opacity="0.5" d="M1278 1893H9V1897H1278V1893Z" fill="#75DFB8"/>
<path opacity="0.2" d="M1278 1956H0V1960H1278V1956Z" fill="#75DFB8"/>
<path opacity="0.2" d="M1278 2019H0V2022H1278V2019Z" fill="#75DFB8"/>
<path opacity="0.2" d="M1278 2082H0V2085H1278V2082Z" fill="#75DFB8"/>
<path opacity="0.2" d="M1278 2145H0V2148H1278V2145Z" fill="#75DFB8"/>
<path opacity="0.5" d="M1278 2208H9V2211H1278V2208Z" fill="#75DFB8"/>
<path opacity="0.2" d="M1278 2271H0V2274H1278V2271Z" fill="#75DFB8"/>
<path opacity="0.2" d="M1278 2334H0V2337H1278V2334Z" fill="#75DFB8"/>
<path opacity="0.2" d="M1278 2397H0V2400H1278V2397Z" fill="#75DFB8"/>
<path opacity="0.2" d="M1268.58 2460.05H9.41992V2463.19H1268.58V2460.05Z" fill="#75DFB8"/>
<path opacity="0.5" d="M1267.01 2521.44H10.9902V2524.58H1267.01V2521.44Z" fill="#75DFB8"/>
<path d="M12.56 1256H9.41992V1277.98H12.56V1256Z" fill="#75DFB8"/>
<path d="M21.9803 1265.42H0V1268.56H21.9803V1265.42Z" fill="#75DFB8"/>
<path d="M12.56 1570H9.41992V1591.99H12.56V1570Z" fill="#75DFB8"/>
<path d="M21.9803 1579.43H0V1582.57H21.9803V1579.43Z" fill="#75DFB8"/>
<path d="M12.56 1884.01H9.41992V1905.99H12.56V1884.01Z" fill="#75DFB8"/>
<path d="M21.9803 1893.43H0V1896.57H21.9803V1893.43Z" fill="#75DFB8"/>
<path d="M12.56 2198.01H9.41992V2220H12.56V2198.01Z" fill="#75DFB8"/>
<path d="M21.9803 2207.43H0V2210.57H21.9803V2207.43Z" fill="#75DFB8"/>
<path d="M12.56 2512.02H9.41992V2534H12.56V2512.02Z" fill="#75DFB8"/>
<path d="M21.9803 2521.44H0V2524.58H21.9803V2521.44Z" fill="#75DFB8"/>
<path d="M326.565 1256H323.425V1277.98H326.565V1256Z" fill="#75DFB8"/>
<path d="M335.985 1265.42H314.005V1268.56H335.985V1265.42Z" fill="#75DFB8"/>
<path d="M326.565 1570H323.425V1591.99H326.565V1570Z" fill="#75DFB8"/>
<path d="M335.985 1579.43H314.005V1582.57H335.985V1579.43Z" fill="#75DFB8"/>
<path d="M326.565 1884.01H323.425V1905.99H326.565V1884.01Z" fill="#75DFB8"/>
<path d="M335.985 1893.43H314.005V1896.57H335.985V1893.43Z" fill="#75DFB8"/>
<path d="M326.565 2198.01H323.425V2219.99H326.565V2198.01Z" fill="#75DFB8"/>
<path d="M335.985 2207.43H314.005V2210.57H335.985V2207.43Z" fill="#75DFB8"/>
<path d="M326.565 2512.02H323.425V2534H326.565V2512.02Z" fill="#75DFB8"/>
<path d="M335.985 2521.44H314.005V2524.58H335.985V2521.44Z" fill="#75DFB8"/>
<path d="M640.57 1256H637.43V1277.98H640.57V1256Z" fill="#75DFB8"/>
<path d="M649.99 1265.42H628.01V1268.56H649.99V1265.42Z" fill="#75DFB8"/>
<path d="M640.57 1570H637.43V1591.99H640.57V1570Z" fill="#75DFB8"/>
<path d="M649.99 1579.43H628.01V1582.57H649.99V1579.43Z" fill="#75DFB8"/>
<path d="M640.57 1884.01H637.43V1905.99H640.57V1884.01Z" fill="#75DFB8"/>
<path d="M649.99 1893.43H628.01V1896.57H649.99V1893.43Z" fill="#75DFB8"/>
<path d="M640.57 2198.01H637.43V2220H640.57V2198.01Z" fill="#75DFB8"/>
<path d="M649.99 2207.43H628.01V2210.57H649.99V2207.43Z" fill="#75DFB8"/>
<path d="M640.57 2512.02H637.43V2534H640.57V2512.02Z" fill="#75DFB8"/>
<path d="M649.99 2521.44H628.01V2524.58H649.99V2521.44Z" fill="#75DFB8"/>
<path d="M954.575 1256H951.435V1277.98H954.575V1256Z" fill="#75DFB8"/>
<path d="M963.995 1265.42H942.015V1268.56H963.995V1265.42Z" fill="#75DFB8"/>
<path d="M954.575 1570H951.435V1591.99H954.575V1570Z" fill="#75DFB8"/>
<path d="M963.995 1579.43H942.015V1582.57H963.995V1579.43Z" fill="#75DFB8"/>
<path d="M954.575 1884.01H951.435V1905.99H954.575V1884.01Z" fill="#75DFB8"/>
<path d="M963.995 1893.43H942.015V1896.57H963.995V1893.43Z" fill="#75DFB8"/>
<path d="M954.575 2198.01H951.435V2220H954.575V2198.01Z" fill="#75DFB8"/>
<path d="M963.995 2207.43H942.015V2210.57H963.995V2207.43Z" fill="#75DFB8"/>
<path d="M954.575 2512.02H951.435V2534H954.575V2512.02Z" fill="#75DFB8"/>
<path d="M963.995 2521.44H942.015V2524.58H963.995V2521.44Z" fill="#75DFB8"/>
<path d="M1268.58 2512.02H1265.44V2534H1268.58V2512.02Z" fill="#75DFB8"/>
<path d="M1278 2521.44H1256.02V2524.58H1278V2521.44Z" fill="#75DFB8"/>
<path d="M169.563 1422.42H166.423V1425.56H169.563V1422.42Z" fill="#75DFB8"/>
<path d="M483.568 1422.42H480.428V1425.56H483.568V1422.42Z" fill="#75DFB8"/>
<path d="M797.573 1422.42H794.433V1425.56H797.573V1422.42Z" fill="#75DFB8"/>
<path d="M1111.58 1422.42H1108.44V1425.56H1111.58V1422.42Z" fill="#75DFB8"/>
<path d="M169.563 1736.43H166.423V1739.57H169.563V1736.43Z" fill="#75DFB8"/>
<path d="M483.568 1736.43H480.428V1739.57H483.568V1736.43Z" fill="#75DFB8"/>
<path d="M797.573 1736.43H794.433V1739.57H797.573V1736.43Z" fill="#75DFB8"/>
<path d="M1111.58 1736.43H1108.44V1739.57H1111.58V1736.43Z" fill="#75DFB8"/>
<path d="M169.563 2050.43H166.423V2053.57H169.563V2050.43Z" fill="#75DFB8"/>
<path d="M483.568 2050.43H480.428V2053.57H483.568V2050.43Z" fill="#75DFB8"/>
<path d="M797.573 2050.43H794.433V2053.57H797.573V2050.43Z" fill="#75DFB8"/>
<path d="M1111.58 2050.43H1108.44V2053.57H1111.58V2050.43Z" fill="#75DFB8"/>
<path d="M169.563 2364.44H166.423V2367.58H169.563V2364.44Z" fill="#75DFB8"/>
<path d="M483.568 2364.44H480.428V2367.58H483.568V2364.44Z" fill="#75DFB8"/>
<path d="M797.573 2364.44H794.433V2367.58H797.573V2364.44Z" fill="#75DFB8"/>
<path d="M1111.58 2364.44H1108.44V2367.58H1111.58V2364.44Z" fill="#75DFB8"/>
</g>
</g>
<defs>
<clipPath id="clip0_90_1456">
<rect width="1278" height="1278" fill="white"/>
</clipPath>
</defs>
</svg>
